<mxfile host="app.diagrams.net" modified="2024-03-07T16:51:54.331Z" agent="Mozilla/5.0 (X11; Linux x86_64; rv:109.0) Gecko/20100101 Firefox/115.0" etag="xsn0U1yCAIJHlfobRC6k" version="24.0.1" type="device" pages="3">
  <diagram name="start" id="Zc4CvvtgJYzPgyUkbDwz">
    <mxGraphModel dx="1464" dy="946" grid="1" gridSize="10" guides="1" tooltips="1" connect="1" arrows="1" fold="1" page="1" pageScale="1" pageWidth="850" pageHeight="1100" math="0" shadow="0">
      <root>
        <mxCell id="0" />
        <mxCell id="1" parent="0" />
        <mxCell id="s8Bi90bk0YpQpDEgGWr6-5" value="" style="verticalLabelPosition=bottom;verticalAlign=top;html=1;shape=mxgraph.basic.partConcEllipse;startAngle=0.9057122582784672;endAngle=0.1;arcWidth=0.5;fillStyle=cross-hatch;" vertex="1" parent="1">
          <mxGeometry x="220" y="40" width="390" height="390" as="geometry" />
        </mxCell>
        <mxCell id="s8Bi90bk0YpQpDEgGWr6-6" value="" style="verticalLabelPosition=bottom;verticalAlign=top;html=1;shape=mxgraph.basic.partConcEllipse;startAngle=0.1124311986865717;endAngle=0.25;arcWidth=0.5;fillStyle=hatch;fillColor=#000000;" vertex="1" parent="1">
          <mxGeometry x="220" y="40" width="390" height="390" as="geometry" />
        </mxCell>
        <mxCell id="s8Bi90bk0YpQpDEgGWr6-10" value="" style="verticalLabelPosition=bottom;verticalAlign=top;html=1;shape=mxgraph.basic.partConcEllipse;startAngle=0.7536580900160924;endAngle=0.8951859844605881;arcWidth=0.5;fillStyle=auto;fillColor=#FFFFFF;" vertex="1" parent="1">
          <mxGeometry x="220" y="40" width="390" height="390" as="geometry" />
        </mxCell>
        <mxCell id="s8Bi90bk0YpQpDEgGWr6-11" value="" style="verticalLabelPosition=bottom;verticalAlign=top;html=1;shape=mxgraph.basic.partConcEllipse;startAngle=0.9057122582784672;endAngle=0.1;arcWidth=0.5;direction=west;fillStyle=cross-hatch;fillColor=#000000;" vertex="1" parent="1">
          <mxGeometry x="220" y="50" width="390" height="390" as="geometry" />
        </mxCell>
        <mxCell id="s8Bi90bk0YpQpDEgGWr6-12" value="" style="verticalLabelPosition=bottom;verticalAlign=top;html=1;shape=mxgraph.basic.partConcEllipse;startAngle=0.1124311986865717;endAngle=0.25;arcWidth=0.5;direction=west;fillColor=#000000;fillStyle=cross-hatch;" vertex="1" parent="1">
          <mxGeometry x="220" y="50" width="390" height="390" as="geometry" />
        </mxCell>
        <mxCell id="s8Bi90bk0YpQpDEgGWr6-13" value="" style="verticalLabelPosition=bottom;verticalAlign=top;html=1;shape=mxgraph.basic.partConcEllipse;startAngle=0.7536580900160924;endAngle=0.8951859844605881;arcWidth=0.5;direction=west;fillStyle=cross-hatch;fillColor=#000000;" vertex="1" parent="1">
          <mxGeometry x="220" y="50" width="390" height="390" as="geometry" />
        </mxCell>
        <mxCell id="s8Bi90bk0YpQpDEgGWr6-16" value="&lt;font face=&quot;Courier New&quot;&gt;RAW&lt;/font&gt;" style="rounded=0;whiteSpace=wrap;html=1;strokeColor=none;" vertex="1" parent="1">
          <mxGeometry x="390" y="370" width="55" height="30" as="geometry" />
        </mxCell>
        <mxCell id="s8Bi90bk0YpQpDEgGWr6-17" value="&lt;font face=&quot;Courier New&quot;&gt;RAW&lt;/font&gt;" style="rounded=0;whiteSpace=wrap;html=1;strokeColor=none;" vertex="1" parent="1">
          <mxGeometry x="260" y="290" width="50" height="30" as="geometry" />
        </mxCell>
        <mxCell id="s8Bi90bk0YpQpDEgGWr6-18" value="&lt;font face=&quot;Courier New&quot;&gt;RAW&lt;/font&gt;" style="rounded=0;whiteSpace=wrap;html=1;strokeColor=none;" vertex="1" parent="1">
          <mxGeometry x="520" y="300" width="55" height="30" as="geometry" />
        </mxCell>
        <mxCell id="s8Bi90bk0YpQpDEgGWr6-19" value="&lt;font face=&quot;Courier New&quot;&gt;COMP&lt;/font&gt;" style="rounded=0;whiteSpace=wrap;html=1;strokeColor=none;" vertex="1" parent="1">
          <mxGeometry x="520" y="160" width="55" height="30" as="geometry" />
        </mxCell>
        <mxCell id="s8Bi90bk0YpQpDEgGWr6-20" value="&lt;font face=&quot;Courier New&quot;&gt;EMPTY&lt;/font&gt;" style="rounded=0;whiteSpace=wrap;html=1;strokeColor=none;" vertex="1" parent="1">
          <mxGeometry x="387.5" y="80" width="55" height="30" as="geometry" />
        </mxCell>
        <mxCell id="s8Bi90bk0YpQpDEgGWr6-21" value="&lt;font face=&quot;Courier New&quot;&gt;EMPTY&lt;/font&gt;" style="rounded=0;whiteSpace=wrap;html=1;strokeColor=none;" vertex="1" parent="1">
          <mxGeometry x="260" y="150" width="55" height="30" as="geometry" />
        </mxCell>
        <mxCell id="s8Bi90bk0YpQpDEgGWr6-24" value="" style="html=1;shadow=0;dashed=0;align=center;verticalAlign=middle;shape=mxgraph.arrows2.uTurnArrow;dy=0.67;arrowHead=7.67;dx2=7.14;fillColor=#000000;rotation=90;" vertex="1" parent="1">
          <mxGeometry x="403.13" y="190" width="28.75" height="65" as="geometry" />
        </mxCell>
        <mxCell id="s8Bi90bk0YpQpDEgGWr6-27" value="&lt;div align=&quot;center&quot;&gt;&lt;font face=&quot;Courier New&quot;&gt;Service&lt;/font&gt;&lt;/div&gt;" style="rounded=1;whiteSpace=wrap;html=1;align=center;" vertex="1" parent="1">
          <mxGeometry x="670" y="255" width="90" height="25" as="geometry" />
        </mxCell>
        <mxCell id="s8Bi90bk0YpQpDEgGWr6-32" value="" style="shape=image;imageAspect=0;aspect=fixed;verticalLabelPosition=bottom;verticalAlign=top;image=data:image/png,iVBORw0KGgoAAAANSUhEUgAAAeAAAAHgCAYAAAB91L6VAAAACXBIWXMAAAsTAAALEwEAmpwYAAAZnElEQVR4nO3de7CtdV3H8Q8Xb6QmJjrNNKVcQm1SUCkznSwTdRozxMtghpKK0lSi4KjFTSwzHTUcqqkZk1FEZ8wLk2KmTqWAI5cwQCUVJEnlIiLgDcRzmkef3RxP5xzOOey9v7+1vq/XzPefRk2/z3v/Hvbaa60nAQAAAAAAAAAAAAAAAAAAAAAAAAAAAAAAAAAAAAAAAAAAAAAAAAAAAAAAAAAAAAAAAAAAAAAAAAAAAAAAYBncNcmDkjwpyYuSnJDklCSnJ/lQkvOTXD7PN+b5VpKNSW5K8pkk/5LkVUkekWSX6v9BADCSvZI8LslLk7w1yblJvjrfSFdzvpbkk0n+KclpSd6Q5E+SPDfJryd5QJLdq5cBAGvh7vPN9oT5t9i1uNHekfl+kiuT/GuSv07ywiSPTnIvOQCwaDfcp8wvHV8w3+A2Luj8d5L3Jjkmya/OL5EDwDAePN+kPprklgFunGs1t8wvl//l/Fv9XaoXD0A/ByR5zfyGqI1N59tJzkpydJL9qy8IAMv9m+7JSS4b4OY34lyS5KQkv1h9oQBYfHskeU6Scwa4wS3SXDb/w8q+1RcQgMXykCSnJrlhgJvZIs+GJP8+f/RpeoMaAPw/0xdXPCHJRwa4cS3j3Jzk771EDcCKOyc5PMnFA9ykuszZSZ6eZDcZAvS88R6V5KoBbkhd54tJ/sBHmgB62HX+7esLA9yAzI92cE2Sl89vegNgCf/G+8wkn3fjG/bGf3WSY92IAZbHw5J8fIAbjNm+HfxPkiP9jRhgcf3U/L3Mt7n5LeTN/7PznwsAWKC/8/5RkhsHuImYO76Df06yX3VUAGzbfvPj9dz4lmsHtyZ5racyAYz5saITl/yJROZH716fvjAFgAFMDwDwRRq9btCnJblXdXgAnT9adOT8aLzqG4JZ/x18LcmTqyME6Oan5zfnuPH13sH0wIe/S3KP6iABOjg4ybUDHP5mnB38V5IDqsMEWOaXnKevLPS53vob3ojzvSQvro4UYNlMLzH+4wCHvBl/B+9Nsmd1sADLYP8klw1wsJvF2cFlczcA7KRHJblugAPdLN4ObvIuaYCdM30P8HcHOMjN4u7gtvl9AwBsp+Pmj5hUH+BmOXbwliS7++kD2PaDFP52gAPbLN8OPuBZwwBbtluStw5wUJvl3cF5SfbyAwjw4w9TePcAB7Tp8Q7pn/PDB5DcdX55sPpgHmFuTvKfSc5MckqSo5M8a34C0MPnG8ee8+yxSTx7bPJ/n/41j5j/PdO/9yXzf9aZ83/2zQP876yeK5Ps7YcP6P6bb9eb79VJ3pfk+CS/M98Qpm/7WmvT/499khyS5IQk709yzQD7WO/58rwHgJZ/8+30svNX5nfjHp5k34xnv/m/2/R3+K8OsK/1mKvm/90Ard7t/LYBDuC1nOljVJ+cP4f60HX67Xa17DI/3OAVST615B8Jm/7ByMvRQBvL/FGj85Mcu2Rv9Ll/kpcluXCA/a7FfHF+xCXAUjt+gAN3teeb83NpD8zye1CS1yb5+gB7X825JMm9q5cLsFZ+d8lezrw4yRHzO7m7uVuS359vXBuXZM72ZR3AMvq1+ZmtG5dgPpzk4AX7u+5amXbwxCQfGeC6rMacOb9HAWApTI+Gu35JbryPrF7m4E+v+ugA1+mOzuurFwmwGu65BM/z/USSx8hhh17tOGeA63ZH5nmuN7DoL0++e8E/Jzp9NtZLzTvnyUm+NMB13Jm5NclvrPLPA8C6eeUAB+nOzHfnRyJ2fHPVapu+JvOkBf37//RO75+tXiDAjnrc/ED0jQv4cvMDXe5VN33718cGuL47OtMXkdxFD8CimL7U4NoBDs8dmZuSHOnl5jU1vZR/1AI+EOLNa7sWgNU7ZD84wKG5o7/l+E7g9f1mrbMHuO47Ms9ex/0A7JSjBzgst3dum/8+ubtrve7ulOTVC/RniukVEt8ZDQzrF5J8Z4DDcnvfYPP46oWRxy7Q4xDPmZ/iBTDcs30vHuCQ3J45z7tbhzI9uOKCAbrYnpne2Q8wlJMGOBy3Z073rtYhTR/5eucAfdze3NLkoRvAgnjwfDBtHHymvzn6Uo1xTdfmNQN0cntz6fyKD0Cp6Yvrzx3gUNzWfH9+ahGL4fkL8Oas6bGaAKX+eIDDcFsz/WZ+qEYW8mssR/72rOm/my9sAcrcb34Y/ciH5G/rY2E9afB31f+bP2kAVd4ywCG4tZkObl+mvxxfaTryTXh6WAfAupreCfqDAQ7Arb3s/Ft6WBoHD/xy9DXzIzcB1s3HBzj8tjTTm3eeoYOlc8j8ZrqNA86fVy8H6OOZAxx6Wxvvdl5eLxigry3N9BK5xxYCa276Kr7LBjj0tjQnu/5L7y8G6GxL847qxQDL74gBDrutfcOVL9lYftM1ftcAvW0+G5IcVL0cYLmfYHP5AIfd5vMfSe5WvRzW9Wsrzx+gu83nAxoA1spRAxxym8/1SR7gkrcz/c31ugH623x+uXoxwPKZvvv2qgEOuM3f8Tx9TpSenjDgR+HOql4KsHyeO8DhtvlMT2Citz8boMPNx2/BwKq+8eWSAQ62TeeTSXZ3jdub3pfwqQF63HTObH9VgFX9Tt6NA823kuzn+jLbJ8lNA3S56TuiPagBWBUfGeBQ23SOdF3ZzIsG6HLTOdUVAu6ohwxwmG06nkDD1p5L/YkB+tz0VZo9XSrgjjh1gMNsZb6b5OddTrbigYM9tOEVrhSws/ZIcsMAB9nKHOdScjtOGqDTlfnS/Js5wEJ/9OjL8z8QwLZM34h25QC9rozPqQM75ZwBDrCVebpryHY6bIBeV+YMVw3YUQ8e4PBamenNNR60wPaaWjl3gG5X3rdwb5cO2BEnD3B4rcxjXDp20GMH6HZl/tDVA3bE5wY4uKb5sMvGTvrYAP1unH8bB9guBw5waK3MI10zdtKjBuh35Zuxpqc3Adyu1wxwaE3jt1+W5bfgo11KYHt8cYADa5qDXS6W5HvMp08UACzEu58v9s5nVukd0ZcO8jL0z7iiwLYcM8BhtXH+EhBYDc8boOdpXuhyAtvy0QEOqunrL33rFav57VgjfKXqe1xSYGt+YpAvs3+zS8Qq+5sBur4xyZ1cWWBLnjLAITXNAS4PS/pYzUe7ssCWnDLAAXW+S8MauWiAvl/t6gJbcuEAB9SxLg1r5JUD9H22qwts7u5Jvj/ARzXu79KwRvaeG6tsfHqPxV1cYWBTvznAbwe+M5e1dv4Anf+Kywxs6oQBDqaXuySssT8doPPps/YA/+dDAxxMD3U9WGMPH6BznwcGfsxXiw+lr/jqSdbBrkmuLm79KlcaWLHXAL8V/IPLwTp52wC97+lqA6O8Aev3XArWyRED9P4YVxsY5QEM+7gUrJP9B+j9KFcbmJxWfBhd4zKwzo8ovLa4+em7qQF++PnbysPofa4B6+zM4uY/7ooDk68VH0bHuwyss5OKm/dOaOCHz0qt/nq+6SlMsJ4OLW7+B76SEnhQ8UE0zQNcBtbZfgN0v6+rDr09qfgQutkXcFBgtyTfKW5/+vgf0NiLig+hT1cvgLYuLW7/+dULAGqdWHwIvV8AFPlAcfvefAjNvbn4EPqr6gXQ1qnaByq9o/gQeonLT9NvgHu7Kw+9fbj4EDqsegG09ezi9s+qXgBQ68LiQ+jxAqDIE4vb/5QrD719ofgQmh6QDhUOKm7/8y479Pbl4kPo/tULoK29i9uffvaAxq4pPoT2ql4Abd2vuP2rqxcA1Ppm8SH0kwKgyJ7F7d/gykNv1V/HNz0MAirsUdz+t1126O224kNo+k5eqLBbcfvTzx7Q2MbiAf0DLbkB05n+gTIOIDrTP1DGAURn+gfKOIDoTP9AGQcQnekfKOMAojP9A2UcQHSmf6CMA4jO9A+UcQDRmf6BMg4gOtM/UMYBRGf6B8o4gOhM/0AZBxCd6R8o4wCiM/0DZRxAdKZ/oIwDiM70D5RxANGZ/oEyDiA60z9QxgFEZ/oHyjiA6Ez/QBkHEJ3pHyjjAKIz/QNlHEB0pn+gjAOIzvQPlHEA0Zn+gTIOIDrTP1DGAURn+gfKOIDoTP9AGQcQnekfKOMAojP9A2UcQHSmf1hi903ytCQnJnlnkguTXJHkG0luHeAAMHaggb4N3DqfRVfMZ9MZSU5Icuh8dsHCOSjJG5NcmmTDAD9kxg40oIEdbWA6uy6Zz7JHVB+qsC33TPKyJJ/1g+6w14AGlrCB6Ww7Nsk93AoYxb2TnDy/jFP9A2LsQAMaWOsGprPuVUn2rD586WuXJIcnudYPvENfAxpoeiN+cZJdqw9jetkvybkD/AAYO9CABqobOCfJvtWHMj08NckNfujLf+iNHWhgnAZuSnJY9eHM8ppeZjllgNCNHWhAA6M2ML1j2kvSrKo7z5/hrY7b2IEGNDB6A+9Jclf3IFbr5vuhAaI2dqABDSxKA2fNZyfstOmllHcNELOxAw1oYNEamF419HI0O83ffOt/iI0daGBxG3iD+w874xkDxGvsQAMaWPQGnuUWxI6YPtN24wDhGjvQgAYWvYGbk+zvFsT2mP5m4Us26n9ojR1oYHkaOHv+9kDYphcMEKuxAw1oYNkaOMK9h9t7sMLXBwjV2IEGNLBsDUzfm+8BDmzVyQNEauxAAxpY1gZOdP9ha8/z9UjB+h9QYwcaWN4Grvc8YbbkZQPEaexAAxpY9gaOcQtic58bIExjBxrQwLI38Bm3Hzb1SwNEaexAAxro0sCBbkGseNMAQRo70IAGujTwercfVlw6QJDGDjSggS4NXOT2w+S+STYMEKSxAw1ooEsDG5Ls5RbE0waI0diBBjTQrYGnuv1w0gAhGjvQgAa6NXC82w/vHCBEYwca0EC3Bk53++GCAUI0dqABDXRr4Dy3H64cIERjBxrQQLcGrnD74foBQjR2oAENdGvgOrcfbhkgRGMHGtBAtwa+5/ZDdYTGDjSgga4N0Fx1gMYONKCBrg3QXHWAxg40oIGuDdBcdYDGDjSgga4N0Fx1gMYONKCBrg3QXHWAxg40oIGuDdBcdYDGDjSgga4N0Fx1gMYONKCBrg3QXHWAxg40oIGuDdBcdYDGDjSgga4N0Fx1gMYONKCBrg3QXHWAxg40oIGuDdBcdYDGDjSgga4N0Fx1gMYONKCBrg3QXHWAxg40oIGuDdBcdYDGDjSgga4N0Fx1gMYONKCBrg3QXHWAxg40oIGuDdBcdYDGDjSgga4N0Fx1gMYONKCBrg3QXHWAxg40oIGuDdBcdYDGDjSgga4N0Fx1gMYONKCBrg3QXHWAxg40oIGuDdBcdYDGDjSgga4N0Fx1gMYONKCBrg3QXHWAxg40oIGuDdBcdYDGDjSgga4N0Fx1gMYONKCBrg3QXHWAxg40oIGuDdBcdYDGDjSgga4N0Fx1gMYONKCBrg3QXHWAxg40oIGuDdBcdYDGDjSgga4N0Fx1gMYONKCBrg3QXHWAxg40oIGuDdBcdYDGDjSgga4N0Fx1gMYONKCBrg3QXHWAxg40oIGuDdBcdYDGDjSgga4N0Fx1gMYONKCBrg3QXHWAxg40oIGuDdBcdYDGDjSgga4N0Fx1gMYONKCBrg3QXHWAxg40oIGuDdBcdYDGDjSgga4N0Fx1gMYONKCBrg3QXHWAxg40oIGuDdBcdYDGDjSgga4N0Fx1gMYONKCBrg3QXHWAxg40oIGuDdBcdYDGDjSgga4N0Fx1gMYONKCBrg3QXHWAxg40oIGuDdBcdYDGDjSgga4N0Fx1gMYONKCBrg3QXHWAxg40oIGuDdBcdYDGDjSgga4N0Fx1gMYONKCBrg3QXHWAxg40oIGuDdBcdYDGDjSgga4N0Fx1gMYONKCBrg3QXHWAxg40oIGuDdBcdYDGDjSgga4N0Fx1gMYONKCBrg3QXHWAxg40oIGuDdBcdYDGDjSgga4N0Fx1gMYONKCBrg3QXHWAxg40oIGuDdBcdYDGDjSgga4N0Fx1gMYONKCBrg3QXHWAxg40oIGuDdBcdYDGDjSgga4N0Fx1gMYONKCBrg3QXHWAxg40oIGuDdBcdYDGDjSgga4N0Fx1gMYONKCBrg3QXHWAxg40oIGuDdBcdYDGDjSgga4N0Fx1gMYONKCBrg3QXHWAxg40oIGuDdBcdYDGDjSgga4N0Fx1gMYONKCBrg3QXHWAxg40oIGuDdBcdYDGDjSgga4N0Fx1gMYONKCBrg3QXHWAxg40oIGuDdBcdYDGDjSgga4N0Fx1gMYONKCBrg3QXHWAxg40oIGuDdBcdYDGDjSgga4N0Fx1gMYONKCBrg3QXHWAxg40oIGuDdBcdYDGDjSgga4N0Fx1gMYONKCBrg3QXHWAxg40oIGuDdBcdYDGDjSgga4N0Fx1gMYONKCBrg3QXHWAxg40oIGuDdBcdYDGDjSgga4N0Fx1gMYONKCBrg3QXHWAxg40oIGuDdBcdYDGDjSgga4N0Fx1gMYONKCBrg3QXHWAxg40oIGuDdBcdYDGDjSgga4N0Fx1gMYONKCBrg3QXHWAxg40oIGuDdBcdYDGDjSgga4N0Fx1gMYONKCBrg3QXHWAxg40oIGuDdBcdYDGDjSgga4N0Fx1gMYONKCBrg3QXHWAxg40oIGuDdBcdYDGDjSgga4N0Fx1gMYONKCBrg3QXHWAxg40oIGuDdBcdYDGDjSgga4N0Fx1gMYONKCBrg3QXHWAxg40oIGuDdBcdYDGDjSgga4N0Fx1gMYONKCBrg3QXHWAxg40oIGuDdBcdYDGDjSgga4N0Fx1gMYONKCBrg3QXHWAxg40oIGuDdBcdYDGDjSgga4N0Fx1gMYONKCBrg3QXHWAxg40oIGuDdBcdYDGDjSgga4N0Fx1gMYONKCBrg3QXHWAxg40oIGuDdBcdYDGDjSgga4N0Fx1gMYONKCBrg3QXHWAxg40oIGuDdBcdYDGDjSgga4N0Fx1gMYONKCBrg3QXHWAxg40oIGuDdBcdYDGDjSgga4N0Fx1gMYONKCBrg3QXHWAxg40oIGuDdBcdYDGDjSgga4N0Fx1gMYONKCBrg3QXHWAxg40oIGuDdBcdYDGDjSgga4N0Fx1gMYONKCBrg3QXHWAxg40oIGuDdBcdYDGDjSgga4N0Fx1gMYONKCBrg3QXHWAxg40oIGuDdBcdYDGDjSgga4N0Fx1gMYONKCBrg3QXHWAxg40oIGuDdBcdYDGDjSgga4N0Fx1gMYONKCBrg3QXHWAxg40oIGuDdBcdYDGDjSgga4N0Fx1gMYONKCBrg3QXHWAxg40oIGuDdBcdYDGDjSgga4N0Fx1gMYONKCBrg3QXHWAxg40oIGuDdBcdYDGDjSgga4N0Fx1gMYONKCBrg3QXHWAxg40oIGuDdBcdYDGDjSgga4N0Fx1gMYONKCBrg3QXHWAxg40oIGuDdBcdYDGDjSgga4N0Fx1gMYONKCBrg3QXHWAxg40oIGuDdBcdYDGDjSgga4N0Fx1gMYONKCBrg3QXHWAxg40oIGuDdBcdYDGDjSgga4N0Fx1gMYONKCBrg3QXHWAxg40oIGuDdBcdYDGDjSgga4N0Fx1gMYONKCBrg3QXHWAxg40oIGuDdBcdYDGDjSgga4N0Fx1gMYONKCBrg3QXHWAxg40oIGuDdBcdYDGDjSgga4N0Fx1gMYONKCBrg3QXHWAxg40oIGuDdBcdYDGDjSgga4N0Fx1gMYONKCBrg3QXHWAxg40oIGuDdBcdYDGDjSgga4N0Fx1gMYONKCBrg3QXHWAxg40oIGuDdDcLQNEaOxAAxro1sD3qg9/6l0/QIjGDjSggW4NXFd9+FPvygFCNHagAQ10a+CK6sOfehcMEKKxAw1ooFsD51Uf/tQ7Y4AQjR1oQAPdGnh79eFPvRMHCNHYgQY00K2B46oPf+odOkCIxg40oIFuDRxSffhT775JNgwQo7EDDWigSwMbktyn+vBnDJcMEKSxAw1ooEsDF1Uf+ozjjQMEaexAAxro0sDrqg99xnHQAEEaO9CABro0cED1oc9YvAxd/0Np7EADy9/AZ6oPe8Zz7ABhGjvQgAaWvYGXVh/2jOeeSb4xQJzGDjSggWVtYPru/XtUH/aM6VUDBGrsQAMaWNYGTqg+5BnXnvMTOqojNXagAQ0sWwPXJLlX9SHP2J43QKjGDjSggWVr4DnVhzvj2yXJOQPEauxAAxpYlgY+MZ+tcLv2TfLNAaI1dqABDSx6A9NZurf7Djvi6QOEa+xAAxpY9AYOc+thZ/iKyvofXmMHGljcBl7v1sPOmv5mcdoAERs70IAGFq2BM5Ls6vbDHXHnJGcNELOxAw1oYFEa+GCSO7n1sFo34TMGiNrYgQY0MHoDp7v5stqml1LeMEDcxg40oIGR/+br40asmUN8Z3T5D7mxAw2M1cCNSZ7pvsN62CfJ2QNEb+xAAxoY4Us2fM6XdTW9zHL4/P2m1T8Axg40oIGKJxu92DudqX6Aw4lzjA5BO9CABpa9gevnpxp5sALDmJ5xeUySSwf4ATF2oAENrHYDlyR5aZK7Vx+2sC0Pm98N+OkkGxwEbgYa0MACNvCDJBcleV2SAx35LKL7JHlqkuOSvCPJ+Ukun1/GuWWAHzJjBxro28At81l0+Xw2nT6fVYfMZxcAAAAAAAAAAAAAAAAAAAAAAAAAAAAAAAAAAAAAAAAAAAAAAAAAAAAAAAAAAAAAAAAAAAAAAAAAAAAAAAAAAAAAAAAAAAAAAAAAAAAAAAAAAAAAAAAAAAAAAGTR/S9h7ld+vqadlQAAAABJRU5ErkJggg==;" vertex="1" parent="1">
          <mxGeometry x="770" y="257.5" width="20" height="20" as="geometry" />
        </mxCell>
        <mxCell id="s8Bi90bk0YpQpDEgGWr6-33" value="" style="endArrow=classic;html=1;rounded=0;" edge="1" parent="1">
          <mxGeometry width="50" height="50" relative="1" as="geometry">
            <mxPoint x="660" y="270" as="sourcePoint" />
            <mxPoint x="630" y="270" as="targetPoint" />
          </mxGeometry>
        </mxCell>
        <mxCell id="s8Bi90bk0YpQpDEgGWr6-34" value="&lt;div&gt;Library&amp;nbsp;&lt;/div&gt;&lt;div&gt;(not done writting)&lt;/div&gt;" style="rounded=1;whiteSpace=wrap;html=1;align=center;" vertex="1" parent="1">
          <mxGeometry x="90" y="120" width="100" height="40" as="geometry" />
        </mxCell>
        <mxCell id="s8Bi90bk0YpQpDEgGWr6-35" value="" style="shape=image;imageAspect=0;aspect=fixed;verticalLabelPosition=bottom;verticalAlign=top;image=data:image/png,iVBORw0KGgoAAAANSUhEUgAAAeAAAAHgCAYAAAB91L6VAAAACXBIWXMAAAsTAAALEwEAmpwYAAAZnElEQVR4nO3de7CtdV3H8Q8Xb6QmJjrNNKVcQm1SUCkznSwTdRozxMtghpKK0lSi4KjFTSwzHTUcqqkZk1FEZ8wLk2KmTqWAI5cwQCUVJEnlIiLgDcRzmkef3RxP5xzOOey9v7+1vq/XzPefRk2/z3v/Hvbaa60nAQAAAAAAAAAAAAAAAAAAAAAAAAAAAAAAAAAAAAAAAAAAAAAAAAAAAAAAAAAAAAAAAAAAAAAAAAAAAAAAYBncNcmDkjwpyYuSnJDklCSnJ/lQkvOTXD7PN+b5VpKNSW5K8pkk/5LkVUkekWSX6v9BADCSvZI8LslLk7w1yblJvjrfSFdzvpbkk0n+KclpSd6Q5E+SPDfJryd5QJLdq5cBAGvh7vPN9oT5t9i1uNHekfl+kiuT/GuSv07ywiSPTnIvOQCwaDfcp8wvHV8w3+A2Luj8d5L3Jjkmya/OL5EDwDAePN+kPprklgFunGs1t8wvl//l/Fv9XaoXD0A/ByR5zfyGqI1N59tJzkpydJL9qy8IAMv9m+7JSS4b4OY34lyS5KQkv1h9oQBYfHskeU6Scwa4wS3SXDb/w8q+1RcQgMXykCSnJrlhgJvZIs+GJP8+f/RpeoMaAPw/0xdXPCHJRwa4cS3j3Jzk771EDcCKOyc5PMnFA9ykuszZSZ6eZDcZAvS88R6V5KoBbkhd54tJ/sBHmgB62HX+7esLA9yAzI92cE2Sl89vegNgCf/G+8wkn3fjG/bGf3WSY92IAZbHw5J8fIAbjNm+HfxPkiP9jRhgcf3U/L3Mt7n5LeTN/7PznwsAWKC/8/5RkhsHuImYO76Df06yX3VUAGzbfvPj9dz4lmsHtyZ5racyAYz5saITl/yJROZH716fvjAFgAFMDwDwRRq9btCnJblXdXgAnT9adOT8aLzqG4JZ/x18LcmTqyME6Oan5zfnuPH13sH0wIe/S3KP6iABOjg4ybUDHP5mnB38V5IDqsMEWOaXnKevLPS53vob3ojzvSQvro4UYNlMLzH+4wCHvBl/B+9Nsmd1sADLYP8klw1wsJvF2cFlczcA7KRHJblugAPdLN4ObvIuaYCdM30P8HcHOMjN4u7gtvl9AwBsp+Pmj5hUH+BmOXbwliS7++kD2PaDFP52gAPbLN8OPuBZwwBbtluStw5wUJvl3cF5SfbyAwjw4w9TePcAB7Tp8Q7pn/PDB5DcdX55sPpgHmFuTvKfSc5MckqSo5M8a34C0MPnG8ee8+yxSTx7bPJ/n/41j5j/PdO/9yXzf9aZ83/2zQP876yeK5Ps7YcP6P6bb9eb79VJ3pfk+CS/M98Qpm/7WmvT/499khyS5IQk709yzQD7WO/58rwHgJZ/8+30svNX5nfjHp5k34xnv/m/2/R3+K8OsK/1mKvm/90Ard7t/LYBDuC1nOljVJ+cP4f60HX67Xa17DI/3OAVST615B8Jm/7ByMvRQBvL/FGj85Mcu2Rv9Ll/kpcluXCA/a7FfHF+xCXAUjt+gAN3teeb83NpD8zye1CS1yb5+gB7X825JMm9q5cLsFZ+d8lezrw4yRHzO7m7uVuS359vXBuXZM72ZR3AMvq1+ZmtG5dgPpzk4AX7u+5amXbwxCQfGeC6rMacOb9HAWApTI+Gu35JbryPrF7m4E+v+ugA1+mOzuurFwmwGu65BM/z/USSx8hhh17tOGeA63ZH5nmuN7DoL0++e8E/Jzp9NtZLzTvnyUm+NMB13Jm5NclvrPLPA8C6eeUAB+nOzHfnRyJ2fHPVapu+JvOkBf37//RO75+tXiDAjnrc/ED0jQv4cvMDXe5VN33718cGuL47OtMXkdxFD8CimL7U4NoBDs8dmZuSHOnl5jU1vZR/1AI+EOLNa7sWgNU7ZD84wKG5o7/l+E7g9f1mrbMHuO47Ms9ex/0A7JSjBzgst3dum/8+ubtrve7ulOTVC/RniukVEt8ZDQzrF5J8Z4DDcnvfYPP46oWRxy7Q4xDPmZ/iBTDcs30vHuCQ3J45z7tbhzI9uOKCAbrYnpne2Q8wlJMGOBy3Z073rtYhTR/5eucAfdze3NLkoRvAgnjwfDBtHHymvzn6Uo1xTdfmNQN0cntz6fyKD0Cp6Yvrzx3gUNzWfH9+ahGL4fkL8Oas6bGaAKX+eIDDcFsz/WZ+qEYW8mssR/72rOm/my9sAcrcb34Y/ciH5G/rY2E9afB31f+bP2kAVd4ywCG4tZkObl+mvxxfaTryTXh6WAfAupreCfqDAQ7Arb3s/Ft6WBoHD/xy9DXzIzcB1s3HBzj8tjTTm3eeoYOlc8j8ZrqNA86fVy8H6OOZAxx6Wxvvdl5eLxigry3N9BK5xxYCa276Kr7LBjj0tjQnu/5L7y8G6GxL847qxQDL74gBDrutfcOVL9lYftM1ftcAvW0+G5IcVL0cYLmfYHP5AIfd5vMfSe5WvRzW9Wsrzx+gu83nAxoA1spRAxxym8/1SR7gkrcz/c31ugH623x+uXoxwPKZvvv2qgEOuM3f8Tx9TpSenjDgR+HOql4KsHyeO8DhtvlMT2Citz8boMPNx2/BwKq+8eWSAQ62TeeTSXZ3jdub3pfwqQF63HTObH9VgFX9Tt6NA823kuzn+jLbJ8lNA3S56TuiPagBWBUfGeBQ23SOdF3ZzIsG6HLTOdUVAu6ohwxwmG06nkDD1p5L/YkB+tz0VZo9XSrgjjh1gMNsZb6b5OddTrbigYM9tOEVrhSws/ZIcsMAB9nKHOdScjtOGqDTlfnS/Js5wEJ/9OjL8z8QwLZM34h25QC9rozPqQM75ZwBDrCVebpryHY6bIBeV+YMVw3YUQ8e4PBamenNNR60wPaaWjl3gG5X3rdwb5cO2BEnD3B4rcxjXDp20GMH6HZl/tDVA3bE5wY4uKb5sMvGTvrYAP1unH8bB9guBw5waK3MI10zdtKjBuh35Zuxpqc3Adyu1wxwaE3jt1+W5bfgo11KYHt8cYADa5qDXS6W5HvMp08UACzEu58v9s5nVukd0ZcO8jL0z7iiwLYcM8BhtXH+EhBYDc8boOdpXuhyAtvy0QEOqunrL33rFav57VgjfKXqe1xSYGt+YpAvs3+zS8Qq+5sBur4xyZ1cWWBLnjLAITXNAS4PS/pYzUe7ssCWnDLAAXW+S8MauWiAvl/t6gJbcuEAB9SxLg1r5JUD9H22qwts7u5Jvj/ARzXu79KwRvaeG6tsfHqPxV1cYWBTvznAbwe+M5e1dv4Anf+Kywxs6oQBDqaXuySssT8doPPps/YA/+dDAxxMD3U9WGMPH6BznwcGfsxXiw+lr/jqSdbBrkmuLm79KlcaWLHXAL8V/IPLwTp52wC97+lqA6O8Aev3XArWyRED9P4YVxsY5QEM+7gUrJP9B+j9KFcbmJxWfBhd4zKwzo8ovLa4+em7qQF++PnbysPofa4B6+zM4uY/7ooDk68VH0bHuwyss5OKm/dOaOCHz0qt/nq+6SlMsJ4OLW7+B76SEnhQ8UE0zQNcBtbZfgN0v6+rDr09qfgQutkXcFBgtyTfKW5/+vgf0NiLig+hT1cvgLYuLW7/+dULAGqdWHwIvV8AFPlAcfvefAjNvbn4EPqr6gXQ1qnaByq9o/gQeonLT9NvgHu7Kw+9fbj4EDqsegG09ezi9s+qXgBQ68LiQ+jxAqDIE4vb/5QrD719ofgQmh6QDhUOKm7/8y479Pbl4kPo/tULoK29i9uffvaAxq4pPoT2ql4Abd2vuP2rqxcA1Ppm8SH0kwKgyJ7F7d/gykNv1V/HNz0MAirsUdz+t1126O224kNo+k5eqLBbcfvTzx7Q2MbiAf0DLbkB05n+gTIOIDrTP1DGAURn+gfKOIDoTP9AGQcQnekfKOMAojP9A2UcQHSmf6CMA4jO9A+UcQDRmf6BMg4gOtM/UMYBRGf6B8o4gOhM/0AZBxCd6R8o4wCiM/0DZRxAdKZ/oIwDiM70D5RxANGZ/oEyDiA60z9QxgFEZ/oHyjiA6Ez/QBkHEJ3pHyjjAKIz/QNlHEB0pn+gjAOIzvQPlHEA0Zn+gTIOIDrTP1DGAURn+gfKOIDoTP9AGQcQnekfKOMAojP9A2UcQHSmf1hi903ytCQnJnlnkguTXJHkG0luHeAAMHaggb4N3DqfRVfMZ9MZSU5Icuh8dsHCOSjJG5NcmmTDAD9kxg40oIEdbWA6uy6Zz7JHVB+qsC33TPKyJJ/1g+6w14AGlrCB6Ww7Nsk93AoYxb2TnDy/jFP9A2LsQAMaWOsGprPuVUn2rD586WuXJIcnudYPvENfAxpoeiN+cZJdqw9jetkvybkD/AAYO9CABqobOCfJvtWHMj08NckNfujLf+iNHWhgnAZuSnJY9eHM8ppeZjllgNCNHWhAA6M2ML1j2kvSrKo7z5/hrY7b2IEGNDB6A+9Jclf3IFbr5vuhAaI2dqABDSxKA2fNZyfstOmllHcNELOxAw1oYNEamF419HI0O83ffOt/iI0daGBxG3iD+w874xkDxGvsQAMaWPQGnuUWxI6YPtN24wDhGjvQgAYWvYGbk+zvFsT2mP5m4Us26n9ojR1oYHkaOHv+9kDYphcMEKuxAw1oYNkaOMK9h9t7sMLXBwjV2IEGNLBsDUzfm+8BDmzVyQNEauxAAxpY1gZOdP9ha8/z9UjB+h9QYwcaWN4Grvc8YbbkZQPEaexAAxpY9gaOcQtic58bIExjBxrQwLI38Bm3Hzb1SwNEaexAAxro0sCBbkGseNMAQRo70IAGujTwercfVlw6QJDGDjSggS4NXOT2w+S+STYMEKSxAw1ooEsDG5Ls5RbE0waI0diBBjTQrYGnuv1w0gAhGjvQgAa6NXC82w/vHCBEYwca0EC3Bk53++GCAUI0dqABDXRr4Dy3H64cIERjBxrQQLcGrnD74foBQjR2oAENdGvgOrcfbhkgRGMHGtBAtwa+5/ZDdYTGDjSgga4N0Fx1gMYONKCBrg3QXHWAxg40oIGuDdBcdYDGDjSgga4N0Fx1gMYONKCBrg3QXHWAxg40oIGuDdBcdYDGDjSgga4N0Fx1gMYONKCBrg3QXHWAxg40oIGuDdBcdYDGDjSgga4N0Fx1gMYONKCBrg3QXHWAxg40oIGuDdBcdYDGDjSgga4N0Fx1gMYONKCBrg3QXHWAxg40oIGuDdBcdYDGDjSgga4N0Fx1gMYONKCBrg3QXHWAxg40oIGuDdBcdYDGDjSgga4N0Fx1gMYONKCBrg3QXHWAxg40oIGuDdBcdYDGDjSgga4N0Fx1gMYONKCBrg3QXHWAxg40oIGuDdBcdYDGDjSgga4N0Fx1gMYONKCBrg3QXHWAxg40oIGuDdBcdYDGDjSgga4N0Fx1gMYONKCBrg3QXHWAxg40oIGuDdBcdYDGDjSgga4N0Fx1gMYONKCBrg3QXHWAxg40oIGuDdBcdYDGDjSgga4N0Fx1gMYONKCBrg3QXHWAxg40oIGuDdBcdYDGDjSgga4N0Fx1gMYONKCBrg3QXHWAxg40oIGuDdBcdYDGDjSgga4N0Fx1gMYONKCBrg3QXHWAxg40oIGuDdBcdYDGDjSgga4N0Fx1gMYONKCBrg3QXHWAxg40oIGuDdBcdYDGDjSgga4N0Fx1gMYONKCBrg3QXHWAxg40oIGuDdBcdYDGDjSgga4N0Fx1gMYONKCBrg3QXHWAxg40oIGuDdBcdYDGDjSgga4N0Fx1gMYONKCBrg3QXHWAxg40oIGuDdBcdYDGDjSgga4N0Fx1gMYONKCBrg3QXHWAxg40oIGuDdBcdYDGDjSgga4N0Fx1gMYONKCBrg3QXHWAxg40oIGuDdBcdYDGDjSgga4N0Fx1gMYONKCBrg3QXHWAxg40oIGuDdBcdYDGDjSgga4N0Fx1gMYONKCBrg3QXHWAxg40oIGuDdBcdYDGDjSgga4N0Fx1gMYONKCBrg3QXHWAxg40oIGuDdBcdYDGDjSgga4N0Fx1gMYONKCBrg3QXHWAxg40oIGuDdBcdYDGDjSgga4N0Fx1gMYONKCBrg3QXHWAxg40oIGuDdBcdYDGDjSgga4N0Fx1gMYONKCBrg3QXHWAxg40oIGuDdBcdYDGDjSgga4N0Fx1gMYONKCBrg3QXHWAxg40oIGuDdBcdYDGDjSgga4N0Fx1gMYONKCBrg3QXHWAxg40oIGuDdBcdYDGDjSgga4N0Fx1gMYONKCBrg3QXHWAxg40oIGuDdBcdYDGDjSgga4N0Fx1gMYONKCBrg3QXHWAxg40oIGuDdBcdYDGDjSgga4N0Fx1gMYONKCBrg3QXHWAxg40oIGuDdBcdYDGDjSgga4N0Fx1gMYONKCBrg3QXHWAxg40oIGuDdBcdYDGDjSgga4N0Fx1gMYONKCBrg3QXHWAxg40oIGuDdBcdYDGDjSgga4N0Fx1gMYONKCBrg3QXHWAxg40oIGuDdBcdYDGDjSgga4N0Fx1gMYONKCBrg3QXHWAxg40oIGuDdBcdYDGDjSgga4N0Fx1gMYONKCBrg3QXHWAxg40oIGuDdBcdYDGDjSgga4N0Fx1gMYONKCBrg3QXHWAxg40oIGuDdBcdYDGDjSgga4N0Fx1gMYONKCBrg3QXHWAxg40oIGuDdBcdYDGDjSgga4N0Fx1gMYONKCBrg3QXHWAxg40oIGuDdBcdYDGDjSgga4N0Fx1gMYONKCBrg3QXHWAxg40oIGuDdBcdYDGDjSgga4N0Fx1gMYONKCBrg3QXHWAxg40oIGuDdBcdYDGDjSgga4N0Fx1gMYONKCBrg3QXHWAxg40oIGuDdBcdYDGDjSgga4N0Fx1gMYONKCBrg3QXHWAxg40oIGuDdBcdYDGDjSgga4N0Fx1gMYONKCBrg3QXHWAxg40oIGuDdBcdYDGDjSgga4N0Fx1gMYONKCBrg3QXHWAxg40oIGuDdBcdYDGDjSgga4N0Fx1gMYONKCBrg3QXHWAxg40oIGuDdBcdYDGDjSgga4N0Fx1gMYONKCBrg3QXHWAxg40oIGuDdBcdYDGDjSgga4N0Fx1gMYONKCBrg3QXHWAxg40oIGuDdBcdYDGDjSgga4N0Fx1gMYONKCBrg3QXHWAxg40oIGuDdBcdYDGDjSgga4N0Fx1gMYONKCBrg3QXHWAxg40oIGuDdBcdYDGDjSgga4N0Fx1gMYONKCBrg3QXHWAxg40oIGuDdBcdYDGDjSgga4N0Fx1gMYONKCBrg3QXHWAxg40oIGuDdBcdYDGDjSgga4N0Fx1gMYONKCBrg3QXHWAxg40oIGuDdBcdYDGDjSgga4N0Fx1gMYONKCBrg3QXHWAxg40oIGuDdBcdYDGDjSgga4N0Fx1gMYONKCBrg3QXHWAxg40oIGuDdBcdYDGDjSgga4N0Fx1gMYONKCBrg3QXHWAxg40oIGuDdBcdYDGDjSgga4N0Fx1gMYONKCBrg3QXHWAxg40oIGuDdBcdYDGDjSgga4N0Fx1gMYONKCBrg3QXHWAxg40oIGuDdBcdYDGDjSgga4N0Fx1gMYONKCBrg3QXHWAxg40oIGuDdBcdYDGDjSgga4N0Fx1gMYONKCBrg3QXHWAxg40oIGuDdBcdYDGDjSgga4N0Fx1gMYONKCBrg3QXHWAxg40oIGuDdBcdYDGDjSgga4N0Fx1gMYONKCBrg3QXHWAxg40oIGuDdBcdYDGDjSgga4N0Fx1gMYONKCBrg3QXHWAxg40oIGuDdBcdYDGDjSgga4N0Fx1gMYONKCBrg3QXHWAxg40oIGuDdDcLQNEaOxAAxro1sD3qg9/6l0/QIjGDjSggW4NXFd9+FPvygFCNHagAQ10a+CK6sOfehcMEKKxAw1ooFsD51Uf/tQ7Y4AQjR1oQAPdGnh79eFPvRMHCNHYgQY00K2B46oPf+odOkCIxg40oIFuDRxSffhT775JNgwQo7EDDWigSwMbktyn+vBnDJcMEKSxAw1ooEsDF1Uf+ozjjQMEaexAAxro0sDrqg99xnHQAEEaO9CABro0cED1oc9YvAxd/0Np7EADy9/AZ6oPe8Zz7ABhGjvQgAaWvYGXVh/2jOeeSb4xQJzGDjSggWVtYPru/XtUH/aM6VUDBGrsQAMaWNYGTqg+5BnXnvMTOqojNXagAQ0sWwPXJLlX9SHP2J43QKjGDjSggWVr4DnVhzvj2yXJOQPEauxAAxpYlgY+MZ+tcLv2TfLNAaI1dqABDSx6A9NZurf7Djvi6QOEa+xAAxpY9AYOc+thZ/iKyvofXmMHGljcBl7v1sPOmv5mcdoAERs70IAGFq2BM5Ls6vbDHXHnJGcNELOxAw1oYFEa+GCSO7n1sFo34TMGiNrYgQY0MHoDp7v5stqml1LeMEDcxg40oIGR/+br40asmUN8Z3T5D7mxAw2M1cCNSZ7pvsN62CfJ2QNEb+xAAxoY4Us2fM6XdTW9zHL4/P2m1T8Axg40oIGKJxu92DudqX6Aw4lzjA5BO9CABpa9gevnpxp5sALDmJ5xeUySSwf4ATF2oAENrHYDlyR5aZK7Vx+2sC0Pm98N+OkkGxwEbgYa0MACNvCDJBcleV2SAx35LKL7JHlqkuOSvCPJ+Ukun1/GuWWAHzJjBxro28At81l0+Xw2nT6fVYfMZxcAAAAAAAAAAAAAAAAAAAAAAAAAAAAAAAAAAAAAAAAAAAAAAAAAAAAAAAAAAAAAAAAAAAAAAAAAAAAAAAAAAAAAAAAAAAAAAAAAAAAAAAAAAAAAAAAAAAAAAGTR/S9h7ld+vqadlQAAAABJRU5ErkJggg==;" vertex="1" parent="1">
          <mxGeometry x="60" y="130" width="20" height="20" as="geometry" />
        </mxCell>
        <mxCell id="s8Bi90bk0YpQpDEgGWr6-36" value="" style="endArrow=classic;html=1;rounded=0;" edge="1" parent="1">
          <mxGeometry width="50" height="50" relative="1" as="geometry">
            <mxPoint x="200" y="132.3" as="sourcePoint" />
            <mxPoint x="230" y="132.3" as="targetPoint" />
          </mxGeometry>
        </mxCell>
        <mxCell id="s8Bi90bk0YpQpDEgGWr6-37" value="Compressing chunk" style="text;html=1;align=center;verticalAlign=middle;whiteSpace=wrap;rounded=0;" vertex="1" parent="1">
          <mxGeometry x="685" y="290" width="60" height="30" as="geometry" />
        </mxCell>
        <mxCell id="s8Bi90bk0YpQpDEgGWr6-38" value="Writting raw bytes" style="text;html=1;align=center;verticalAlign=middle;whiteSpace=wrap;rounded=0;" vertex="1" parent="1">
          <mxGeometry x="110" y="170" width="60" height="30" as="geometry" />
        </mxCell>
      </root>
    </mxGraphModel>
  </diagram>
  <diagram id="rkt8MyowtOBTclUXkvrm" name="done">
    <mxGraphModel dx="1025" dy="662" grid="1" gridSize="10" guides="1" tooltips="1" connect="1" arrows="1" fold="1" page="1" pageScale="1" pageWidth="850" pageHeight="1100" math="0" shadow="0">
      <root>
        <mxCell id="0" />
        <mxCell id="1" parent="0" />
        <mxCell id="S0dE3D3fZKhEVki-bo8A-1" value="" style="verticalLabelPosition=bottom;verticalAlign=top;html=1;shape=mxgraph.basic.partConcEllipse;startAngle=0.9057122582784672;endAngle=0.1;arcWidth=0.5;fillStyle=cross-hatch;" vertex="1" parent="1">
          <mxGeometry x="223" y="40" width="390" height="390" as="geometry" />
        </mxCell>
        <mxCell id="S0dE3D3fZKhEVki-bo8A-2" value="" style="verticalLabelPosition=bottom;verticalAlign=top;html=1;shape=mxgraph.basic.partConcEllipse;startAngle=0.1124311986865717;endAngle=0.25;arcWidth=0.5;fillStyle=hatch;fillColor=#000000;" vertex="1" parent="1">
          <mxGeometry x="223" y="40" width="390" height="390" as="geometry" />
        </mxCell>
        <mxCell id="S0dE3D3fZKhEVki-bo8A-3" value="" style="verticalLabelPosition=bottom;verticalAlign=top;html=1;shape=mxgraph.basic.partConcEllipse;startAngle=0.7536580900160924;endAngle=0.8951859844605881;arcWidth=0.5;fillStyle=cross-hatch;fillColor=#000000;" vertex="1" parent="1">
          <mxGeometry x="223" y="40" width="390" height="390" as="geometry" />
        </mxCell>
        <mxCell id="S0dE3D3fZKhEVki-bo8A-4" value="" style="verticalLabelPosition=bottom;verticalAlign=top;html=1;shape=mxgraph.basic.partConcEllipse;startAngle=0.9057122582784672;endAngle=0.1;arcWidth=0.5;direction=west;fillStyle=hatch;fillColor=#000000;" vertex="1" parent="1">
          <mxGeometry x="223" y="50" width="390" height="390" as="geometry" />
        </mxCell>
        <mxCell id="S0dE3D3fZKhEVki-bo8A-5" value="" style="verticalLabelPosition=bottom;verticalAlign=top;html=1;shape=mxgraph.basic.partConcEllipse;startAngle=0.1124311986865717;endAngle=0.25;arcWidth=0.5;direction=west;fillColor=#000000;fillStyle=cross-hatch;" vertex="1" parent="1">
          <mxGeometry x="223" y="50" width="390" height="390" as="geometry" />
        </mxCell>
        <mxCell id="S0dE3D3fZKhEVki-bo8A-6" value="" style="verticalLabelPosition=bottom;verticalAlign=top;html=1;shape=mxgraph.basic.partConcEllipse;startAngle=0.7536580900160924;endAngle=0.8951859844605881;arcWidth=0.5;direction=west;fillStyle=hatch;fillColor=#000000;" vertex="1" parent="1">
          <mxGeometry x="223" y="50" width="390" height="390" as="geometry" />
        </mxCell>
        <mxCell id="S0dE3D3fZKhEVki-bo8A-7" value="&lt;font face=&quot;Courier New&quot;&gt;COMP&lt;/font&gt;" style="rounded=0;whiteSpace=wrap;html=1;strokeColor=none;" vertex="1" parent="1">
          <mxGeometry x="393" y="370" width="55" height="30" as="geometry" />
        </mxCell>
        <mxCell id="S0dE3D3fZKhEVki-bo8A-8" value="&lt;font face=&quot;Courier New&quot;&gt;RAW&lt;/font&gt;" style="rounded=0;whiteSpace=wrap;html=1;strokeColor=none;" vertex="1" parent="1">
          <mxGeometry x="263" y="290" width="50" height="30" as="geometry" />
        </mxCell>
        <mxCell id="S0dE3D3fZKhEVki-bo8A-9" value="&lt;font face=&quot;Courier New&quot;&gt;COMP&lt;/font&gt;" style="rounded=0;whiteSpace=wrap;html=1;strokeColor=none;" vertex="1" parent="1">
          <mxGeometry x="523" y="300" width="55" height="30" as="geometry" />
        </mxCell>
        <mxCell id="S0dE3D3fZKhEVki-bo8A-10" value="&lt;font face=&quot;Courier New&quot;&gt;COMP&lt;/font&gt;" style="rounded=0;whiteSpace=wrap;html=1;strokeColor=none;" vertex="1" parent="1">
          <mxGeometry x="523" y="160" width="55" height="30" as="geometry" />
        </mxCell>
        <mxCell id="S0dE3D3fZKhEVki-bo8A-11" value="&lt;font face=&quot;Courier New&quot;&gt;EMPTY&lt;/font&gt;" style="rounded=0;whiteSpace=wrap;html=1;strokeColor=none;" vertex="1" parent="1">
          <mxGeometry x="390.5" y="80" width="55" height="30" as="geometry" />
        </mxCell>
        <mxCell id="S0dE3D3fZKhEVki-bo8A-12" value="&lt;div&gt;&lt;font face=&quot;Courier New&quot;&gt;DONE LIB&lt;br&gt;&lt;/font&gt;&lt;/div&gt;" style="rounded=0;whiteSpace=wrap;html=1;strokeColor=none;" vertex="1" parent="1">
          <mxGeometry x="258" y="150" width="60" height="30" as="geometry" />
        </mxCell>
        <mxCell id="S0dE3D3fZKhEVki-bo8A-13" value="" style="html=1;shadow=0;dashed=0;align=center;verticalAlign=middle;shape=mxgraph.arrows2.uTurnArrow;dy=0.67;arrowHead=7.67;dx2=7.14;fillColor=#000000;rotation=90;" vertex="1" parent="1">
          <mxGeometry x="406.13" y="190" width="28.75" height="65" as="geometry" />
        </mxCell>
        <mxCell id="S0dE3D3fZKhEVki-bo8A-14" value="&lt;div align=&quot;center&quot;&gt;&lt;font face=&quot;Courier New&quot;&gt;Service&lt;/font&gt;&lt;/div&gt;" style="rounded=1;whiteSpace=wrap;html=1;align=center;" vertex="1" parent="1">
          <mxGeometry x="103" y="350" width="90" height="25" as="geometry" />
        </mxCell>
        <mxCell id="S0dE3D3fZKhEVki-bo8A-15" value="" style="shape=image;imageAspect=0;aspect=fixed;verticalLabelPosition=bottom;verticalAlign=top;image=data:image/png,iVBORw0KGgoAAAANSUhEUgAAAeAAAAHgCAYAAAB91L6VAAAACXBIWXMAAAsTAAALEwEAmpwYAAAZnElEQVR4nO3de7CtdV3H8Q8Xb6QmJjrNNKVcQm1SUCkznSwTdRozxMtghpKK0lSi4KjFTSwzHTUcqqkZk1FEZ8wLk2KmTqWAI5cwQCUVJEnlIiLgDcRzmkef3RxP5xzOOey9v7+1vq/XzPefRk2/z3v/Hvbaa60nAQAAAAAAAAAAAAAAAAAAAAAAAAAAAAAAAAAAAAAAAAAAAAAAAAAAAAAAAAAAAAAAAAAAAAAAAAAAAAAAYBncNcmDkjwpyYuSnJDklCSnJ/lQkvOTXD7PN+b5VpKNSW5K8pkk/5LkVUkekWSX6v9BADCSvZI8LslLk7w1yblJvjrfSFdzvpbkk0n+KclpSd6Q5E+SPDfJryd5QJLdq5cBAGvh7vPN9oT5t9i1uNHekfl+kiuT/GuSv07ywiSPTnIvOQCwaDfcp8wvHV8w3+A2Luj8d5L3Jjkmya/OL5EDwDAePN+kPprklgFunGs1t8wvl//l/Fv9XaoXD0A/ByR5zfyGqI1N59tJzkpydJL9qy8IAMv9m+7JSS4b4OY34lyS5KQkv1h9oQBYfHskeU6Scwa4wS3SXDb/w8q+1RcQgMXykCSnJrlhgJvZIs+GJP8+f/RpeoMaAPw/0xdXPCHJRwa4cS3j3Jzk771EDcCKOyc5PMnFA9ykuszZSZ6eZDcZAvS88R6V5KoBbkhd54tJ/sBHmgB62HX+7esLA9yAzI92cE2Sl89vegNgCf/G+8wkn3fjG/bGf3WSY92IAZbHw5J8fIAbjNm+HfxPkiP9jRhgcf3U/L3Mt7n5LeTN/7PznwsAWKC/8/5RkhsHuImYO76Df06yX3VUAGzbfvPj9dz4lmsHtyZ5racyAYz5saITl/yJROZH716fvjAFgAFMDwDwRRq9btCnJblXdXgAnT9adOT8aLzqG4JZ/x18LcmTqyME6Oan5zfnuPH13sH0wIe/S3KP6iABOjg4ybUDHP5mnB38V5IDqsMEWOaXnKevLPS53vob3ojzvSQvro4UYNlMLzH+4wCHvBl/B+9Nsmd1sADLYP8klw1wsJvF2cFlczcA7KRHJblugAPdLN4ObvIuaYCdM30P8HcHOMjN4u7gtvl9AwBsp+Pmj5hUH+BmOXbwliS7++kD2PaDFP52gAPbLN8OPuBZwwBbtluStw5wUJvl3cF5SfbyAwjw4w9TePcAB7Tp8Q7pn/PDB5DcdX55sPpgHmFuTvKfSc5MckqSo5M8a34C0MPnG8ee8+yxSTx7bPJ/n/41j5j/PdO/9yXzf9aZ83/2zQP876yeK5Ps7YcP6P6bb9eb79VJ3pfk+CS/M98Qpm/7WmvT/499khyS5IQk709yzQD7WO/58rwHgJZ/8+30svNX5nfjHp5k34xnv/m/2/R3+K8OsK/1mKvm/90Ard7t/LYBDuC1nOljVJ+cP4f60HX67Xa17DI/3OAVST615B8Jm/7ByMvRQBvL/FGj85Mcu2Rv9Ll/kpcluXCA/a7FfHF+xCXAUjt+gAN3teeb83NpD8zye1CS1yb5+gB7X825JMm9q5cLsFZ+d8lezrw4yRHzO7m7uVuS359vXBuXZM72ZR3AMvq1+ZmtG5dgPpzk4AX7u+5amXbwxCQfGeC6rMacOb9HAWApTI+Gu35JbryPrF7m4E+v+ugA1+mOzuurFwmwGu65BM/z/USSx8hhh17tOGeA63ZH5nmuN7DoL0++e8E/Jzp9NtZLzTvnyUm+NMB13Jm5NclvrPLPA8C6eeUAB+nOzHfnRyJ2fHPVapu+JvOkBf37//RO75+tXiDAjnrc/ED0jQv4cvMDXe5VN33718cGuL47OtMXkdxFD8CimL7U4NoBDs8dmZuSHOnl5jU1vZR/1AI+EOLNa7sWgNU7ZD84wKG5o7/l+E7g9f1mrbMHuO47Ms9ex/0A7JSjBzgst3dum/8+ubtrve7ulOTVC/RniukVEt8ZDQzrF5J8Z4DDcnvfYPP46oWRxy7Q4xDPmZ/iBTDcs30vHuCQ3J45z7tbhzI9uOKCAbrYnpne2Q8wlJMGOBy3Z073rtYhTR/5eucAfdze3NLkoRvAgnjwfDBtHHymvzn6Uo1xTdfmNQN0cntz6fyKD0Cp6Yvrzx3gUNzWfH9+ahGL4fkL8Oas6bGaAKX+eIDDcFsz/WZ+qEYW8mssR/72rOm/my9sAcrcb34Y/ciH5G/rY2E9afB31f+bP2kAVd4ywCG4tZkObl+mvxxfaTryTXh6WAfAupreCfqDAQ7Arb3s/Ft6WBoHD/xy9DXzIzcB1s3HBzj8tjTTm3eeoYOlc8j8ZrqNA86fVy8H6OOZAxx6Wxvvdl5eLxigry3N9BK5xxYCa276Kr7LBjj0tjQnu/5L7y8G6GxL847qxQDL74gBDrutfcOVL9lYftM1ftcAvW0+G5IcVL0cYLmfYHP5AIfd5vMfSe5WvRzW9Wsrzx+gu83nAxoA1spRAxxym8/1SR7gkrcz/c31ugH623x+uXoxwPKZvvv2qgEOuM3f8Tx9TpSenjDgR+HOql4KsHyeO8DhtvlMT2Citz8boMPNx2/BwKq+8eWSAQ62TeeTSXZ3jdub3pfwqQF63HTObH9VgFX9Tt6NA823kuzn+jLbJ8lNA3S56TuiPagBWBUfGeBQ23SOdF3ZzIsG6HLTOdUVAu6ohwxwmG06nkDD1p5L/YkB+tz0VZo9XSrgjjh1gMNsZb6b5OddTrbigYM9tOEVrhSws/ZIcsMAB9nKHOdScjtOGqDTlfnS/Js5wEJ/9OjL8z8QwLZM34h25QC9rozPqQM75ZwBDrCVebpryHY6bIBeV+YMVw3YUQ8e4PBamenNNR60wPaaWjl3gG5X3rdwb5cO2BEnD3B4rcxjXDp20GMH6HZl/tDVA3bE5wY4uKb5sMvGTvrYAP1unH8bB9guBw5waK3MI10zdtKjBuh35Zuxpqc3Adyu1wxwaE3jt1+W5bfgo11KYHt8cYADa5qDXS6W5HvMp08UACzEu58v9s5nVukd0ZcO8jL0z7iiwLYcM8BhtXH+EhBYDc8boOdpXuhyAtvy0QEOqunrL33rFav57VgjfKXqe1xSYGt+YpAvs3+zS8Qq+5sBur4xyZ1cWWBLnjLAITXNAS4PS/pYzUe7ssCWnDLAAXW+S8MauWiAvl/t6gJbcuEAB9SxLg1r5JUD9H22qwts7u5Jvj/ARzXu79KwRvaeG6tsfHqPxV1cYWBTvznAbwe+M5e1dv4Anf+Kywxs6oQBDqaXuySssT8doPPps/YA/+dDAxxMD3U9WGMPH6BznwcGfsxXiw+lr/jqSdbBrkmuLm79KlcaWLHXAL8V/IPLwTp52wC97+lqA6O8Aev3XArWyRED9P4YVxsY5QEM+7gUrJP9B+j9KFcbmJxWfBhd4zKwzo8ovLa4+em7qQF++PnbysPofa4B6+zM4uY/7ooDk68VH0bHuwyss5OKm/dOaOCHz0qt/nq+6SlMsJ4OLW7+B76SEnhQ8UE0zQNcBtbZfgN0v6+rDr09qfgQutkXcFBgtyTfKW5/+vgf0NiLig+hT1cvgLYuLW7/+dULAGqdWHwIvV8AFPlAcfvefAjNvbn4EPqr6gXQ1qnaByq9o/gQeonLT9NvgHu7Kw+9fbj4EDqsegG09ezi9s+qXgBQ68LiQ+jxAqDIE4vb/5QrD719ofgQmh6QDhUOKm7/8y479Pbl4kPo/tULoK29i9uffvaAxq4pPoT2ql4Abd2vuP2rqxcA1Ppm8SH0kwKgyJ7F7d/gykNv1V/HNz0MAirsUdz+t1126O224kNo+k5eqLBbcfvTzx7Q2MbiAf0DLbkB05n+gTIOIDrTP1DGAURn+gfKOIDoTP9AGQcQnekfKOMAojP9A2UcQHSmf6CMA4jO9A+UcQDRmf6BMg4gOtM/UMYBRGf6B8o4gOhM/0AZBxCd6R8o4wCiM/0DZRxAdKZ/oIwDiM70D5RxANGZ/oEyDiA60z9QxgFEZ/oHyjiA6Ez/QBkHEJ3pHyjjAKIz/QNlHEB0pn+gjAOIzvQPlHEA0Zn+gTIOIDrTP1DGAURn+gfKOIDoTP9AGQcQnekfKOMAojP9A2UcQHSmf1hi903ytCQnJnlnkguTXJHkG0luHeAAMHaggb4N3DqfRVfMZ9MZSU5Icuh8dsHCOSjJG5NcmmTDAD9kxg40oIEdbWA6uy6Zz7JHVB+qsC33TPKyJJ/1g+6w14AGlrCB6Ww7Nsk93AoYxb2TnDy/jFP9A2LsQAMaWOsGprPuVUn2rD586WuXJIcnudYPvENfAxpoeiN+cZJdqw9jetkvybkD/AAYO9CABqobOCfJvtWHMj08NckNfujLf+iNHWhgnAZuSnJY9eHM8ppeZjllgNCNHWhAA6M2ML1j2kvSrKo7z5/hrY7b2IEGNDB6A+9Jclf3IFbr5vuhAaI2dqABDSxKA2fNZyfstOmllHcNELOxAw1oYNEamF419HI0O83ffOt/iI0daGBxG3iD+w874xkDxGvsQAMaWPQGnuUWxI6YPtN24wDhGjvQgAYWvYGbk+zvFsT2mP5m4Us26n9ojR1oYHkaOHv+9kDYphcMEKuxAw1oYNkaOMK9h9t7sMLXBwjV2IEGNLBsDUzfm+8BDmzVyQNEauxAAxpY1gZOdP9ha8/z9UjB+h9QYwcaWN4Grvc8YbbkZQPEaexAAxpY9gaOcQtic58bIExjBxrQwLI38Bm3Hzb1SwNEaexAAxro0sCBbkGseNMAQRo70IAGujTwercfVlw6QJDGDjSggS4NXOT2w+S+STYMEKSxAw1ooEsDG5Ls5RbE0waI0diBBjTQrYGnuv1w0gAhGjvQgAa6NXC82w/vHCBEYwca0EC3Bk53++GCAUI0dqABDXRr4Dy3H64cIERjBxrQQLcGrnD74foBQjR2oAENdGvgOrcfbhkgRGMHGtBAtwa+5/ZDdYTGDjSgga4N0Fx1gMYONKCBrg3QXHWAxg40oIGuDdBcdYDGDjSgga4N0Fx1gMYONKCBrg3QXHWAxg40oIGuDdBcdYDGDjSgga4N0Fx1gMYONKCBrg3QXHWAxg40oIGuDdBcdYDGDjSgga4N0Fx1gMYONKCBrg3QXHWAxg40oIGuDdBcdYDGDjSgga4N0Fx1gMYONKCBrg3QXHWAxg40oIGuDdBcdYDGDjSgga4N0Fx1gMYONKCBrg3QXHWAxg40oIGuDdBcdYDGDjSgga4N0Fx1gMYONKCBrg3QXHWAxg40oIGuDdBcdYDGDjSgga4N0Fx1gMYONKCBrg3QXHWAxg40oIGuDdBcdYDGDjSgga4N0Fx1gMYONKCBrg3QXHWAxg40oIGuDdBcdYDGDjSgga4N0Fx1gMYONKCBrg3QXHWAxg40oIGuDdBcdYDGDjSgga4N0Fx1gMYONKCBrg3QXHWAxg40oIGuDdBcdYDGDjSgga4N0Fx1gMYONKCBrg3QXHWAxg40oIGuDdBcdYDGDjSgga4N0Fx1gMYONKCBrg3QXHWAxg40oIGuDdBcdYDGDjSgga4N0Fx1gMYONKCBrg3QXHWAxg40oIGuDdBcdYDGDjSgga4N0Fx1gMYONKCBrg3QXHWAxg40oIGuDdBcdYDGDjSgga4N0Fx1gMYONKCBrg3QXHWAxg40oIGuDdBcdYDGDjSgga4N0Fx1gMYONKCBrg3QXHWAxg40oIGuDdBcdYDGDjSgga4N0Fx1gMYONKCBrg3QXHWAxg40oIGuDdBcdYDGDjSgga4N0Fx1gMYONKCBrg3QXHWAxg40oIGuDdBcdYDGDjSgga4N0Fx1gMYONKCBrg3QXHWAxg40oIGuDdBcdYDGDjSgga4N0Fx1gMYONKCBrg3QXHWAxg40oIGuDdBcdYDGDjSgga4N0Fx1gMYONKCBrg3QXHWAxg40oIGuDdBcdYDGDjSgga4N0Fx1gMYONKCBrg3QXHWAxg40oIGuDdBcdYDGDjSgga4N0Fx1gMYONKCBrg3QXHWAxg40oIGuDdBcdYDGDjSgga4N0Fx1gMYONKCBrg3QXHWAxg40oIGuDdBcdYDGDjSgga4N0Fx1gMYONKCBrg3QXHWAxg40oIGuDdBcdYDGDjSgga4N0Fx1gMYONKCBrg3QXHWAxg40oIGuDdBcdYDGDjSgga4N0Fx1gMYONKCBrg3QXHWAxg40oIGuDdBcdYDGDjSgga4N0Fx1gMYONKCBrg3QXHWAxg40oIGuDdBcdYDGDjSgga4N0Fx1gMYONKCBrg3QXHWAxg40oIGuDdBcdYDGDjSgga4N0Fx1gMYONKCBrg3QXHWAxg40oIGuDdBcdYDGDjSgga4N0Fx1gMYONKCBrg3QXHWAxg40oIGuDdBcdYDGDjSgga4N0Fx1gMYONKCBrg3QXHWAxg40oIGuDdBcdYDGDjSgga4N0Fx1gMYONKCBrg3QXHWAxg40oIGuDdBcdYDGDjSgga4N0Fx1gMYONKCBrg3QXHWAxg40oIGuDdBcdYDGDjSgga4N0Fx1gMYONKCBrg3QXHWAxg40oIGuDdBcdYDGDjSgga4N0Fx1gMYONKCBrg3QXHWAxg40oIGuDdBcdYDGDjSgga4N0Fx1gMYONKCBrg3QXHWAxg40oIGuDdBcdYDGDjSgga4N0Fx1gMYONKCBrg3QXHWAxg40oIGuDdBcdYDGDjSgga4N0Fx1gMYONKCBrg3QXHWAxg40oIGuDdBcdYDGDjSgga4N0Fx1gMYONKCBrg3QXHWAxg40oIGuDdBcdYDGDjSgga4N0Fx1gMYONKCBrg3QXHWAxg40oIGuDdBcdYDGDjSgga4N0Fx1gMYONKCBrg3QXHWAxg40oIGuDdBcdYDGDjSgga4N0Fx1gMYONKCBrg3QXHWAxg40oIGuDdBcdYDGDjSgga4N0Fx1gMYONKCBrg3QXHWAxg40oIGuDdBcdYDGDjSgga4N0Fx1gMYONKCBrg3QXHWAxg40oIGuDdBcdYDGDjSgga4N0Fx1gMYONKCBrg3QXHWAxg40oIGuDdBcdYDGDjSgga4N0Fx1gMYONKCBrg3QXHWAxg40oIGuDdBcdYDGDjSgga4N0Fx1gMYONKCBrg3QXHWAxg40oIGuDdBcdYDGDjSgga4N0Fx1gMYONKCBrg3QXHWAxg40oIGuDdBcdYDGDjSgga4N0Fx1gMYONKCBrg3QXHWAxg40oIGuDdBcdYDGDjSgga4N0Fx1gMYONKCBrg3QXHWAxg40oIGuDdBcdYDGDjSgga4N0Fx1gMYONKCBrg3QXHWAxg40oIGuDdBcdYDGDjSgga4N0Fx1gMYONKCBrg3QXHWAxg40oIGuDdBcdYDGDjSgga4N0Fx1gMYONKCBrg3QXHWAxg40oIGuDdBcdYDGDjSgga4N0Fx1gMYONKCBrg3QXHWAxg40oIGuDdBcdYDGDjSgga4N0Fx1gMYONKCBrg3QXHWAxg40oIGuDdBcdYDGDjSgga4N0Fx1gMYONKCBrg3QXHWAxg40oIGuDdBcdYDGDjSgga4N0Fx1gMYONKCBrg3QXHWAxg40oIGuDdBcdYDGDjSgga4N0Fx1gMYONKCBrg3QXHWAxg40oIGuDdBcdYDGDjSgga4N0Fx1gMYONKCBrg3QXHWAxg40oIGuDdBcdYDGDjSgga4N0Fx1gMYONKCBrg3QXHWAxg40oIGuDdBcdYDGDjSgga4N0Fx1gMYONKCBrg3QXHWAxg40oIGuDdBcdYDGDjSgga4N0Fx1gMYONKCBrg3QXHWAxg40oIGuDdDcLQNEaOxAAxro1sD3qg9/6l0/QIjGDjSggW4NXFd9+FPvygFCNHagAQ10a+CK6sOfehcMEKKxAw1ooFsD51Uf/tQ7Y4AQjR1oQAPdGnh79eFPvRMHCNHYgQY00K2B46oPf+odOkCIxg40oIFuDRxSffhT775JNgwQo7EDDWigSwMbktyn+vBnDJcMEKSxAw1ooEsDF1Uf+ozjjQMEaexAAxro0sDrqg99xnHQAEEaO9CABro0cED1oc9YvAxd/0Np7EADy9/AZ6oPe8Zz7ABhGjvQgAaWvYGXVh/2jOeeSb4xQJzGDjSggWVtYPru/XtUH/aM6VUDBGrsQAMaWNYGTqg+5BnXnvMTOqojNXagAQ0sWwPXJLlX9SHP2J43QKjGDjSggWVr4DnVhzvj2yXJOQPEauxAAxpYlgY+MZ+tcLv2TfLNAaI1dqABDSx6A9NZurf7Djvi6QOEa+xAAxpY9AYOc+thZ/iKyvofXmMHGljcBl7v1sPOmv5mcdoAERs70IAGFq2BM5Ls6vbDHXHnJGcNELOxAw1oYFEa+GCSO7n1sFo34TMGiNrYgQY0MHoDp7v5stqml1LeMEDcxg40oIGR/+br40asmUN8Z3T5D7mxAw2M1cCNSZ7pvsN62CfJ2QNEb+xAAxoY4Us2fM6XdTW9zHL4/P2m1T8Axg40oIGKJxu92DudqX6Aw4lzjA5BO9CABpa9gevnpxp5sALDmJ5xeUySSwf4ATF2oAENrHYDlyR5aZK7Vx+2sC0Pm98N+OkkGxwEbgYa0MACNvCDJBcleV2SAx35LKL7JHlqkuOSvCPJ+Ukun1/GuWWAHzJjBxro28At81l0+Xw2nT6fVYfMZxcAAAAAAAAAAAAAAAAAAAAAAAAAAAAAAAAAAAAAAAAAAAAAAAAAAAAAAAAAAAAAAAAAAAAAAAAAAAAAAAAAAAAAAAAAAAAAAAAAAAAAAAAAAAAAAAAAAAAAAGTR/S9h7ld+vqadlQAAAABJRU5ErkJggg==;" vertex="1" parent="1">
          <mxGeometry x="73" y="352.5" width="20" height="20" as="geometry" />
        </mxCell>
        <mxCell id="S0dE3D3fZKhEVki-bo8A-16" value="" style="endArrow=classic;html=1;rounded=0;" edge="1" parent="1">
          <mxGeometry width="50" height="50" relative="1" as="geometry">
            <mxPoint x="208" y="362.38" as="sourcePoint" />
            <mxPoint x="238" y="362.38" as="targetPoint" />
          </mxGeometry>
        </mxCell>
        <mxCell id="S0dE3D3fZKhEVki-bo8A-17" value="&lt;div&gt;Library&amp;nbsp;&lt;/div&gt;&lt;div&gt;(done writting)&lt;/div&gt;" style="rounded=1;whiteSpace=wrap;html=1;align=center;" vertex="1" parent="1">
          <mxGeometry x="658" y="305" width="90" height="40" as="geometry" />
        </mxCell>
        <mxCell id="S0dE3D3fZKhEVki-bo8A-18" value="" style="shape=image;imageAspect=0;aspect=fixed;verticalLabelPosition=bottom;verticalAlign=top;image=data:image/png,iVBORw0KGgoAAAANSUhEUgAAAeAAAAHgCAYAAAB91L6VAAAACXBIWXMAAAsTAAALEwEAmpwYAAAZnElEQVR4nO3de7CtdV3H8Q8Xb6QmJjrNNKVcQm1SUCkznSwTdRozxMtghpKK0lSi4KjFTSwzHTUcqqkZk1FEZ8wLk2KmTqWAI5cwQCUVJEnlIiLgDcRzmkef3RxP5xzOOey9v7+1vq/XzPefRk2/z3v/Hvbaa60nAQAAAAAAAAAAAAAAAAAAAAAAAAAAAAAAAAAAAAAAAAAAAAAAAAAAAAAAAAAAAAAAAAAAAAAAAAAAAAAAYBncNcmDkjwpyYuSnJDklCSnJ/lQkvOTXD7PN+b5VpKNSW5K8pkk/5LkVUkekWSX6v9BADCSvZI8LslLk7w1yblJvjrfSFdzvpbkk0n+KclpSd6Q5E+SPDfJryd5QJLdq5cBAGvh7vPN9oT5t9i1uNHekfl+kiuT/GuSv07ywiSPTnIvOQCwaDfcp8wvHV8w3+A2Luj8d5L3Jjkmya/OL5EDwDAePN+kPprklgFunGs1t8wvl//l/Fv9XaoXD0A/ByR5zfyGqI1N59tJzkpydJL9qy8IAMv9m+7JSS4b4OY34lyS5KQkv1h9oQBYfHskeU6Scwa4wS3SXDb/w8q+1RcQgMXykCSnJrlhgJvZIs+GJP8+f/RpeoMaAPw/0xdXPCHJRwa4cS3j3Jzk771EDcCKOyc5PMnFA9ykuszZSZ6eZDcZAvS88R6V5KoBbkhd54tJ/sBHmgB62HX+7esLA9yAzI92cE2Sl89vegNgCf/G+8wkn3fjG/bGf3WSY92IAZbHw5J8fIAbjNm+HfxPkiP9jRhgcf3U/L3Mt7n5LeTN/7PznwsAWKC/8/5RkhsHuImYO76Df06yX3VUAGzbfvPj9dz4lmsHtyZ5racyAYz5saITl/yJROZH716fvjAFgAFMDwDwRRq9btCnJblXdXgAnT9adOT8aLzqG4JZ/x18LcmTqyME6Oan5zfnuPH13sH0wIe/S3KP6iABOjg4ybUDHP5mnB38V5IDqsMEWOaXnKevLPS53vob3ojzvSQvro4UYNlMLzH+4wCHvBl/B+9Nsmd1sADLYP8klw1wsJvF2cFlczcA7KRHJblugAPdLN4ObvIuaYCdM30P8HcHOMjN4u7gtvl9AwBsp+Pmj5hUH+BmOXbwliS7++kD2PaDFP52gAPbLN8OPuBZwwBbtluStw5wUJvl3cF5SfbyAwjw4w9TePcAB7Tp8Q7pn/PDB5DcdX55sPpgHmFuTvKfSc5MckqSo5M8a34C0MPnG8ee8+yxSTx7bPJ/n/41j5j/PdO/9yXzf9aZ83/2zQP876yeK5Ps7YcP6P6bb9eb79VJ3pfk+CS/M98Qpm/7WmvT/499khyS5IQk709yzQD7WO/58rwHgJZ/8+30svNX5nfjHp5k34xnv/m/2/R3+K8OsK/1mKvm/90Ard7t/LYBDuC1nOljVJ+cP4f60HX67Xa17DI/3OAVST615B8Jm/7ByMvRQBvL/FGj85Mcu2Rv9Ll/kpcluXCA/a7FfHF+xCXAUjt+gAN3teeb83NpD8zye1CS1yb5+gB7X825JMm9q5cLsFZ+d8lezrw4yRHzO7m7uVuS359vXBuXZM72ZR3AMvq1+ZmtG5dgPpzk4AX7u+5amXbwxCQfGeC6rMacOb9HAWApTI+Gu35JbryPrF7m4E+v+ugA1+mOzuurFwmwGu65BM/z/USSx8hhh17tOGeA63ZH5nmuN7DoL0++e8E/Jzp9NtZLzTvnyUm+NMB13Jm5NclvrPLPA8C6eeUAB+nOzHfnRyJ2fHPVapu+JvOkBf37//RO75+tXiDAjnrc/ED0jQv4cvMDXe5VN33718cGuL47OtMXkdxFD8CimL7U4NoBDs8dmZuSHOnl5jU1vZR/1AI+EOLNa7sWgNU7ZD84wKG5o7/l+E7g9f1mrbMHuO47Ms9ex/0A7JSjBzgst3dum/8+ubtrve7ulOTVC/RniukVEt8ZDQzrF5J8Z4DDcnvfYPP46oWRxy7Q4xDPmZ/iBTDcs30vHuCQ3J45z7tbhzI9uOKCAbrYnpne2Q8wlJMGOBy3Z073rtYhTR/5eucAfdze3NLkoRvAgnjwfDBtHHymvzn6Uo1xTdfmNQN0cntz6fyKD0Cp6Yvrzx3gUNzWfH9+ahGL4fkL8Oas6bGaAKX+eIDDcFsz/WZ+qEYW8mssR/72rOm/my9sAcrcb34Y/ciH5G/rY2E9afB31f+bP2kAVd4ywCG4tZkObl+mvxxfaTryTXh6WAfAupreCfqDAQ7Arb3s/Ft6WBoHD/xy9DXzIzcB1s3HBzj8tjTTm3eeoYOlc8j8ZrqNA86fVy8H6OOZAxx6Wxvvdl5eLxigry3N9BK5xxYCa276Kr7LBjj0tjQnu/5L7y8G6GxL847qxQDL74gBDrutfcOVL9lYftM1ftcAvW0+G5IcVL0cYLmfYHP5AIfd5vMfSe5WvRzW9Wsrzx+gu83nAxoA1spRAxxym8/1SR7gkrcz/c31ugH623x+uXoxwPKZvvv2qgEOuM3f8Tx9TpSenjDgR+HOql4KsHyeO8DhtvlMT2Citz8boMPNx2/BwKq+8eWSAQ62TeeTSXZ3jdub3pfwqQF63HTObH9VgFX9Tt6NA823kuzn+jLbJ8lNA3S56TuiPagBWBUfGeBQ23SOdF3ZzIsG6HLTOdUVAu6ohwxwmG06nkDD1p5L/YkB+tz0VZo9XSrgjjh1gMNsZb6b5OddTrbigYM9tOEVrhSws/ZIcsMAB9nKHOdScjtOGqDTlfnS/Js5wEJ/9OjL8z8QwLZM34h25QC9rozPqQM75ZwBDrCVebpryHY6bIBeV+YMVw3YUQ8e4PBamenNNR60wPaaWjl3gG5X3rdwb5cO2BEnD3B4rcxjXDp20GMH6HZl/tDVA3bE5wY4uKb5sMvGTvrYAP1unH8bB9guBw5waK3MI10zdtKjBuh35Zuxpqc3Adyu1wxwaE3jt1+W5bfgo11KYHt8cYADa5qDXS6W5HvMp08UACzEu58v9s5nVukd0ZcO8jL0z7iiwLYcM8BhtXH+EhBYDc8boOdpXuhyAtvy0QEOqunrL33rFav57VgjfKXqe1xSYGt+YpAvs3+zS8Qq+5sBur4xyZ1cWWBLnjLAITXNAS4PS/pYzUe7ssCWnDLAAXW+S8MauWiAvl/t6gJbcuEAB9SxLg1r5JUD9H22qwts7u5Jvj/ARzXu79KwRvaeG6tsfHqPxV1cYWBTvznAbwe+M5e1dv4Anf+Kywxs6oQBDqaXuySssT8doPPps/YA/+dDAxxMD3U9WGMPH6BznwcGfsxXiw+lr/jqSdbBrkmuLm79KlcaWLHXAL8V/IPLwTp52wC97+lqA6O8Aev3XArWyRED9P4YVxsY5QEM+7gUrJP9B+j9KFcbmJxWfBhd4zKwzo8ovLa4+em7qQF++PnbysPofa4B6+zM4uY/7ooDk68VH0bHuwyss5OKm/dOaOCHz0qt/nq+6SlMsJ4OLW7+B76SEnhQ8UE0zQNcBtbZfgN0v6+rDr09qfgQutkXcFBgtyTfKW5/+vgf0NiLig+hT1cvgLYuLW7/+dULAGqdWHwIvV8AFPlAcfvefAjNvbn4EPqr6gXQ1qnaByq9o/gQeonLT9NvgHu7Kw+9fbj4EDqsegG09ezi9s+qXgBQ68LiQ+jxAqDIE4vb/5QrD719ofgQmh6QDhUOKm7/8y479Pbl4kPo/tULoK29i9uffvaAxq4pPoT2ql4Abd2vuP2rqxcA1Ppm8SH0kwKgyJ7F7d/gykNv1V/HNz0MAirsUdz+t1126O224kNo+k5eqLBbcfvTzx7Q2MbiAf0DLbkB05n+gTIOIDrTP1DGAURn+gfKOIDoTP9AGQcQnekfKOMAojP9A2UcQHSmf6CMA4jO9A+UcQDRmf6BMg4gOtM/UMYBRGf6B8o4gOhM/0AZBxCd6R8o4wCiM/0DZRxAdKZ/oIwDiM70D5RxANGZ/oEyDiA60z9QxgFEZ/oHyjiA6Ez/QBkHEJ3pHyjjAKIz/QNlHEB0pn+gjAOIzvQPlHEA0Zn+gTIOIDrTP1DGAURn+gfKOIDoTP9AGQcQnekfKOMAojP9A2UcQHSmf1hi903ytCQnJnlnkguTXJHkG0luHeAAMHaggb4N3DqfRVfMZ9MZSU5Icuh8dsHCOSjJG5NcmmTDAD9kxg40oIEdbWA6uy6Zz7JHVB+qsC33TPKyJJ/1g+6w14AGlrCB6Ww7Nsk93AoYxb2TnDy/jFP9A2LsQAMaWOsGprPuVUn2rD586WuXJIcnudYPvENfAxpoeiN+cZJdqw9jetkvybkD/AAYO9CABqobOCfJvtWHMj08NckNfujLf+iNHWhgnAZuSnJY9eHM8ppeZjllgNCNHWhAA6M2ML1j2kvSrKo7z5/hrY7b2IEGNDB6A+9Jclf3IFbr5vuhAaI2dqABDSxKA2fNZyfstOmllHcNELOxAw1oYNEamF419HI0O83ffOt/iI0daGBxG3iD+w874xkDxGvsQAMaWPQGnuUWxI6YPtN24wDhGjvQgAYWvYGbk+zvFsT2mP5m4Us26n9ojR1oYHkaOHv+9kDYphcMEKuxAw1oYNkaOMK9h9t7sMLXBwjV2IEGNLBsDUzfm+8BDmzVyQNEauxAAxpY1gZOdP9ha8/z9UjB+h9QYwcaWN4Grvc8YbbkZQPEaexAAxpY9gaOcQtic58bIExjBxrQwLI38Bm3Hzb1SwNEaexAAxro0sCBbkGseNMAQRo70IAGujTwercfVlw6QJDGDjSggS4NXOT2w+S+STYMEKSxAw1ooEsDG5Ls5RbE0waI0diBBjTQrYGnuv1w0gAhGjvQgAa6NXC82w/vHCBEYwca0EC3Bk53++GCAUI0dqABDXRr4Dy3H64cIERjBxrQQLcGrnD74foBQjR2oAENdGvgOrcfbhkgRGMHGtBAtwa+5/ZDdYTGDjSgga4N0Fx1gMYONKCBrg3QXHWAxg40oIGuDdBcdYDGDjSgga4N0Fx1gMYONKCBrg3QXHWAxg40oIGuDdBcdYDGDjSgga4N0Fx1gMYONKCBrg3QXHWAxg40oIGuDdBcdYDGDjSgga4N0Fx1gMYONKCBrg3QXHWAxg40oIGuDdBcdYDGDjSgga4N0Fx1gMYONKCBrg3QXHWAxg40oIGuDdBcdYDGDjSgga4N0Fx1gMYONKCBrg3QXHWAxg40oIGuDdBcdYDGDjSgga4N0Fx1gMYONKCBrg3QXHWAxg40oIGuDdBcdYDGDjSgga4N0Fx1gMYONKCBrg3QXHWAxg40oIGuDdBcdYDGDjSgga4N0Fx1gMYONKCBrg3QXHWAxg40oIGuDdBcdYDGDjSgga4N0Fx1gMYONKCBrg3QXHWAxg40oIGuDdBcdYDGDjSgga4N0Fx1gMYONKCBrg3QXHWAxg40oIGuDdBcdYDGDjSgga4N0Fx1gMYONKCBrg3QXHWAxg40oIGuDdBcdYDGDjSgga4N0Fx1gMYONKCBrg3QXHWAxg40oIGuDdBcdYDGDjSgga4N0Fx1gMYONKCBrg3QXHWAxg40oIGuDdBcdYDGDjSgga4N0Fx1gMYONKCBrg3QXHWAxg40oIGuDdBcdYDGDjSgga4N0Fx1gMYONKCBrg3QXHWAxg40oIGuDdBcdYDGDjSgga4N0Fx1gMYONKCBrg3QXHWAxg40oIGuDdBcdYDGDjSgga4N0Fx1gMYONKCBrg3QXHWAxg40oIGuDdBcdYDGDjSgga4N0Fx1gMYONKCBrg3QXHWAxg40oIGuDdBcdYDGDjSgga4N0Fx1gMYONKCBrg3QXHWAxg40oIGuDdBcdYDGDjSgga4N0Fx1gMYONKCBrg3QXHWAxg40oIGuDdBcdYDGDjSgga4N0Fx1gMYONKCBrg3QXHWAxg40oIGuDdBcdYDGDjSgga4N0Fx1gMYONKCBrg3QXHWAxg40oIGuDdBcdYDGDjSgga4N0Fx1gMYONKCBrg3QXHWAxg40oIGuDdBcdYDGDjSgga4N0Fx1gMYONKCBrg3QXHWAxg40oIGuDdBcdYDGDjSgga4N0Fx1gMYONKCBrg3QXHWAxg40oIGuDdBcdYDGDjSgga4N0Fx1gMYONKCBrg3QXHWAxg40oIGuDdBcdYDGDjSgga4N0Fx1gMYONKCBrg3QXHWAxg40oIGuDdBcdYDGDjSgga4N0Fx1gMYONKCBrg3QXHWAxg40oIGuDdBcdYDGDjSgga4N0Fx1gMYONKCBrg3QXHWAxg40oIGuDdBcdYDGDjSgga4N0Fx1gMYONKCBrg3QXHWAxg40oIGuDdBcdYDGDjSgga4N0Fx1gMYONKCBrg3QXHWAxg40oIGuDdBcdYDGDjSgga4N0Fx1gMYONKCBrg3QXHWAxg40oIGuDdBcdYDGDjSgga4N0Fx1gMYONKCBrg3QXHWAxg40oIGuDdBcdYDGDjSgga4N0Fx1gMYONKCBrg3QXHWAxg40oIGuDdBcdYDGDjSgga4N0Fx1gMYONKCBrg3QXHWAxg40oIGuDdBcdYDGDjSgga4N0Fx1gMYONKCBrg3QXHWAxg40oIGuDdBcdYDGDjSgga4N0Fx1gMYONKCBrg3QXHWAxg40oIGuDdBcdYDGDjSgga4N0Fx1gMYONKCBrg3QXHWAxg40oIGuDdBcdYDGDjSgga4N0Fx1gMYONKCBrg3QXHWAxg40oIGuDdBcdYDGDjSgga4N0Fx1gMYONKCBrg3QXHWAxg40oIGuDdBcdYDGDjSgga4N0Fx1gMYONKCBrg3QXHWAxg40oIGuDdBcdYDGDjSgga4N0Fx1gMYONKCBrg3QXHWAxg40oIGuDdBcdYDGDjSgga4N0Fx1gMYONKCBrg3QXHWAxg40oIGuDdBcdYDGDjSgga4N0Fx1gMYONKCBrg3QXHWAxg40oIGuDdBcdYDGDjSgga4N0Fx1gMYONKCBrg3QXHWAxg40oIGuDdBcdYDGDjSgga4N0Fx1gMYONKCBrg3QXHWAxg40oIGuDdBcdYDGDjSgga4N0Fx1gMYONKCBrg3QXHWAxg40oIGuDdBcdYDGDjSgga4N0Fx1gMYONKCBrg3QXHWAxg40oIGuDdBcdYDGDjSgga4N0Fx1gMYONKCBrg3QXHWAxg40oIGuDdBcdYDGDjSgga4N0Fx1gMYONKCBrg3QXHWAxg40oIGuDdBcdYDGDjSgga4N0Fx1gMYONKCBrg3QXHWAxg40oIGuDdBcdYDGDjSgga4N0Fx1gMYONKCBrg3QXHWAxg40oIGuDdBcdYDGDjSgga4N0Fx1gMYONKCBrg3QXHWAxg40oIGuDdBcdYDGDjSgga4N0Fx1gMYONKCBrg3QXHWAxg40oIGuDdBcdYDGDjSgga4N0Fx1gMYONKCBrg3QXHWAxg40oIGuDdBcdYDGDjSgga4N0Fx1gMYONKCBrg3QXHWAxg40oIGuDdBcdYDGDjSgga4N0Fx1gMYONKCBrg3QXHWAxg40oIGuDdBcdYDGDjSgga4N0Fx1gMYONKCBrg3QXHWAxg40oIGuDdBcdYDGDjSgga4N0Fx1gMYONKCBrg3QXHWAxg40oIGuDdBcdYDGDjSgga4N0Fx1gMYONKCBrg3QXHWAxg40oIGuDdBcdYDGDjSgga4N0Fx1gMYONKCBrg3QXHWAxg40oIGuDdBcdYDGDjSgga4N0Fx1gMYONKCBrg3QXHWAxg40oIGuDdBcdYDGDjSgga4N0Fx1gMYONKCBrg3QXHWAxg40oIGuDdDcLQNEaOxAAxro1sD3qg9/6l0/QIjGDjSggW4NXFd9+FPvygFCNHagAQ10a+CK6sOfehcMEKKxAw1ooFsD51Uf/tQ7Y4AQjR1oQAPdGnh79eFPvRMHCNHYgQY00K2B46oPf+odOkCIxg40oIFuDRxSffhT775JNgwQo7EDDWigSwMbktyn+vBnDJcMEKSxAw1ooEsDF1Uf+ozjjQMEaexAAxro0sDrqg99xnHQAEEaO9CABro0cED1oc9YvAxd/0Np7EADy9/AZ6oPe8Zz7ABhGjvQgAaWvYGXVh/2jOeeSb4xQJzGDjSggWVtYPru/XtUH/aM6VUDBGrsQAMaWNYGTqg+5BnXnvMTOqojNXagAQ0sWwPXJLlX9SHP2J43QKjGDjSggWVr4DnVhzvj2yXJOQPEauxAAxpYlgY+MZ+tcLv2TfLNAaI1dqABDSx6A9NZurf7Djvi6QOEa+xAAxpY9AYOc+thZ/iKyvofXmMHGljcBl7v1sPOmv5mcdoAERs70IAGFq2BM5Ls6vbDHXHnJGcNELOxAw1oYFEa+GCSO7n1sFo34TMGiNrYgQY0MHoDp7v5stqml1LeMEDcxg40oIGR/+br40asmUN8Z3T5D7mxAw2M1cCNSZ7pvsN62CfJ2QNEb+xAAxoY4Us2fM6XdTW9zHL4/P2m1T8Axg40oIGKJxu92DudqX6Aw4lzjA5BO9CABpa9gevnpxp5sALDmJ5xeUySSwf4ATF2oAENrHYDlyR5aZK7Vx+2sC0Pm98N+OkkGxwEbgYa0MACNvCDJBcleV2SAx35LKL7JHlqkuOSvCPJ+Ukun1/GuWWAHzJjBxro28At81l0+Xw2nT6fVYfMZxcAAAAAAAAAAAAAAAAAAAAAAAAAAAAAAAAAAAAAAAAAAAAAAAAAAAAAAAAAAAAAAAAAAAAAAAAAAAAAAAAAAAAAAAAAAAAAAAAAAAAAAAAAAAAAAAAAAAAAAGTR/S9h7ld+vqadlQAAAABJRU5ErkJggg==;" vertex="1" parent="1">
          <mxGeometry x="758" y="315" width="20" height="20" as="geometry" />
        </mxCell>
        <mxCell id="S0dE3D3fZKhEVki-bo8A-19" value="" style="endArrow=classic;html=1;rounded=0;" edge="1" parent="1">
          <mxGeometry width="50" height="50" relative="1" as="geometry">
            <mxPoint x="643" y="324.84000000000003" as="sourcePoint" />
            <mxPoint x="613" y="324.84000000000003" as="targetPoint" />
          </mxGeometry>
        </mxCell>
        <mxCell id="S0dE3D3fZKhEVki-bo8A-20" value="Compressing chunk" style="text;html=1;align=center;verticalAlign=middle;whiteSpace=wrap;rounded=0;" vertex="1" parent="1">
          <mxGeometry x="118" y="385" width="60" height="30" as="geometry" />
        </mxCell>
        <mxCell id="S0dE3D3fZKhEVki-bo8A-21" value="Reading compressed bytes" style="text;html=1;align=center;verticalAlign=middle;whiteSpace=wrap;rounded=0;" vertex="1" parent="1">
          <mxGeometry x="653" y="355" width="105" height="30" as="geometry" />
        </mxCell>
        <mxCell id="Dc7YXJw_S2fjsJdjIzWw-1" value="" style="verticalLabelPosition=bottom;verticalAlign=top;html=1;shape=mxgraph.basic.partConcEllipse;startAngle=0.9057122582784672;endAngle=0.1;arcWidth=0.5;fillStyle=cross-hatch;" vertex="1" parent="1">
          <mxGeometry x="215.5" y="550" width="390" height="390" as="geometry" />
        </mxCell>
        <mxCell id="Dc7YXJw_S2fjsJdjIzWw-2" value="" style="verticalLabelPosition=bottom;verticalAlign=top;html=1;shape=mxgraph.basic.partConcEllipse;startAngle=0.1124311986865717;endAngle=0.25;arcWidth=0.5;fillStyle=hatch;fillColor=#000000;" vertex="1" parent="1">
          <mxGeometry x="215.5" y="550" width="390" height="390" as="geometry" />
        </mxCell>
        <mxCell id="Dc7YXJw_S2fjsJdjIzWw-3" value="" style="verticalLabelPosition=bottom;verticalAlign=top;html=1;shape=mxgraph.basic.partConcEllipse;startAngle=0.7536580900160924;endAngle=0.8951859844605881;arcWidth=0.5;fillStyle=cross-hatch;fillColor=#000000;" vertex="1" parent="1">
          <mxGeometry x="215.5" y="550" width="390" height="390" as="geometry" />
        </mxCell>
        <mxCell id="Dc7YXJw_S2fjsJdjIzWw-4" value="" style="verticalLabelPosition=bottom;verticalAlign=top;html=1;shape=mxgraph.basic.partConcEllipse;startAngle=0.9057122582784672;endAngle=0.1;arcWidth=0.5;direction=west;fillStyle=hatch;fillColor=#000000;" vertex="1" parent="1">
          <mxGeometry x="215.5" y="560" width="390" height="390" as="geometry" />
        </mxCell>
        <mxCell id="Dc7YXJw_S2fjsJdjIzWw-5" value="" style="verticalLabelPosition=bottom;verticalAlign=top;html=1;shape=mxgraph.basic.partConcEllipse;startAngle=0.1124311986865717;endAngle=0.25;arcWidth=0.5;direction=west;fillColor=#000000;fillStyle=hatch;" vertex="1" parent="1">
          <mxGeometry x="215.5" y="560" width="390" height="390" as="geometry" />
        </mxCell>
        <mxCell id="Dc7YXJw_S2fjsJdjIzWw-6" value="" style="verticalLabelPosition=bottom;verticalAlign=top;html=1;shape=mxgraph.basic.partConcEllipse;startAngle=0.7536580900160924;endAngle=0.8951859844605881;arcWidth=0.5;direction=west;fillStyle=hatch;fillColor=#000000;" vertex="1" parent="1">
          <mxGeometry x="215.5" y="560" width="390" height="390" as="geometry" />
        </mxCell>
        <mxCell id="Dc7YXJw_S2fjsJdjIzWw-7" value="&lt;font face=&quot;Courier New&quot;&gt;COMP&lt;/font&gt;" style="rounded=0;whiteSpace=wrap;html=1;strokeColor=none;" vertex="1" parent="1">
          <mxGeometry x="385.5" y="880" width="55" height="30" as="geometry" />
        </mxCell>
        <mxCell id="Dc7YXJw_S2fjsJdjIzWw-8" value="&lt;font face=&quot;Courier New&quot;&gt;COMP&lt;/font&gt;" style="rounded=0;whiteSpace=wrap;html=1;strokeColor=none;" vertex="1" parent="1">
          <mxGeometry x="255.5" y="800" width="50" height="30" as="geometry" />
        </mxCell>
        <mxCell id="Dc7YXJw_S2fjsJdjIzWw-9" value="&lt;font face=&quot;Courier New&quot;&gt;COMP&lt;/font&gt;" style="rounded=0;whiteSpace=wrap;html=1;strokeColor=none;" vertex="1" parent="1">
          <mxGeometry x="515.5" y="810" width="55" height="30" as="geometry" />
        </mxCell>
        <mxCell id="Dc7YXJw_S2fjsJdjIzWw-10" value="&lt;font face=&quot;Courier New&quot;&gt;COMP&lt;/font&gt;" style="rounded=0;whiteSpace=wrap;html=1;strokeColor=none;" vertex="1" parent="1">
          <mxGeometry x="515.5" y="670" width="55" height="30" as="geometry" />
        </mxCell>
        <mxCell id="Dc7YXJw_S2fjsJdjIzWw-11" value="&lt;font face=&quot;Courier New&quot;&gt;EMPTY&lt;/font&gt;" style="rounded=0;whiteSpace=wrap;html=1;strokeColor=none;" vertex="1" parent="1">
          <mxGeometry x="383" y="590" width="55" height="30" as="geometry" />
        </mxCell>
        <mxCell id="Dc7YXJw_S2fjsJdjIzWw-12" value="&lt;div&gt;&lt;font face=&quot;Courier New&quot;&gt;DONE LIB&lt;br&gt;&lt;/font&gt;&lt;/div&gt;" style="rounded=0;whiteSpace=wrap;html=1;strokeColor=none;" vertex="1" parent="1">
          <mxGeometry x="250.5" y="660" width="60" height="30" as="geometry" />
        </mxCell>
        <mxCell id="Dc7YXJw_S2fjsJdjIzWw-13" value="" style="html=1;shadow=0;dashed=0;align=center;verticalAlign=middle;shape=mxgraph.arrows2.uTurnArrow;dy=0.67;arrowHead=7.67;dx2=7.14;fillColor=#000000;rotation=90;" vertex="1" parent="1">
          <mxGeometry x="398.63" y="700" width="28.75" height="65" as="geometry" />
        </mxCell>
        <mxCell id="Dc7YXJw_S2fjsJdjIzWw-14" value="&lt;div align=&quot;center&quot;&gt;&lt;font face=&quot;Courier New&quot;&gt;Service&lt;/font&gt;&lt;/div&gt;" style="rounded=1;whiteSpace=wrap;html=1;align=center;" vertex="1" parent="1">
          <mxGeometry x="107.5" y="600" width="90" height="25" as="geometry" />
        </mxCell>
        <mxCell id="Dc7YXJw_S2fjsJdjIzWw-15" value="" style="shape=image;imageAspect=0;aspect=fixed;verticalLabelPosition=bottom;verticalAlign=top;image=data:image/png,iVBORw0KGgoAAAANSUhEUgAAAeAAAAHgCAYAAAB91L6VAAAACXBIWXMAAAsTAAALEwEAmpwYAAAZnElEQVR4nO3de7CtdV3H8Q8Xb6QmJjrNNKVcQm1SUCkznSwTdRozxMtghpKK0lSi4KjFTSwzHTUcqqkZk1FEZ8wLk2KmTqWAI5cwQCUVJEnlIiLgDcRzmkef3RxP5xzOOey9v7+1vq/XzPefRk2/z3v/Hvbaa60nAQAAAAAAAAAAAAAAAAAAAAAAAAAAAAAAAAAAAAAAAAAAAAAAAAAAAAAAAAAAAAAAAAAAAAAAAAAAAAAAYBncNcmDkjwpyYuSnJDklCSnJ/lQkvOTXD7PN+b5VpKNSW5K8pkk/5LkVUkekWSX6v9BADCSvZI8LslLk7w1yblJvjrfSFdzvpbkk0n+KclpSd6Q5E+SPDfJryd5QJLdq5cBAGvh7vPN9oT5t9i1uNHekfl+kiuT/GuSv07ywiSPTnIvOQCwaDfcp8wvHV8w3+A2Luj8d5L3Jjkmya/OL5EDwDAePN+kPprklgFunGs1t8wvl//l/Fv9XaoXD0A/ByR5zfyGqI1N59tJzkpydJL9qy8IAMv9m+7JSS4b4OY34lyS5KQkv1h9oQBYfHskeU6Scwa4wS3SXDb/w8q+1RcQgMXykCSnJrlhgJvZIs+GJP8+f/RpeoMaAPw/0xdXPCHJRwa4cS3j3Jzk771EDcCKOyc5PMnFA9ykuszZSZ6eZDcZAvS88R6V5KoBbkhd54tJ/sBHmgB62HX+7esLA9yAzI92cE2Sl89vegNgCf/G+8wkn3fjG/bGf3WSY92IAZbHw5J8fIAbjNm+HfxPkiP9jRhgcf3U/L3Mt7n5LeTN/7PznwsAWKC/8/5RkhsHuImYO76Df06yX3VUAGzbfvPj9dz4lmsHtyZ5racyAYz5saITl/yJROZH716fvjAFgAFMDwDwRRq9btCnJblXdXgAnT9adOT8aLzqG4JZ/x18LcmTqyME6Oan5zfnuPH13sH0wIe/S3KP6iABOjg4ybUDHP5mnB38V5IDqsMEWOaXnKevLPS53vob3ojzvSQvro4UYNlMLzH+4wCHvBl/B+9Nsmd1sADLYP8klw1wsJvF2cFlczcA7KRHJblugAPdLN4ObvIuaYCdM30P8HcHOMjN4u7gtvl9AwBsp+Pmj5hUH+BmOXbwliS7++kD2PaDFP52gAPbLN8OPuBZwwBbtluStw5wUJvl3cF5SfbyAwjw4w9TePcAB7Tp8Q7pn/PDB5DcdX55sPpgHmFuTvKfSc5MckqSo5M8a34C0MPnG8ee8+yxSTx7bPJ/n/41j5j/PdO/9yXzf9aZ83/2zQP876yeK5Ps7YcP6P6bb9eb79VJ3pfk+CS/M98Qpm/7WmvT/499khyS5IQk709yzQD7WO/58rwHgJZ/8+30svNX5nfjHp5k34xnv/m/2/R3+K8OsK/1mKvm/90Ard7t/LYBDuC1nOljVJ+cP4f60HX67Xa17DI/3OAVST615B8Jm/7ByMvRQBvL/FGj85Mcu2Rv9Ll/kpcluXCA/a7FfHF+xCXAUjt+gAN3teeb83NpD8zye1CS1yb5+gB7X825JMm9q5cLsFZ+d8lezrw4yRHzO7m7uVuS359vXBuXZM72ZR3AMvq1+ZmtG5dgPpzk4AX7u+5amXbwxCQfGeC6rMacOb9HAWApTI+Gu35JbryPrF7m4E+v+ugA1+mOzuurFwmwGu65BM/z/USSx8hhh17tOGeA63ZH5nmuN7DoL0++e8E/Jzp9NtZLzTvnyUm+NMB13Jm5NclvrPLPA8C6eeUAB+nOzHfnRyJ2fHPVapu+JvOkBf37//RO75+tXiDAjnrc/ED0jQv4cvMDXe5VN33718cGuL47OtMXkdxFD8CimL7U4NoBDs8dmZuSHOnl5jU1vZR/1AI+EOLNa7sWgNU7ZD84wKG5o7/l+E7g9f1mrbMHuO47Ms9ex/0A7JSjBzgst3dum/8+ubtrve7ulOTVC/RniukVEt8ZDQzrF5J8Z4DDcnvfYPP46oWRxy7Q4xDPmZ/iBTDcs30vHuCQ3J45z7tbhzI9uOKCAbrYnpne2Q8wlJMGOBy3Z073rtYhTR/5eucAfdze3NLkoRvAgnjwfDBtHHymvzn6Uo1xTdfmNQN0cntz6fyKD0Cp6Yvrzx3gUNzWfH9+ahGL4fkL8Oas6bGaAKX+eIDDcFsz/WZ+qEYW8mssR/72rOm/my9sAcrcb34Y/ciH5G/rY2E9afB31f+bP2kAVd4ywCG4tZkObl+mvxxfaTryTXh6WAfAupreCfqDAQ7Arb3s/Ft6WBoHD/xy9DXzIzcB1s3HBzj8tjTTm3eeoYOlc8j8ZrqNA86fVy8H6OOZAxx6Wxvvdl5eLxigry3N9BK5xxYCa276Kr7LBjj0tjQnu/5L7y8G6GxL847qxQDL74gBDrutfcOVL9lYftM1ftcAvW0+G5IcVL0cYLmfYHP5AIfd5vMfSe5WvRzW9Wsrzx+gu83nAxoA1spRAxxym8/1SR7gkrcz/c31ugH623x+uXoxwPKZvvv2qgEOuM3f8Tx9TpSenjDgR+HOql4KsHyeO8DhtvlMT2Citz8boMPNx2/BwKq+8eWSAQ62TeeTSXZ3jdub3pfwqQF63HTObH9VgFX9Tt6NA823kuzn+jLbJ8lNA3S56TuiPagBWBUfGeBQ23SOdF3ZzIsG6HLTOdUVAu6ohwxwmG06nkDD1p5L/YkB+tz0VZo9XSrgjjh1gMNsZb6b5OddTrbigYM9tOEVrhSws/ZIcsMAB9nKHOdScjtOGqDTlfnS/Js5wEJ/9OjL8z8QwLZM34h25QC9rozPqQM75ZwBDrCVebpryHY6bIBeV+YMVw3YUQ8e4PBamenNNR60wPaaWjl3gG5X3rdwb5cO2BEnD3B4rcxjXDp20GMH6HZl/tDVA3bE5wY4uKb5sMvGTvrYAP1unH8bB9guBw5waK3MI10zdtKjBuh35Zuxpqc3Adyu1wxwaE3jt1+W5bfgo11KYHt8cYADa5qDXS6W5HvMp08UACzEu58v9s5nVukd0ZcO8jL0z7iiwLYcM8BhtXH+EhBYDc8boOdpXuhyAtvy0QEOqunrL33rFav57VgjfKXqe1xSYGt+YpAvs3+zS8Qq+5sBur4xyZ1cWWBLnjLAITXNAS4PS/pYzUe7ssCWnDLAAXW+S8MauWiAvl/t6gJbcuEAB9SxLg1r5JUD9H22qwts7u5Jvj/ARzXu79KwRvaeG6tsfHqPxV1cYWBTvznAbwe+M5e1dv4Anf+Kywxs6oQBDqaXuySssT8doPPps/YA/+dDAxxMD3U9WGMPH6BznwcGfsxXiw+lr/jqSdbBrkmuLm79KlcaWLHXAL8V/IPLwTp52wC97+lqA6O8Aev3XArWyRED9P4YVxsY5QEM+7gUrJP9B+j9KFcbmJxWfBhd4zKwzo8ovLa4+em7qQF++PnbysPofa4B6+zM4uY/7ooDk68VH0bHuwyss5OKm/dOaOCHz0qt/nq+6SlMsJ4OLW7+B76SEnhQ8UE0zQNcBtbZfgN0v6+rDr09qfgQutkXcFBgtyTfKW5/+vgf0NiLig+hT1cvgLYuLW7/+dULAGqdWHwIvV8AFPlAcfvefAjNvbn4EPqr6gXQ1qnaByq9o/gQeonLT9NvgHu7Kw+9fbj4EDqsegG09ezi9s+qXgBQ68LiQ+jxAqDIE4vb/5QrD719ofgQmh6QDhUOKm7/8y479Pbl4kPo/tULoK29i9uffvaAxq4pPoT2ql4Abd2vuP2rqxcA1Ppm8SH0kwKgyJ7F7d/gykNv1V/HNz0MAirsUdz+t1126O224kNo+k5eqLBbcfvTzx7Q2MbiAf0DLbkB05n+gTIOIDrTP1DGAURn+gfKOIDoTP9AGQcQnekfKOMAojP9A2UcQHSmf6CMA4jO9A+UcQDRmf6BMg4gOtM/UMYBRGf6B8o4gOhM/0AZBxCd6R8o4wCiM/0DZRxAdKZ/oIwDiM70D5RxANGZ/oEyDiA60z9QxgFEZ/oHyjiA6Ez/QBkHEJ3pHyjjAKIz/QNlHEB0pn+gjAOIzvQPlHEA0Zn+gTIOIDrTP1DGAURn+gfKOIDoTP9AGQcQnekfKOMAojP9A2UcQHSmf1hi903ytCQnJnlnkguTXJHkG0luHeAAMHaggb4N3DqfRVfMZ9MZSU5Icuh8dsHCOSjJG5NcmmTDAD9kxg40oIEdbWA6uy6Zz7JHVB+qsC33TPKyJJ/1g+6w14AGlrCB6Ww7Nsk93AoYxb2TnDy/jFP9A2LsQAMaWOsGprPuVUn2rD586WuXJIcnudYPvENfAxpoeiN+cZJdqw9jetkvybkD/AAYO9CABqobOCfJvtWHMj08NckNfujLf+iNHWhgnAZuSnJY9eHM8ppeZjllgNCNHWhAA6M2ML1j2kvSrKo7z5/hrY7b2IEGNDB6A+9Jclf3IFbr5vuhAaI2dqABDSxKA2fNZyfstOmllHcNELOxAw1oYNEamF419HI0O83ffOt/iI0daGBxG3iD+w874xkDxGvsQAMaWPQGnuUWxI6YPtN24wDhGjvQgAYWvYGbk+zvFsT2mP5m4Us26n9ojR1oYHkaOHv+9kDYphcMEKuxAw1oYNkaOMK9h9t7sMLXBwjV2IEGNLBsDUzfm+8BDmzVyQNEauxAAxpY1gZOdP9ha8/z9UjB+h9QYwcaWN4Grvc8YbbkZQPEaexAAxpY9gaOcQtic58bIExjBxrQwLI38Bm3Hzb1SwNEaexAAxro0sCBbkGseNMAQRo70IAGujTwercfVlw6QJDGDjSggS4NXOT2w+S+STYMEKSxAw1ooEsDG5Ls5RbE0waI0diBBjTQrYGnuv1w0gAhGjvQgAa6NXC82w/vHCBEYwca0EC3Bk53++GCAUI0dqABDXRr4Dy3H64cIERjBxrQQLcGrnD74foBQjR2oAENdGvgOrcfbhkgRGMHGtBAtwa+5/ZDdYTGDjSgga4N0Fx1gMYONKCBrg3QXHWAxg40oIGuDdBcdYDGDjSgga4N0Fx1gMYONKCBrg3QXHWAxg40oIGuDdBcdYDGDjSgga4N0Fx1gMYONKCBrg3QXHWAxg40oIGuDdBcdYDGDjSgga4N0Fx1gMYONKCBrg3QXHWAxg40oIGuDdBcdYDGDjSgga4N0Fx1gMYONKCBrg3QXHWAxg40oIGuDdBcdYDGDjSgga4N0Fx1gMYONKCBrg3QXHWAxg40oIGuDdBcdYDGDjSgga4N0Fx1gMYONKCBrg3QXHWAxg40oIGuDdBcdYDGDjSgga4N0Fx1gMYONKCBrg3QXHWAxg40oIGuDdBcdYDGDjSgga4N0Fx1gMYONKCBrg3QXHWAxg40oIGuDdBcdYDGDjSgga4N0Fx1gMYONKCBrg3QXHWAxg40oIGuDdBcdYDGDjSgga4N0Fx1gMYONKCBrg3QXHWAxg40oIGuDdBcdYDGDjSgga4N0Fx1gMYONKCBrg3QXHWAxg40oIGuDdBcdYDGDjSgga4N0Fx1gMYONKCBrg3QXHWAxg40oIGuDdBcdYDGDjSgga4N0Fx1gMYONKCBrg3QXHWAxg40oIGuDdBcdYDGDjSgga4N0Fx1gMYONKCBrg3QXHWAxg40oIGuDdBcdYDGDjSgga4N0Fx1gMYONKCBrg3QXHWAxg40oIGuDdBcdYDGDjSgga4N0Fx1gMYONKCBrg3QXHWAxg40oIGuDdBcdYDGDjSgga4N0Fx1gMYONKCBrg3QXHWAxg40oIGuDdBcdYDGDjSgga4N0Fx1gMYONKCBrg3QXHWAxg40oIGuDdBcdYDGDjSgga4N0Fx1gMYONKCBrg3QXHWAxg40oIGuDdBcdYDGDjSgga4N0Fx1gMYONKCBrg3QXHWAxg40oIGuDdBcdYDGDjSgga4N0Fx1gMYONKCBrg3QXHWAxg40oIGuDdBcdYDGDjSgga4N0Fx1gMYONKCBrg3QXHWAxg40oIGuDdBcdYDGDjSgga4N0Fx1gMYONKCBrg3QXHWAxg40oIGuDdBcdYDGDjSgga4N0Fx1gMYONKCBrg3QXHWAxg40oIGuDdBcdYDGDjSgga4N0Fx1gMYONKCBrg3QXHWAxg40oIGuDdBcdYDGDjSgga4N0Fx1gMYONKCBrg3QXHWAxg40oIGuDdBcdYDGDjSgga4N0Fx1gMYONKCBrg3QXHWAxg40oIGuDdBcdYDGDjSgga4N0Fx1gMYONKCBrg3QXHWAxg40oIGuDdBcdYDGDjSgga4N0Fx1gMYONKCBrg3QXHWAxg40oIGuDdBcdYDGDjSgga4N0Fx1gMYONKCBrg3QXHWAxg40oIGuDdBcdYDGDjSgga4N0Fx1gMYONKCBrg3QXHWAxg40oIGuDdBcdYDGDjSgga4N0Fx1gMYONKCBrg3QXHWAxg40oIGuDdBcdYDGDjSgga4N0Fx1gMYONKCBrg3QXHWAxg40oIGuDdBcdYDGDjSgga4N0Fx1gMYONKCBrg3QXHWAxg40oIGuDdBcdYDGDjSgga4N0Fx1gMYONKCBrg3QXHWAxg40oIGuDdBcdYDGDjSgga4N0Fx1gMYONKCBrg3QXHWAxg40oIGuDdBcdYDGDjSgga4N0Fx1gMYONKCBrg3QXHWAxg40oIGuDdBcdYDGDjSgga4N0Fx1gMYONKCBrg3QXHWAxg40oIGuDdBcdYDGDjSgga4N0Fx1gMYONKCBrg3QXHWAxg40oIGuDdBcdYDGDjSgga4N0Fx1gMYONKCBrg3QXHWAxg40oIGuDdBcdYDGDjSgga4N0Fx1gMYONKCBrg3QXHWAxg40oIGuDdBcdYDGDjSgga4N0Fx1gMYONKCBrg3QXHWAxg40oIGuDdBcdYDGDjSgga4N0Fx1gMYONKCBrg3QXHWAxg40oIGuDdBcdYDGDjSgga4N0Fx1gMYONKCBrg3QXHWAxg40oIGuDdBcdYDGDjSgga4N0Fx1gMYONKCBrg3QXHWAxg40oIGuDdBcdYDGDjSgga4N0Fx1gMYONKCBrg3QXHWAxg40oIGuDdBcdYDGDjSgga4N0Fx1gMYONKCBrg3QXHWAxg40oIGuDdBcdYDGDjSgga4N0Fx1gMYONKCBrg3QXHWAxg40oIGuDdBcdYDGDjSgga4N0Fx1gMYONKCBrg3QXHWAxg40oIGuDdBcdYDGDjSgga4N0Fx1gMYONKCBrg3QXHWAxg40oIGuDdBcdYDGDjSgga4N0Fx1gMYONKCBrg3QXHWAxg40oIGuDdBcdYDGDjSgga4N0Fx1gMYONKCBrg3QXHWAxg40oIGuDdBcdYDGDjSgga4N0Fx1gMYONKCBrg3QXHWAxg40oIGuDdBcdYDGDjSgga4N0Fx1gMYONKCBrg3QXHWAxg40oIGuDdBcdYDGDjSgga4N0Fx1gMYONKCBrg3QXHWAxg40oIGuDdBcdYDGDjSgga4N0Fx1gMYONKCBrg3QXHWAxg40oIGuDdBcdYDGDjSgga4N0Fx1gMYONKCBrg3QXHWAxg40oIGuDdBcdYDGDjSgga4N0Fx1gMYONKCBrg3QXHWAxg40oIGuDdBcdYDGDjSgga4N0Fx1gMYONKCBrg3QXHWAxg40oIGuDdBcdYDGDjSgga4N0Fx1gMYONKCBrg3QXHWAxg40oIGuDdBcdYDGDjSgga4N0Fx1gMYONKCBrg3QXHWAxg40oIGuDdBcdYDGDjSgga4N0Fx1gMYONKCBrg3QXHWAxg40oIGuDdBcdYDGDjSgga4N0Fx1gMYONKCBrg3QXHWAxg40oIGuDdDcLQNEaOxAAxro1sD3qg9/6l0/QIjGDjSggW4NXFd9+FPvygFCNHagAQ10a+CK6sOfehcMEKKxAw1ooFsD51Uf/tQ7Y4AQjR1oQAPdGnh79eFPvRMHCNHYgQY00K2B46oPf+odOkCIxg40oIFuDRxSffhT775JNgwQo7EDDWigSwMbktyn+vBnDJcMEKSxAw1ooEsDF1Uf+ozjjQMEaexAAxro0sDrqg99xnHQAEEaO9CABro0cED1oc9YvAxd/0Np7EADy9/AZ6oPe8Zz7ABhGjvQgAaWvYGXVh/2jOeeSb4xQJzGDjSggWVtYPru/XtUH/aM6VUDBGrsQAMaWNYGTqg+5BnXnvMTOqojNXagAQ0sWwPXJLlX9SHP2J43QKjGDjSggWVr4DnVhzvj2yXJOQPEauxAAxpYlgY+MZ+tcLv2TfLNAaI1dqABDSx6A9NZurf7Djvi6QOEa+xAAxpY9AYOc+thZ/iKyvofXmMHGljcBl7v1sPOmv5mcdoAERs70IAGFq2BM5Ls6vbDHXHnJGcNELOxAw1oYFEa+GCSO7n1sFo34TMGiNrYgQY0MHoDp7v5stqml1LeMEDcxg40oIGR/+br40asmUN8Z3T5D7mxAw2M1cCNSZ7pvsN62CfJ2QNEb+xAAxoY4Us2fM6XdTW9zHL4/P2m1T8Axg40oIGKJxu92DudqX6Aw4lzjA5BO9CABpa9gevnpxp5sALDmJ5xeUySSwf4ATF2oAENrHYDlyR5aZK7Vx+2sC0Pm98N+OkkGxwEbgYa0MACNvCDJBcleV2SAx35LKL7JHlqkuOSvCPJ+Ukun1/GuWWAHzJjBxro28At81l0+Xw2nT6fVYfMZxcAAAAAAAAAAAAAAAAAAAAAAAAAAAAAAAAAAAAAAAAAAAAAAAAAAAAAAAAAAAAAAAAAAAAAAAAAAAAAAAAAAAAAAAAAAAAAAAAAAAAAAAAAAAAAAAAAAAAAAGTR/S9h7ld+vqadlQAAAABJRU5ErkJggg==;" vertex="1" parent="1">
          <mxGeometry x="80" y="600" width="20" height="20" as="geometry" />
        </mxCell>
        <mxCell id="Dc7YXJw_S2fjsJdjIzWw-16" value="" style="endArrow=classic;html=1;rounded=0;" edge="1" parent="1">
          <mxGeometry width="50" height="50" relative="1" as="geometry">
            <mxPoint x="205" y="612.5" as="sourcePoint" />
            <mxPoint x="235" y="612.5" as="targetPoint" />
          </mxGeometry>
        </mxCell>
        <mxCell id="Dc7YXJw_S2fjsJdjIzWw-17" value="&lt;div&gt;Library&amp;nbsp;&lt;/div&gt;&lt;div&gt;(done writting)&lt;/div&gt;" style="rounded=1;whiteSpace=wrap;html=1;align=center;" vertex="1" parent="1">
          <mxGeometry x="78" y="680" width="90" height="40" as="geometry" />
        </mxCell>
        <mxCell id="Dc7YXJw_S2fjsJdjIzWw-20" value="Compressing chunk" style="text;html=1;align=center;verticalAlign=middle;whiteSpace=wrap;rounded=0;" vertex="1" parent="1">
          <mxGeometry x="122.5" y="630" width="60" height="30" as="geometry" />
        </mxCell>
        <mxCell id="Dc7YXJw_S2fjsJdjIzWw-21" value="&lt;div&gt;Waiting until&lt;/div&gt;&lt;div&gt;chunk is compressed&lt;br&gt;&lt;/div&gt;" style="text;html=1;align=center;verticalAlign=middle;whiteSpace=wrap;rounded=0;" vertex="1" parent="1">
          <mxGeometry x="66.5" y="730" width="118" height="30" as="geometry" />
        </mxCell>
        <mxCell id="Dc7YXJw_S2fjsJdjIzWw-22" value="" style="endArrow=classic;html=1;rounded=0;" edge="1" parent="1">
          <mxGeometry width="50" height="50" relative="1" as="geometry">
            <mxPoint x="178" y="690" as="sourcePoint" />
            <mxPoint x="208" y="690" as="targetPoint" />
          </mxGeometry>
        </mxCell>
      </root>
    </mxGraphModel>
  </diagram>
  <diagram id="G7xjmHPiZ8HtFMd33S8n" name="not done">
    <mxGraphModel dx="1864" dy="1204" grid="1" gridSize="10" guides="1" tooltips="1" connect="1" arrows="1" fold="1" page="1" pageScale="1" pageWidth="850" pageHeight="1100" math="0" shadow="0">
      <root>
        <mxCell id="0" />
        <mxCell id="1" parent="0" />
        <mxCell id="GZDZzl4D8xDUIA5lt34K-2" value="" style="verticalLabelPosition=bottom;verticalAlign=top;html=1;shape=mxgraph.basic.partConcEllipse;startAngle=0.9057122582784672;endAngle=0.1;arcWidth=0.5;fillStyle=cross-hatch;fillColor=#000000;" vertex="1" parent="1">
          <mxGeometry x="204" y="40" width="390" height="390" as="geometry" />
        </mxCell>
        <mxCell id="GZDZzl4D8xDUIA5lt34K-3" value="" style="verticalLabelPosition=bottom;verticalAlign=top;html=1;shape=mxgraph.basic.partConcEllipse;startAngle=0.1124311986865717;endAngle=0.25;arcWidth=0.5;fillStyle=hatch;fillColor=#000000;" vertex="1" parent="1">
          <mxGeometry x="204" y="40" width="390" height="390" as="geometry" />
        </mxCell>
        <mxCell id="GZDZzl4D8xDUIA5lt34K-4" value="" style="verticalLabelPosition=bottom;verticalAlign=top;html=1;shape=mxgraph.basic.partConcEllipse;startAngle=0.7536580900160924;endAngle=0.8951859844605881;arcWidth=0.5;fillStyle=cross-hatch;fillColor=#000000;" vertex="1" parent="1">
          <mxGeometry x="204" y="40" width="390" height="390" as="geometry" />
        </mxCell>
        <mxCell id="GZDZzl4D8xDUIA5lt34K-5" value="" style="verticalLabelPosition=bottom;verticalAlign=top;html=1;shape=mxgraph.basic.partConcEllipse;startAngle=0.9057122582784672;endAngle=0.1;arcWidth=0.5;direction=west;fillStyle=hatch;fillColor=#000000;" vertex="1" parent="1">
          <mxGeometry x="204" y="50" width="390" height="390" as="geometry" />
        </mxCell>
        <mxCell id="GZDZzl4D8xDUIA5lt34K-6" value="" style="verticalLabelPosition=bottom;verticalAlign=top;html=1;shape=mxgraph.basic.partConcEllipse;startAngle=0.1124311986865717;endAngle=0.25;arcWidth=0.5;direction=west;fillColor=#000000;fillStyle=cross-hatch;" vertex="1" parent="1">
          <mxGeometry x="204" y="50" width="390" height="390" as="geometry" />
        </mxCell>
        <mxCell id="GZDZzl4D8xDUIA5lt34K-7" value="" style="verticalLabelPosition=bottom;verticalAlign=top;html=1;shape=mxgraph.basic.partConcEllipse;startAngle=0.7536580900160924;endAngle=0.8951859844605881;arcWidth=0.5;direction=west;fillStyle=hatch;fillColor=#000000;" vertex="1" parent="1">
          <mxGeometry x="204" y="50" width="390" height="390" as="geometry" />
        </mxCell>
        <mxCell id="GZDZzl4D8xDUIA5lt34K-8" value="&lt;font face=&quot;Courier New&quot;&gt;COMP&lt;/font&gt;" style="rounded=0;whiteSpace=wrap;html=1;strokeColor=none;" vertex="1" parent="1">
          <mxGeometry x="374" y="370" width="55" height="30" as="geometry" />
        </mxCell>
        <mxCell id="GZDZzl4D8xDUIA5lt34K-9" value="&lt;font face=&quot;Courier New&quot;&gt;RAW&lt;/font&gt;" style="rounded=0;whiteSpace=wrap;html=1;strokeColor=none;" vertex="1" parent="1">
          <mxGeometry x="244" y="290" width="50" height="30" as="geometry" />
        </mxCell>
        <mxCell id="GZDZzl4D8xDUIA5lt34K-10" value="&lt;font face=&quot;Courier New&quot;&gt;COMP&lt;/font&gt;" style="rounded=0;whiteSpace=wrap;html=1;strokeColor=none;" vertex="1" parent="1">
          <mxGeometry x="504" y="300" width="55" height="30" as="geometry" />
        </mxCell>
        <mxCell id="GZDZzl4D8xDUIA5lt34K-11" value="&lt;font face=&quot;Courier New&quot;&gt;COMP&lt;/font&gt;" style="rounded=0;whiteSpace=wrap;html=1;strokeColor=none;" vertex="1" parent="1">
          <mxGeometry x="504" y="160" width="55" height="30" as="geometry" />
        </mxCell>
        <mxCell id="GZDZzl4D8xDUIA5lt34K-12" value="&lt;font face=&quot;Courier New&quot;&gt;RAW&lt;/font&gt;" style="rounded=0;whiteSpace=wrap;html=1;strokeColor=none;" vertex="1" parent="1">
          <mxGeometry x="371.5" y="80" width="55" height="30" as="geometry" />
        </mxCell>
        <mxCell id="GZDZzl4D8xDUIA5lt34K-14" value="" style="html=1;shadow=0;dashed=0;align=center;verticalAlign=middle;shape=mxgraph.arrows2.uTurnArrow;dy=0.67;arrowHead=7.67;dx2=7.14;fillColor=#000000;rotation=90;" vertex="1" parent="1">
          <mxGeometry x="387.13" y="190" width="28.75" height="65" as="geometry" />
        </mxCell>
        <mxCell id="GZDZzl4D8xDUIA5lt34K-15" value="&lt;div align=&quot;center&quot;&gt;&lt;font face=&quot;Courier New&quot;&gt;Service&lt;/font&gt;&lt;/div&gt;" style="rounded=1;whiteSpace=wrap;html=1;align=center;" vertex="1" parent="1">
          <mxGeometry x="84" y="350" width="90" height="25" as="geometry" />
        </mxCell>
        <mxCell id="GZDZzl4D8xDUIA5lt34K-16" value="" style="shape=image;imageAspect=0;aspect=fixed;verticalLabelPosition=bottom;verticalAlign=top;image=data:image/png,iVBORw0KGgoAAAANSUhEUgAAAeAAAAHgCAYAAAB91L6VAAAACXBIWXMAAAsTAAALEwEAmpwYAAAZnElEQVR4nO3de7CtdV3H8Q8Xb6QmJjrNNKVcQm1SUCkznSwTdRozxMtghpKK0lSi4KjFTSwzHTUcqqkZk1FEZ8wLk2KmTqWAI5cwQCUVJEnlIiLgDcRzmkef3RxP5xzOOey9v7+1vq/XzPefRk2/z3v/Hvbaa60nAQAAAAAAAAAAAAAAAAAAAAAAAAAAAAAAAAAAAAAAAAAAAAAAAAAAAAAAAAAAAAAAAAAAAAAAAAAAAAAAYBncNcmDkjwpyYuSnJDklCSnJ/lQkvOTXD7PN+b5VpKNSW5K8pkk/5LkVUkekWSX6v9BADCSvZI8LslLk7w1yblJvjrfSFdzvpbkk0n+KclpSd6Q5E+SPDfJryd5QJLdq5cBAGvh7vPN9oT5t9i1uNHekfl+kiuT/GuSv07ywiSPTnIvOQCwaDfcp8wvHV8w3+A2Luj8d5L3Jjkmya/OL5EDwDAePN+kPprklgFunGs1t8wvl//l/Fv9XaoXD0A/ByR5zfyGqI1N59tJzkpydJL9qy8IAMv9m+7JSS4b4OY34lyS5KQkv1h9oQBYfHskeU6Scwa4wS3SXDb/w8q+1RcQgMXykCSnJrlhgJvZIs+GJP8+f/RpeoMaAPw/0xdXPCHJRwa4cS3j3Jzk771EDcCKOyc5PMnFA9ykuszZSZ6eZDcZAvS88R6V5KoBbkhd54tJ/sBHmgB62HX+7esLA9yAzI92cE2Sl89vegNgCf/G+8wkn3fjG/bGf3WSY92IAZbHw5J8fIAbjNm+HfxPkiP9jRhgcf3U/L3Mt7n5LeTN/7PznwsAWKC/8/5RkhsHuImYO76Df06yX3VUAGzbfvPj9dz4lmsHtyZ5racyAYz5saITl/yJROZH716fvjAFgAFMDwDwRRq9btCnJblXdXgAnT9adOT8aLzqG4JZ/x18LcmTqyME6Oan5zfnuPH13sH0wIe/S3KP6iABOjg4ybUDHP5mnB38V5IDqsMEWOaXnKevLPS53vob3ojzvSQvro4UYNlMLzH+4wCHvBl/B+9Nsmd1sADLYP8klw1wsJvF2cFlczcA7KRHJblugAPdLN4ObvIuaYCdM30P8HcHOMjN4u7gtvl9AwBsp+Pmj5hUH+BmOXbwliS7++kD2PaDFP52gAPbLN8OPuBZwwBbtluStw5wUJvl3cF5SfbyAwjw4w9TePcAB7Tp8Q7pn/PDB5DcdX55sPpgHmFuTvKfSc5MckqSo5M8a34C0MPnG8ee8+yxSTx7bPJ/n/41j5j/PdO/9yXzf9aZ83/2zQP876yeK5Ps7YcP6P6bb9eb79VJ3pfk+CS/M98Qpm/7WmvT/499khyS5IQk709yzQD7WO/58rwHgJZ/8+30svNX5nfjHp5k34xnv/m/2/R3+K8OsK/1mKvm/90Ard7t/LYBDuC1nOljVJ+cP4f60HX67Xa17DI/3OAVST615B8Jm/7ByMvRQBvL/FGj85Mcu2Rv9Ll/kpcluXCA/a7FfHF+xCXAUjt+gAN3teeb83NpD8zye1CS1yb5+gB7X825JMm9q5cLsFZ+d8lezrw4yRHzO7m7uVuS359vXBuXZM72ZR3AMvq1+ZmtG5dgPpzk4AX7u+5amXbwxCQfGeC6rMacOb9HAWApTI+Gu35JbryPrF7m4E+v+ugA1+mOzuurFwmwGu65BM/z/USSx8hhh17tOGeA63ZH5nmuN7DoL0++e8E/Jzp9NtZLzTvnyUm+NMB13Jm5NclvrPLPA8C6eeUAB+nOzHfnRyJ2fHPVapu+JvOkBf37//RO75+tXiDAjnrc/ED0jQv4cvMDXe5VN33718cGuL47OtMXkdxFD8CimL7U4NoBDs8dmZuSHOnl5jU1vZR/1AI+EOLNa7sWgNU7ZD84wKG5o7/l+E7g9f1mrbMHuO47Ms9ex/0A7JSjBzgst3dum/8+ubtrve7ulOTVC/RniukVEt8ZDQzrF5J8Z4DDcnvfYPP46oWRxy7Q4xDPmZ/iBTDcs30vHuCQ3J45z7tbhzI9uOKCAbrYnpne2Q8wlJMGOBy3Z073rtYhTR/5eucAfdze3NLkoRvAgnjwfDBtHHymvzn6Uo1xTdfmNQN0cntz6fyKD0Cp6Yvrzx3gUNzWfH9+ahGL4fkL8Oas6bGaAKX+eIDDcFsz/WZ+qEYW8mssR/72rOm/my9sAcrcb34Y/ciH5G/rY2E9afB31f+bP2kAVd4ywCG4tZkObl+mvxxfaTryTXh6WAfAupreCfqDAQ7Arb3s/Ft6WBoHD/xy9DXzIzcB1s3HBzj8tjTTm3eeoYOlc8j8ZrqNA86fVy8H6OOZAxx6Wxvvdl5eLxigry3N9BK5xxYCa276Kr7LBjj0tjQnu/5L7y8G6GxL847qxQDL74gBDrutfcOVL9lYftM1ftcAvW0+G5IcVL0cYLmfYHP5AIfd5vMfSe5WvRzW9Wsrzx+gu83nAxoA1spRAxxym8/1SR7gkrcz/c31ugH623x+uXoxwPKZvvv2qgEOuM3f8Tx9TpSenjDgR+HOql4KsHyeO8DhtvlMT2Citz8boMPNx2/BwKq+8eWSAQ62TeeTSXZ3jdub3pfwqQF63HTObH9VgFX9Tt6NA823kuzn+jLbJ8lNA3S56TuiPagBWBUfGeBQ23SOdF3ZzIsG6HLTOdUVAu6ohwxwmG06nkDD1p5L/YkB+tz0VZo9XSrgjjh1gMNsZb6b5OddTrbigYM9tOEVrhSws/ZIcsMAB9nKHOdScjtOGqDTlfnS/Js5wEJ/9OjL8z8QwLZM34h25QC9rozPqQM75ZwBDrCVebpryHY6bIBeV+YMVw3YUQ8e4PBamenNNR60wPaaWjl3gG5X3rdwb5cO2BEnD3B4rcxjXDp20GMH6HZl/tDVA3bE5wY4uKb5sMvGTvrYAP1unH8bB9guBw5waK3MI10zdtKjBuh35Zuxpqc3Adyu1wxwaE3jt1+W5bfgo11KYHt8cYADa5qDXS6W5HvMp08UACzEu58v9s5nVukd0ZcO8jL0z7iiwLYcM8BhtXH+EhBYDc8boOdpXuhyAtvy0QEOqunrL33rFav57VgjfKXqe1xSYGt+YpAvs3+zS8Qq+5sBur4xyZ1cWWBLnjLAITXNAS4PS/pYzUe7ssCWnDLAAXW+S8MauWiAvl/t6gJbcuEAB9SxLg1r5JUD9H22qwts7u5Jvj/ARzXu79KwRvaeG6tsfHqPxV1cYWBTvznAbwe+M5e1dv4Anf+Kywxs6oQBDqaXuySssT8doPPps/YA/+dDAxxMD3U9WGMPH6BznwcGfsxXiw+lr/jqSdbBrkmuLm79KlcaWLHXAL8V/IPLwTp52wC97+lqA6O8Aev3XArWyRED9P4YVxsY5QEM+7gUrJP9B+j9KFcbmJxWfBhd4zKwzo8ovLa4+em7qQF++PnbysPofa4B6+zM4uY/7ooDk68VH0bHuwyss5OKm/dOaOCHz0qt/nq+6SlMsJ4OLW7+B76SEnhQ8UE0zQNcBtbZfgN0v6+rDr09qfgQutkXcFBgtyTfKW5/+vgf0NiLig+hT1cvgLYuLW7/+dULAGqdWHwIvV8AFPlAcfvefAjNvbn4EPqr6gXQ1qnaByq9o/gQeonLT9NvgHu7Kw+9fbj4EDqsegG09ezi9s+qXgBQ68LiQ+jxAqDIE4vb/5QrD719ofgQmh6QDhUOKm7/8y479Pbl4kPo/tULoK29i9uffvaAxq4pPoT2ql4Abd2vuP2rqxcA1Ppm8SH0kwKgyJ7F7d/gykNv1V/HNz0MAirsUdz+t1126O224kNo+k5eqLBbcfvTzx7Q2MbiAf0DLbkB05n+gTIOIDrTP1DGAURn+gfKOIDoTP9AGQcQnekfKOMAojP9A2UcQHSmf6CMA4jO9A+UcQDRmf6BMg4gOtM/UMYBRGf6B8o4gOhM/0AZBxCd6R8o4wCiM/0DZRxAdKZ/oIwDiM70D5RxANGZ/oEyDiA60z9QxgFEZ/oHyjiA6Ez/QBkHEJ3pHyjjAKIz/QNlHEB0pn+gjAOIzvQPlHEA0Zn+gTIOIDrTP1DGAURn+gfKOIDoTP9AGQcQnekfKOMAojP9A2UcQHSmf1hi903ytCQnJnlnkguTXJHkG0luHeAAMHaggb4N3DqfRVfMZ9MZSU5Icuh8dsHCOSjJG5NcmmTDAD9kxg40oIEdbWA6uy6Zz7JHVB+qsC33TPKyJJ/1g+6w14AGlrCB6Ww7Nsk93AoYxb2TnDy/jFP9A2LsQAMaWOsGprPuVUn2rD586WuXJIcnudYPvENfAxpoeiN+cZJdqw9jetkvybkD/AAYO9CABqobOCfJvtWHMj08NckNfujLf+iNHWhgnAZuSnJY9eHM8ppeZjllgNCNHWhAA6M2ML1j2kvSrKo7z5/hrY7b2IEGNDB6A+9Jclf3IFbr5vuhAaI2dqABDSxKA2fNZyfstOmllHcNELOxAw1oYNEamF419HI0O83ffOt/iI0daGBxG3iD+w874xkDxGvsQAMaWPQGnuUWxI6YPtN24wDhGjvQgAYWvYGbk+zvFsT2mP5m4Us26n9ojR1oYHkaOHv+9kDYphcMEKuxAw1oYNkaOMK9h9t7sMLXBwjV2IEGNLBsDUzfm+8BDmzVyQNEauxAAxpY1gZOdP9ha8/z9UjB+h9QYwcaWN4Grvc8YbbkZQPEaexAAxpY9gaOcQtic58bIExjBxrQwLI38Bm3Hzb1SwNEaexAAxro0sCBbkGseNMAQRo70IAGujTwercfVlw6QJDGDjSggS4NXOT2w+S+STYMEKSxAw1ooEsDG5Ls5RbE0waI0diBBjTQrYGnuv1w0gAhGjvQgAa6NXC82w/vHCBEYwca0EC3Bk53++GCAUI0dqABDXRr4Dy3H64cIERjBxrQQLcGrnD74foBQjR2oAENdGvgOrcfbhkgRGMHGtBAtwa+5/ZDdYTGDjSgga4N0Fx1gMYONKCBrg3QXHWAxg40oIGuDdBcdYDGDjSgga4N0Fx1gMYONKCBrg3QXHWAxg40oIGuDdBcdYDGDjSgga4N0Fx1gMYONKCBrg3QXHWAxg40oIGuDdBcdYDGDjSgga4N0Fx1gMYONKCBrg3QXHWAxg40oIGuDdBcdYDGDjSgga4N0Fx1gMYONKCBrg3QXHWAxg40oIGuDdBcdYDGDjSgga4N0Fx1gMYONKCBrg3QXHWAxg40oIGuDdBcdYDGDjSgga4N0Fx1gMYONKCBrg3QXHWAxg40oIGuDdBcdYDGDjSgga4N0Fx1gMYONKCBrg3QXHWAxg40oIGuDdBcdYDGDjSgga4N0Fx1gMYONKCBrg3QXHWAxg40oIGuDdBcdYDGDjSgga4N0Fx1gMYONKCBrg3QXHWAxg40oIGuDdBcdYDGDjSgga4N0Fx1gMYONKCBrg3QXHWAxg40oIGuDdBcdYDGDjSgga4N0Fx1gMYONKCBrg3QXHWAxg40oIGuDdBcdYDGDjSgga4N0Fx1gMYONKCBrg3QXHWAxg40oIGuDdBcdYDGDjSgga4N0Fx1gMYONKCBrg3QXHWAxg40oIGuDdBcdYDGDjSgga4N0Fx1gMYONKCBrg3QXHWAxg40oIGuDdBcdYDGDjSgga4N0Fx1gMYONKCBrg3QXHWAxg40oIGuDdBcdYDGDjSgga4N0Fx1gMYONKCBrg3QXHWAxg40oIGuDdBcdYDGDjSgga4N0Fx1gMYONKCBrg3QXHWAxg40oIGuDdBcdYDGDjSgga4N0Fx1gMYONKCBrg3QXHWAxg40oIGuDdBcdYDGDjSgga4N0Fx1gMYONKCBrg3QXHWAxg40oIGuDdBcdYDGDjSgga4N0Fx1gMYONKCBrg3QXHWAxg40oIGuDdBcdYDGDjSgga4N0Fx1gMYONKCBrg3QXHWAxg40oIGuDdBcdYDGDjSgga4N0Fx1gMYONKCBrg3QXHWAxg40oIGuDdBcdYDGDjSgga4N0Fx1gMYONKCBrg3QXHWAxg40oIGuDdBcdYDGDjSgga4N0Fx1gMYONKCBrg3QXHWAxg40oIGuDdBcdYDGDjSgga4N0Fx1gMYONKCBrg3QXHWAxg40oIGuDdBcdYDGDjSgga4N0Fx1gMYONKCBrg3QXHWAxg40oIGuDdBcdYDGDjSgga4N0Fx1gMYONKCBrg3QXHWAxg40oIGuDdBcdYDGDjSgga4N0Fx1gMYONKCBrg3QXHWAxg40oIGuDdBcdYDGDjSgga4N0Fx1gMYONKCBrg3QXHWAxg40oIGuDdBcdYDGDjSgga4N0Fx1gMYONKCBrg3QXHWAxg40oIGuDdBcdYDGDjSgga4N0Fx1gMYONKCBrg3QXHWAxg40oIGuDdBcdYDGDjSgga4N0Fx1gMYONKCBrg3QXHWAxg40oIGuDdBcdYDGDjSgga4N0Fx1gMYONKCBrg3QXHWAxg40oIGuDdBcdYDGDjSgga4N0Fx1gMYONKCBrg3QXHWAxg40oIGuDdBcdYDGDjSgga4N0Fx1gMYONKCBrg3QXHWAxg40oIGuDdBcdYDGDjSgga4N0Fx1gMYONKCBrg3QXHWAxg40oIGuDdBcdYDGDjSgga4N0Fx1gMYONKCBrg3QXHWAxg40oIGuDdBcdYDGDjSgga4N0Fx1gMYONKCBrg3QXHWAxg40oIGuDdBcdYDGDjSgga4N0Fx1gMYONKCBrg3QXHWAxg40oIGuDdBcdYDGDjSgga4N0Fx1gMYONKCBrg3QXHWAxg40oIGuDdBcdYDGDjSgga4N0Fx1gMYONKCBrg3QXHWAxg40oIGuDdBcdYDGDjSgga4N0Fx1gMYONKCBrg3QXHWAxg40oIGuDdBcdYDGDjSgga4N0Fx1gMYONKCBrg3QXHWAxg40oIGuDdBcdYDGDjSgga4N0Fx1gMYONKCBrg3QXHWAxg40oIGuDdBcdYDGDjSgga4N0Fx1gMYONKCBrg3QXHWAxg40oIGuDdBcdYDGDjSgga4N0Fx1gMYONKCBrg3QXHWAxg40oIGuDdBcdYDGDjSgga4N0Fx1gMYONKCBrg3QXHWAxg40oIGuDdBcdYDGDjSgga4N0Fx1gMYONKCBrg3QXHWAxg40oIGuDdBcdYDGDjSgga4N0Fx1gMYONKCBrg3QXHWAxg40oIGuDdBcdYDGDjSgga4N0Fx1gMYONKCBrg3QXHWAxg40oIGuDdBcdYDGDjSgga4N0Fx1gMYONKCBrg3QXHWAxg40oIGuDdBcdYDGDjSgga4N0Fx1gMYONKCBrg3QXHWAxg40oIGuDdBcdYDGDjSgga4N0Fx1gMYONKCBrg3QXHWAxg40oIGuDdBcdYDGDjSgga4N0Fx1gMYONKCBrg3QXHWAxg40oIGuDdBcdYDGDjSgga4N0Fx1gMYONKCBrg3QXHWAxg40oIGuDdBcdYDGDjSgga4N0Fx1gMYONKCBrg3QXHWAxg40oIGuDdBcdYDGDjSgga4N0Fx1gMYONKCBrg3QXHWAxg40oIGuDdBcdYDGDjSgga4N0Fx1gMYONKCBrg3QXHWAxg40oIGuDdBcdYDGDjSgga4N0Fx1gMYONKCBrg3QXHWAxg40oIGuDdBcdYDGDjSgga4N0Fx1gMYONKCBrg3QXHWAxg40oIGuDdBcdYDGDjSgga4N0Fx1gMYONKCBrg3QXHWAxg40oIGuDdBcdYDGDjSgga4N0Fx1gMYONKCBrg3QXHWAxg40oIGuDdBcdYDGDjSgga4N0Fx1gMYONKCBrg3QXHWAxg40oIGuDdDcLQNEaOxAAxro1sD3qg9/6l0/QIjGDjSggW4NXFd9+FPvygFCNHagAQ10a+CK6sOfehcMEKKxAw1ooFsD51Uf/tQ7Y4AQjR1oQAPdGnh79eFPvRMHCNHYgQY00K2B46oPf+odOkCIxg40oIFuDRxSffhT775JNgwQo7EDDWigSwMbktyn+vBnDJcMEKSxAw1ooEsDF1Uf+ozjjQMEaexAAxro0sDrqg99xnHQAEEaO9CABro0cED1oc9YvAxd/0Np7EADy9/AZ6oPe8Zz7ABhGjvQgAaWvYGXVh/2jOeeSb4xQJzGDjSggWVtYPru/XtUH/aM6VUDBGrsQAMaWNYGTqg+5BnXnvMTOqojNXagAQ0sWwPXJLlX9SHP2J43QKjGDjSggWVr4DnVhzvj2yXJOQPEauxAAxpYlgY+MZ+tcLv2TfLNAaI1dqABDSx6A9NZurf7Djvi6QOEa+xAAxpY9AYOc+thZ/iKyvofXmMHGljcBl7v1sPOmv5mcdoAERs70IAGFq2BM5Ls6vbDHXHnJGcNELOxAw1oYFEa+GCSO7n1sFo34TMGiNrYgQY0MHoDp7v5stqml1LeMEDcxg40oIGR/+br40asmUN8Z3T5D7mxAw2M1cCNSZ7pvsN62CfJ2QNEb+xAAxoY4Us2fM6XdTW9zHL4/P2m1T8Axg40oIGKJxu92DudqX6Aw4lzjA5BO9CABpa9gevnpxp5sALDmJ5xeUySSwf4ATF2oAENrHYDlyR5aZK7Vx+2sC0Pm98N+OkkGxwEbgYa0MACNvCDJBcleV2SAx35LKL7JHlqkuOSvCPJ+Ukun1/GuWWAHzJjBxro28At81l0+Xw2nT6fVYfMZxcAAAAAAAAAAAAAAAAAAAAAAAAAAAAAAAAAAAAAAAAAAAAAAAAAAAAAAAAAAAAAAAAAAAAAAAAAAAAAAAAAAAAAAAAAAAAAAAAAAAAAAAAAAAAAAAAAAAAAAGTR/S9h7ld+vqadlQAAAABJRU5ErkJggg==;" vertex="1" parent="1">
          <mxGeometry x="54" y="352.5" width="20" height="20" as="geometry" />
        </mxCell>
        <mxCell id="GZDZzl4D8xDUIA5lt34K-17" value="" style="endArrow=classic;html=1;rounded=0;" edge="1" parent="1">
          <mxGeometry width="50" height="50" relative="1" as="geometry">
            <mxPoint x="189" y="362.38" as="sourcePoint" />
            <mxPoint x="219" y="362.38" as="targetPoint" />
          </mxGeometry>
        </mxCell>
        <mxCell id="GZDZzl4D8xDUIA5lt34K-18" value="&lt;div&gt;Library&amp;nbsp;&lt;/div&gt;&lt;div&gt;(not done writting)&lt;/div&gt;" style="rounded=1;whiteSpace=wrap;html=1;align=center;" vertex="1" parent="1">
          <mxGeometry x="645" y="125" width="102" height="40" as="geometry" />
        </mxCell>
        <mxCell id="GZDZzl4D8xDUIA5lt34K-19" value="" style="shape=image;imageAspect=0;aspect=fixed;verticalLabelPosition=bottom;verticalAlign=top;image=data:image/png,iVBORw0KGgoAAAANSUhEUgAAAeAAAAHgCAYAAAB91L6VAAAACXBIWXMAAAsTAAALEwEAmpwYAAAZnElEQVR4nO3de7CtdV3H8Q8Xb6QmJjrNNKVcQm1SUCkznSwTdRozxMtghpKK0lSi4KjFTSwzHTUcqqkZk1FEZ8wLk2KmTqWAI5cwQCUVJEnlIiLgDcRzmkef3RxP5xzOOey9v7+1vq/XzPefRk2/z3v/Hvbaa60nAQAAAAAAAAAAAAAAAAAAAAAAAAAAAAAAAAAAAAAAAAAAAAAAAAAAAAAAAAAAAAAAAAAAAAAAAAAAAAAAYBncNcmDkjwpyYuSnJDklCSnJ/lQkvOTXD7PN+b5VpKNSW5K8pkk/5LkVUkekWSX6v9BADCSvZI8LslLk7w1yblJvjrfSFdzvpbkk0n+KclpSd6Q5E+SPDfJryd5QJLdq5cBAGvh7vPN9oT5t9i1uNHekfl+kiuT/GuSv07ywiSPTnIvOQCwaDfcp8wvHV8w3+A2Luj8d5L3Jjkmya/OL5EDwDAePN+kPprklgFunGs1t8wvl//l/Fv9XaoXD0A/ByR5zfyGqI1N59tJzkpydJL9qy8IAMv9m+7JSS4b4OY34lyS5KQkv1h9oQBYfHskeU6Scwa4wS3SXDb/w8q+1RcQgMXykCSnJrlhgJvZIs+GJP8+f/RpeoMaAPw/0xdXPCHJRwa4cS3j3Jzk771EDcCKOyc5PMnFA9ykuszZSZ6eZDcZAvS88R6V5KoBbkhd54tJ/sBHmgB62HX+7esLA9yAzI92cE2Sl89vegNgCf/G+8wkn3fjG/bGf3WSY92IAZbHw5J8fIAbjNm+HfxPkiP9jRhgcf3U/L3Mt7n5LeTN/7PznwsAWKC/8/5RkhsHuImYO76Df06yX3VUAGzbfvPj9dz4lmsHtyZ5racyAYz5saITl/yJROZH716fvjAFgAFMDwDwRRq9btCnJblXdXgAnT9adOT8aLzqG4JZ/x18LcmTqyME6Oan5zfnuPH13sH0wIe/S3KP6iABOjg4ybUDHP5mnB38V5IDqsMEWOaXnKevLPS53vob3ojzvSQvro4UYNlMLzH+4wCHvBl/B+9Nsmd1sADLYP8klw1wsJvF2cFlczcA7KRHJblugAPdLN4ObvIuaYCdM30P8HcHOMjN4u7gtvl9AwBsp+Pmj5hUH+BmOXbwliS7++kD2PaDFP52gAPbLN8OPuBZwwBbtluStw5wUJvl3cF5SfbyAwjw4w9TePcAB7Tp8Q7pn/PDB5DcdX55sPpgHmFuTvKfSc5MckqSo5M8a34C0MPnG8ee8+yxSTx7bPJ/n/41j5j/PdO/9yXzf9aZ83/2zQP876yeK5Ps7YcP6P6bb9eb79VJ3pfk+CS/M98Qpm/7WmvT/499khyS5IQk709yzQD7WO/58rwHgJZ/8+30svNX5nfjHp5k34xnv/m/2/R3+K8OsK/1mKvm/90Ard7t/LYBDuC1nOljVJ+cP4f60HX67Xa17DI/3OAVST615B8Jm/7ByMvRQBvL/FGj85Mcu2Rv9Ll/kpcluXCA/a7FfHF+xCXAUjt+gAN3teeb83NpD8zye1CS1yb5+gB7X825JMm9q5cLsFZ+d8lezrw4yRHzO7m7uVuS359vXBuXZM72ZR3AMvq1+ZmtG5dgPpzk4AX7u+5amXbwxCQfGeC6rMacOb9HAWApTI+Gu35JbryPrF7m4E+v+ugA1+mOzuurFwmwGu65BM/z/USSx8hhh17tOGeA63ZH5nmuN7DoL0++e8E/Jzp9NtZLzTvnyUm+NMB13Jm5NclvrPLPA8C6eeUAB+nOzHfnRyJ2fHPVapu+JvOkBf37//RO75+tXiDAjnrc/ED0jQv4cvMDXe5VN33718cGuL47OtMXkdxFD8CimL7U4NoBDs8dmZuSHOnl5jU1vZR/1AI+EOLNa7sWgNU7ZD84wKG5o7/l+E7g9f1mrbMHuO47Ms9ex/0A7JSjBzgst3dum/8+ubtrve7ulOTVC/RniukVEt8ZDQzrF5J8Z4DDcnvfYPP46oWRxy7Q4xDPmZ/iBTDcs30vHuCQ3J45z7tbhzI9uOKCAbrYnpne2Q8wlJMGOBy3Z073rtYhTR/5eucAfdze3NLkoRvAgnjwfDBtHHymvzn6Uo1xTdfmNQN0cntz6fyKD0Cp6Yvrzx3gUNzWfH9+ahGL4fkL8Oas6bGaAKX+eIDDcFsz/WZ+qEYW8mssR/72rOm/my9sAcrcb34Y/ciH5G/rY2E9afB31f+bP2kAVd4ywCG4tZkObl+mvxxfaTryTXh6WAfAupreCfqDAQ7Arb3s/Ft6WBoHD/xy9DXzIzcB1s3HBzj8tjTTm3eeoYOlc8j8ZrqNA86fVy8H6OOZAxx6Wxvvdl5eLxigry3N9BK5xxYCa276Kr7LBjj0tjQnu/5L7y8G6GxL847qxQDL74gBDrutfcOVL9lYftM1ftcAvW0+G5IcVL0cYLmfYHP5AIfd5vMfSe5WvRzW9Wsrzx+gu83nAxoA1spRAxxym8/1SR7gkrcz/c31ugH623x+uXoxwPKZvvv2qgEOuM3f8Tx9TpSenjDgR+HOql4KsHyeO8DhtvlMT2Citz8boMPNx2/BwKq+8eWSAQ62TeeTSXZ3jdub3pfwqQF63HTObH9VgFX9Tt6NA823kuzn+jLbJ8lNA3S56TuiPagBWBUfGeBQ23SOdF3ZzIsG6HLTOdUVAu6ohwxwmG06nkDD1p5L/YkB+tz0VZo9XSrgjjh1gMNsZb6b5OddTrbigYM9tOEVrhSws/ZIcsMAB9nKHOdScjtOGqDTlfnS/Js5wEJ/9OjL8z8QwLZM34h25QC9rozPqQM75ZwBDrCVebpryHY6bIBeV+YMVw3YUQ8e4PBamenNNR60wPaaWjl3gG5X3rdwb5cO2BEnD3B4rcxjXDp20GMH6HZl/tDVA3bE5wY4uKb5sMvGTvrYAP1unH8bB9guBw5waK3MI10zdtKjBuh35Zuxpqc3Adyu1wxwaE3jt1+W5bfgo11KYHt8cYADa5qDXS6W5HvMp08UACzEu58v9s5nVukd0ZcO8jL0z7iiwLYcM8BhtXH+EhBYDc8boOdpXuhyAtvy0QEOqunrL33rFav57VgjfKXqe1xSYGt+YpAvs3+zS8Qq+5sBur4xyZ1cWWBLnjLAITXNAS4PS/pYzUe7ssCWnDLAAXW+S8MauWiAvl/t6gJbcuEAB9SxLg1r5JUD9H22qwts7u5Jvj/ARzXu79KwRvaeG6tsfHqPxV1cYWBTvznAbwe+M5e1dv4Anf+Kywxs6oQBDqaXuySssT8doPPps/YA/+dDAxxMD3U9WGMPH6BznwcGfsxXiw+lr/jqSdbBrkmuLm79KlcaWLHXAL8V/IPLwTp52wC97+lqA6O8Aev3XArWyRED9P4YVxsY5QEM+7gUrJP9B+j9KFcbmJxWfBhd4zKwzo8ovLa4+em7qQF++PnbysPofa4B6+zM4uY/7ooDk68VH0bHuwyss5OKm/dOaOCHz0qt/nq+6SlMsJ4OLW7+B76SEnhQ8UE0zQNcBtbZfgN0v6+rDr09qfgQutkXcFBgtyTfKW5/+vgf0NiLig+hT1cvgLYuLW7/+dULAGqdWHwIvV8AFPlAcfvefAjNvbn4EPqr6gXQ1qnaByq9o/gQeonLT9NvgHu7Kw+9fbj4EDqsegG09ezi9s+qXgBQ68LiQ+jxAqDIE4vb/5QrD719ofgQmh6QDhUOKm7/8y479Pbl4kPo/tULoK29i9uffvaAxq4pPoT2ql4Abd2vuP2rqxcA1Ppm8SH0kwKgyJ7F7d/gykNv1V/HNz0MAirsUdz+t1126O224kNo+k5eqLBbcfvTzx7Q2MbiAf0DLbkB05n+gTIOIDrTP1DGAURn+gfKOIDoTP9AGQcQnekfKOMAojP9A2UcQHSmf6CMA4jO9A+UcQDRmf6BMg4gOtM/UMYBRGf6B8o4gOhM/0AZBxCd6R8o4wCiM/0DZRxAdKZ/oIwDiM70D5RxANGZ/oEyDiA60z9QxgFEZ/oHyjiA6Ez/QBkHEJ3pHyjjAKIz/QNlHEB0pn+gjAOIzvQPlHEA0Zn+gTIOIDrTP1DGAURn+gfKOIDoTP9AGQcQnekfKOMAojP9A2UcQHSmf1hi903ytCQnJnlnkguTXJHkG0luHeAAMHaggb4N3DqfRVfMZ9MZSU5Icuh8dsHCOSjJG5NcmmTDAD9kxg40oIEdbWA6uy6Zz7JHVB+qsC33TPKyJJ/1g+6w14AGlrCB6Ww7Nsk93AoYxb2TnDy/jFP9A2LsQAMaWOsGprPuVUn2rD586WuXJIcnudYPvENfAxpoeiN+cZJdqw9jetkvybkD/AAYO9CABqobOCfJvtWHMj08NckNfujLf+iNHWhgnAZuSnJY9eHM8ppeZjllgNCNHWhAA6M2ML1j2kvSrKo7z5/hrY7b2IEGNDB6A+9Jclf3IFbr5vuhAaI2dqABDSxKA2fNZyfstOmllHcNELOxAw1oYNEamF419HI0O83ffOt/iI0daGBxG3iD+w874xkDxGvsQAMaWPQGnuUWxI6YPtN24wDhGjvQgAYWvYGbk+zvFsT2mP5m4Us26n9ojR1oYHkaOHv+9kDYphcMEKuxAw1oYNkaOMK9h9t7sMLXBwjV2IEGNLBsDUzfm+8BDmzVyQNEauxAAxpY1gZOdP9ha8/z9UjB+h9QYwcaWN4Grvc8YbbkZQPEaexAAxpY9gaOcQtic58bIExjBxrQwLI38Bm3Hzb1SwNEaexAAxro0sCBbkGseNMAQRo70IAGujTwercfVlw6QJDGDjSggS4NXOT2w+S+STYMEKSxAw1ooEsDG5Ls5RbE0waI0diBBjTQrYGnuv1w0gAhGjvQgAa6NXC82w/vHCBEYwca0EC3Bk53++GCAUI0dqABDXRr4Dy3H64cIERjBxrQQLcGrnD74foBQjR2oAENdGvgOrcfbhkgRGMHGtBAtwa+5/ZDdYTGDjSgga4N0Fx1gMYONKCBrg3QXHWAxg40oIGuDdBcdYDGDjSgga4N0Fx1gMYONKCBrg3QXHWAxg40oIGuDdBcdYDGDjSgga4N0Fx1gMYONKCBrg3QXHWAxg40oIGuDdBcdYDGDjSgga4N0Fx1gMYONKCBrg3QXHWAxg40oIGuDdBcdYDGDjSgga4N0Fx1gMYONKCBrg3QXHWAxg40oIGuDdBcdYDGDjSgga4N0Fx1gMYONKCBrg3QXHWAxg40oIGuDdBcdYDGDjSgga4N0Fx1gMYONKCBrg3QXHWAxg40oIGuDdBcdYDGDjSgga4N0Fx1gMYONKCBrg3QXHWAxg40oIGuDdBcdYDGDjSgga4N0Fx1gMYONKCBrg3QXHWAxg40oIGuDdBcdYDGDjSgga4N0Fx1gMYONKCBrg3QXHWAxg40oIGuDdBcdYDGDjSgga4N0Fx1gMYONKCBrg3QXHWAxg40oIGuDdBcdYDGDjSgga4N0Fx1gMYONKCBrg3QXHWAxg40oIGuDdBcdYDGDjSgga4N0Fx1gMYONKCBrg3QXHWAxg40oIGuDdBcdYDGDjSgga4N0Fx1gMYONKCBrg3QXHWAxg40oIGuDdBcdYDGDjSgga4N0Fx1gMYONKCBrg3QXHWAxg40oIGuDdBcdYDGDjSgga4N0Fx1gMYONKCBrg3QXHWAxg40oIGuDdBcdYDGDjSgga4N0Fx1gMYONKCBrg3QXHWAxg40oIGuDdBcdYDGDjSgga4N0Fx1gMYONKCBrg3QXHWAxg40oIGuDdBcdYDGDjSgga4N0Fx1gMYONKCBrg3QXHWAxg40oIGuDdBcdYDGDjSgga4N0Fx1gMYONKCBrg3QXHWAxg40oIGuDdBcdYDGDjSgga4N0Fx1gMYONKCBrg3QXHWAxg40oIGuDdBcdYDGDjSgga4N0Fx1gMYONKCBrg3QXHWAxg40oIGuDdBcdYDGDjSgga4N0Fx1gMYONKCBrg3QXHWAxg40oIGuDdBcdYDGDjSgga4N0Fx1gMYONKCBrg3QXHWAxg40oIGuDdBcdYDGDjSgga4N0Fx1gMYONKCBrg3QXHWAxg40oIGuDdBcdYDGDjSgga4N0Fx1gMYONKCBrg3QXHWAxg40oIGuDdBcdYDGDjSgga4N0Fx1gMYONKCBrg3QXHWAxg40oIGuDdBcdYDGDjSgga4N0Fx1gMYONKCBrg3QXHWAxg40oIGuDdBcdYDGDjSgga4N0Fx1gMYONKCBrg3QXHWAxg40oIGuDdBcdYDGDjSgga4N0Fx1gMYONKCBrg3QXHWAxg40oIGuDdBcdYDGDjSgga4N0Fx1gMYONKCBrg3QXHWAxg40oIGuDdBcdYDGDjSgga4N0Fx1gMYONKCBrg3QXHWAxg40oIGuDdBcdYDGDjSgga4N0Fx1gMYONKCBrg3QXHWAxg40oIGuDdBcdYDGDjSgga4N0Fx1gMYONKCBrg3QXHWAxg40oIGuDdBcdYDGDjSgga4N0Fx1gMYONKCBrg3QXHWAxg40oIGuDdBcdYDGDjSgga4N0Fx1gMYONKCBrg3QXHWAxg40oIGuDdBcdYDGDjSgga4N0Fx1gMYONKCBrg3QXHWAxg40oIGuDdBcdYDGDjSgga4N0Fx1gMYONKCBrg3QXHWAxg40oIGuDdBcdYDGDjSgga4N0Fx1gMYONKCBrg3QXHWAxg40oIGuDdBcdYDGDjSgga4N0Fx1gMYONKCBrg3QXHWAxg40oIGuDdBcdYDGDjSgga4N0Fx1gMYONKCBrg3QXHWAxg40oIGuDdBcdYDGDjSgga4N0Fx1gMYONKCBrg3QXHWAxg40oIGuDdBcdYDGDjSgga4N0Fx1gMYONKCBrg3QXHWAxg40oIGuDdBcdYDGDjSgga4N0Fx1gMYONKCBrg3QXHWAxg40oIGuDdBcdYDGDjSgga4N0Fx1gMYONKCBrg3QXHWAxg40oIGuDdBcdYDGDjSgga4N0Fx1gMYONKCBrg3QXHWAxg40oIGuDdBcdYDGDjSgga4N0Fx1gMYONKCBrg3QXHWAxg40oIGuDdBcdYDGDjSgga4N0Fx1gMYONKCBrg3QXHWAxg40oIGuDdBcdYDGDjSgga4N0Fx1gMYONKCBrg3QXHWAxg40oIGuDdBcdYDGDjSgga4N0Fx1gMYONKCBrg3QXHWAxg40oIGuDdBcdYDGDjSgga4N0Fx1gMYONKCBrg3QXHWAxg40oIGuDdBcdYDGDjSgga4N0Fx1gMYONKCBrg3QXHWAxg40oIGuDdBcdYDGDjSgga4N0Fx1gMYONKCBrg3QXHWAxg40oIGuDdBcdYDGDjSgga4N0Fx1gMYONKCBrg3QXHWAxg40oIGuDdBcdYDGDjSgga4N0Fx1gMYONKCBrg3QXHWAxg40oIGuDdBcdYDGDjSgga4N0Fx1gMYONKCBrg3QXHWAxg40oIGuDdBcdYDGDjSgga4N0Fx1gMYONKCBrg3QXHWAxg40oIGuDdBcdYDGDjSgga4N0Fx1gMYONKCBrg3QXHWAxg40oIGuDdBcdYDGDjSgga4N0Fx1gMYONKCBrg3QXHWAxg40oIGuDdBcdYDGDjSgga4N0Fx1gMYONKCBrg3QXHWAxg40oIGuDdBcdYDGDjSgga4N0Fx1gMYONKCBrg3QXHWAxg40oIGuDdBcdYDGDjSgga4N0Fx1gMYONKCBrg3QXHWAxg40oIGuDdBcdYDGDjSgga4N0Fx1gMYONKCBrg3QXHWAxg40oIGuDdBcdYDGDjSgga4N0Fx1gMYONKCBrg3QXHWAxg40oIGuDdDcLQNEaOxAAxro1sD3qg9/6l0/QIjGDjSggW4NXFd9+FPvygFCNHagAQ10a+CK6sOfehcMEKKxAw1ooFsD51Uf/tQ7Y4AQjR1oQAPdGnh79eFPvRMHCNHYgQY00K2B46oPf+odOkCIxg40oIFuDRxSffhT775JNgwQo7EDDWigSwMbktyn+vBnDJcMEKSxAw1ooEsDF1Uf+ozjjQMEaexAAxro0sDrqg99xnHQAEEaO9CABro0cED1oc9YvAxd/0Np7EADy9/AZ6oPe8Zz7ABhGjvQgAaWvYGXVh/2jOeeSb4xQJzGDjSggWVtYPru/XtUH/aM6VUDBGrsQAMaWNYGTqg+5BnXnvMTOqojNXagAQ0sWwPXJLlX9SHP2J43QKjGDjSggWVr4DnVhzvj2yXJOQPEauxAAxpYlgY+MZ+tcLv2TfLNAaI1dqABDSx6A9NZurf7Djvi6QOEa+xAAxpY9AYOc+thZ/iKyvofXmMHGljcBl7v1sPOmv5mcdoAERs70IAGFq2BM5Ls6vbDHXHnJGcNELOxAw1oYFEa+GCSO7n1sFo34TMGiNrYgQY0MHoDp7v5stqml1LeMEDcxg40oIGR/+br40asmUN8Z3T5D7mxAw2M1cCNSZ7pvsN62CfJ2QNEb+xAAxoY4Us2fM6XdTW9zHL4/P2m1T8Axg40oIGKJxu92DudqX6Aw4lzjA5BO9CABpa9gevnpxp5sALDmJ5xeUySSwf4ATF2oAENrHYDlyR5aZK7Vx+2sC0Pm98N+OkkGxwEbgYa0MACNvCDJBcleV2SAx35LKL7JHlqkuOSvCPJ+Ukun1/GuWWAHzJjBxro28At81l0+Xw2nT6fVYfMZxcAAAAAAAAAAAAAAAAAAAAAAAAAAAAAAAAAAAAAAAAAAAAAAAAAAAAAAAAAAAAAAAAAAAAAAAAAAAAAAAAAAAAAAAAAAAAAAAAAAAAAAAAAAAAAAAAAAAAAAGTR/S9h7ld+vqadlQAAAABJRU5ErkJggg==;" vertex="1" parent="1">
          <mxGeometry x="757" y="135" width="20" height="20" as="geometry" />
        </mxCell>
        <mxCell id="GZDZzl4D8xDUIA5lt34K-20" value="" style="endArrow=classic;html=1;rounded=0;" edge="1" parent="1">
          <mxGeometry width="50" height="50" relative="1" as="geometry">
            <mxPoint x="630" y="144.84000000000003" as="sourcePoint" />
            <mxPoint x="600" y="144.84000000000003" as="targetPoint" />
          </mxGeometry>
        </mxCell>
        <mxCell id="GZDZzl4D8xDUIA5lt34K-21" value="Compressing chunk" style="text;html=1;align=center;verticalAlign=middle;whiteSpace=wrap;rounded=0;" vertex="1" parent="1">
          <mxGeometry x="99" y="385" width="60" height="30" as="geometry" />
        </mxCell>
        <mxCell id="GZDZzl4D8xDUIA5lt34K-22" value="&lt;div&gt;Reading compressed bytes&lt;/div&gt;" style="text;html=1;align=center;verticalAlign=middle;whiteSpace=wrap;rounded=0;" vertex="1" parent="1">
          <mxGeometry x="600" y="175" width="105" height="30" as="geometry" />
        </mxCell>
        <mxCell id="GZDZzl4D8xDUIA5lt34K-23" value="&lt;font face=&quot;Courier New&quot;&gt;RAW&lt;/font&gt;" style="rounded=0;whiteSpace=wrap;html=1;strokeColor=none;" vertex="1" parent="1">
          <mxGeometry x="244" y="150" width="50" height="30" as="geometry" />
        </mxCell>
        <mxCell id="jH_-Xpj8JNCHvDMG5tOc-2" value="&lt;div&gt;Writing&lt;/div&gt;&lt;div&gt;raw bytes&lt;br&gt;&lt;/div&gt;" style="text;html=1;align=center;verticalAlign=middle;whiteSpace=wrap;rounded=0;" vertex="1" parent="1">
          <mxGeometry x="697" y="175" width="105" height="30" as="geometry" />
        </mxCell>
        <mxCell id="s4q91J8qo0bawT3tdvDm-1" value="" style="verticalLabelPosition=bottom;verticalAlign=top;html=1;shape=mxgraph.basic.partConcEllipse;startAngle=0.9057122582784672;endAngle=0.1;arcWidth=0.5;fillStyle=hatch;fillColor=#000000;" vertex="1" parent="1">
          <mxGeometry x="204" y="530" width="390" height="390" as="geometry" />
        </mxCell>
        <mxCell id="s4q91J8qo0bawT3tdvDm-2" value="" style="verticalLabelPosition=bottom;verticalAlign=top;html=1;shape=mxgraph.basic.partConcEllipse;startAngle=0.1124311986865717;endAngle=0.25;arcWidth=0.5;fillStyle=hatch;fillColor=#000000;" vertex="1" parent="1">
          <mxGeometry x="204" y="530" width="390" height="390" as="geometry" />
        </mxCell>
        <mxCell id="s4q91J8qo0bawT3tdvDm-3" value="" style="verticalLabelPosition=bottom;verticalAlign=top;html=1;shape=mxgraph.basic.partConcEllipse;startAngle=0.7536580900160924;endAngle=0.8951859844605881;arcWidth=0.5;fillStyle=hatch;fillColor=#000000;" vertex="1" parent="1">
          <mxGeometry x="204" y="530" width="390" height="390" as="geometry" />
        </mxCell>
        <mxCell id="s4q91J8qo0bawT3tdvDm-4" value="" style="verticalLabelPosition=bottom;verticalAlign=top;html=1;shape=mxgraph.basic.partConcEllipse;startAngle=0.9057122582784672;endAngle=0.1;arcWidth=0.5;direction=west;fillStyle=hatch;fillColor=#000000;" vertex="1" parent="1">
          <mxGeometry x="204" y="540" width="390" height="390" as="geometry" />
        </mxCell>
        <mxCell id="s4q91J8qo0bawT3tdvDm-5" value="" style="verticalLabelPosition=bottom;verticalAlign=top;html=1;shape=mxgraph.basic.partConcEllipse;startAngle=0.1124311986865717;endAngle=0.25;arcWidth=0.5;direction=west;fillColor=#000000;fillStyle=hatch;" vertex="1" parent="1">
          <mxGeometry x="204" y="540" width="390" height="390" as="geometry" />
        </mxCell>
        <mxCell id="s4q91J8qo0bawT3tdvDm-6" value="" style="verticalLabelPosition=bottom;verticalAlign=top;html=1;shape=mxgraph.basic.partConcEllipse;startAngle=0.7536580900160924;endAngle=0.8951859844605881;arcWidth=0.5;direction=west;fillStyle=hatch;fillColor=#000000;" vertex="1" parent="1">
          <mxGeometry x="204" y="540" width="390" height="390" as="geometry" />
        </mxCell>
        <mxCell id="s4q91J8qo0bawT3tdvDm-7" value="&lt;font face=&quot;Courier New&quot;&gt;COMP&lt;/font&gt;" style="rounded=0;whiteSpace=wrap;html=1;strokeColor=none;" vertex="1" parent="1">
          <mxGeometry x="374" y="860" width="55" height="30" as="geometry" />
        </mxCell>
        <mxCell id="s4q91J8qo0bawT3tdvDm-8" value="&lt;font face=&quot;Courier New&quot;&gt;COMP&lt;/font&gt;" style="rounded=0;whiteSpace=wrap;html=1;strokeColor=none;" vertex="1" parent="1">
          <mxGeometry x="244" y="780" width="50" height="30" as="geometry" />
        </mxCell>
        <mxCell id="s4q91J8qo0bawT3tdvDm-9" value="&lt;font face=&quot;Courier New&quot;&gt;COMP&lt;/font&gt;" style="rounded=0;whiteSpace=wrap;html=1;strokeColor=none;" vertex="1" parent="1">
          <mxGeometry x="504" y="790" width="55" height="30" as="geometry" />
        </mxCell>
        <mxCell id="s4q91J8qo0bawT3tdvDm-10" value="&lt;font face=&quot;Courier New&quot;&gt;COMP&lt;/font&gt;" style="rounded=0;whiteSpace=wrap;html=1;strokeColor=none;" vertex="1" parent="1">
          <mxGeometry x="504" y="650" width="55" height="30" as="geometry" />
        </mxCell>
        <mxCell id="s4q91J8qo0bawT3tdvDm-11" value="&lt;font face=&quot;Courier New&quot;&gt;COMP&lt;/font&gt;" style="rounded=0;whiteSpace=wrap;html=1;strokeColor=none;" vertex="1" parent="1">
          <mxGeometry x="371.5" y="570" width="55" height="30" as="geometry" />
        </mxCell>
        <mxCell id="s4q91J8qo0bawT3tdvDm-12" value="" style="html=1;shadow=0;dashed=0;align=center;verticalAlign=middle;shape=mxgraph.arrows2.uTurnArrow;dy=0.67;arrowHead=7.67;dx2=7.14;fillColor=#000000;rotation=90;" vertex="1" parent="1">
          <mxGeometry x="387.13" y="680" width="28.75" height="65" as="geometry" />
        </mxCell>
        <mxCell id="s4q91J8qo0bawT3tdvDm-13" value="&lt;div align=&quot;center&quot;&gt;&lt;font face=&quot;Courier New&quot;&gt;Service&lt;/font&gt;&lt;/div&gt;" style="rounded=1;whiteSpace=wrap;html=1;align=center;" vertex="1" parent="1">
          <mxGeometry x="646" y="772.5" width="90" height="25" as="geometry" />
        </mxCell>
        <mxCell id="s4q91J8qo0bawT3tdvDm-16" value="&lt;div&gt;Library&amp;nbsp;&lt;/div&gt;&lt;div&gt;(not done writting)&lt;/div&gt;" style="rounded=1;whiteSpace=wrap;html=1;align=center;" vertex="1" parent="1">
          <mxGeometry x="625" y="850" width="102" height="40" as="geometry" />
        </mxCell>
        <mxCell id="s4q91J8qo0bawT3tdvDm-17" value="" style="shape=image;imageAspect=0;aspect=fixed;verticalLabelPosition=bottom;verticalAlign=top;image=data:image/png,iVBORw0KGgoAAAANSUhEUgAAAeAAAAHgCAYAAAB91L6VAAAACXBIWXMAAAsTAAALEwEAmpwYAAAZnElEQVR4nO3de7CtdV3H8Q8Xb6QmJjrNNKVcQm1SUCkznSwTdRozxMtghpKK0lSi4KjFTSwzHTUcqqkZk1FEZ8wLk2KmTqWAI5cwQCUVJEnlIiLgDcRzmkef3RxP5xzOOey9v7+1vq/XzPefRk2/z3v/Hvbaa60nAQAAAAAAAAAAAAAAAAAAAAAAAAAAAAAAAAAAAAAAAAAAAAAAAAAAAAAAAAAAAAAAAAAAAAAAAAAAAAAAYBncNcmDkjwpyYuSnJDklCSnJ/lQkvOTXD7PN+b5VpKNSW5K8pkk/5LkVUkekWSX6v9BADCSvZI8LslLk7w1yblJvjrfSFdzvpbkk0n+KclpSd6Q5E+SPDfJryd5QJLdq5cBAGvh7vPN9oT5t9i1uNHekfl+kiuT/GuSv07ywiSPTnIvOQCwaDfcp8wvHV8w3+A2Luj8d5L3Jjkmya/OL5EDwDAePN+kPprklgFunGs1t8wvl//l/Fv9XaoXD0A/ByR5zfyGqI1N59tJzkpydJL9qy8IAMv9m+7JSS4b4OY34lyS5KQkv1h9oQBYfHskeU6Scwa4wS3SXDb/w8q+1RcQgMXykCSnJrlhgJvZIs+GJP8+f/RpeoMaAPw/0xdXPCHJRwa4cS3j3Jzk771EDcCKOyc5PMnFA9ykuszZSZ6eZDcZAvS88R6V5KoBbkhd54tJ/sBHmgB62HX+7esLA9yAzI92cE2Sl89vegNgCf/G+8wkn3fjG/bGf3WSY92IAZbHw5J8fIAbjNm+HfxPkiP9jRhgcf3U/L3Mt7n5LeTN/7PznwsAWKC/8/5RkhsHuImYO76Df06yX3VUAGzbfvPj9dz4lmsHtyZ5racyAYz5saITl/yJROZH716fvjAFgAFMDwDwRRq9btCnJblXdXgAnT9adOT8aLzqG4JZ/x18LcmTqyME6Oan5zfnuPH13sH0wIe/S3KP6iABOjg4ybUDHP5mnB38V5IDqsMEWOaXnKevLPS53vob3ojzvSQvro4UYNlMLzH+4wCHvBl/B+9Nsmd1sADLYP8klw1wsJvF2cFlczcA7KRHJblugAPdLN4ObvIuaYCdM30P8HcHOMjN4u7gtvl9AwBsp+Pmj5hUH+BmOXbwliS7++kD2PaDFP52gAPbLN8OPuBZwwBbtluStw5wUJvl3cF5SfbyAwjw4w9TePcAB7Tp8Q7pn/PDB5DcdX55sPpgHmFuTvKfSc5MckqSo5M8a34C0MPnG8ee8+yxSTx7bPJ/n/41j5j/PdO/9yXzf9aZ83/2zQP876yeK5Ps7YcP6P6bb9eb79VJ3pfk+CS/M98Qpm/7WmvT/499khyS5IQk709yzQD7WO/58rwHgJZ/8+30svNX5nfjHp5k34xnv/m/2/R3+K8OsK/1mKvm/90Ard7t/LYBDuC1nOljVJ+cP4f60HX67Xa17DI/3OAVST615B8Jm/7ByMvRQBvL/FGj85Mcu2Rv9Ll/kpcluXCA/a7FfHF+xCXAUjt+gAN3teeb83NpD8zye1CS1yb5+gB7X825JMm9q5cLsFZ+d8lezrw4yRHzO7m7uVuS359vXBuXZM72ZR3AMvq1+ZmtG5dgPpzk4AX7u+5amXbwxCQfGeC6rMacOb9HAWApTI+Gu35JbryPrF7m4E+v+ugA1+mOzuurFwmwGu65BM/z/USSx8hhh17tOGeA63ZH5nmuN7DoL0++e8E/Jzp9NtZLzTvnyUm+NMB13Jm5NclvrPLPA8C6eeUAB+nOzHfnRyJ2fHPVapu+JvOkBf37//RO75+tXiDAjnrc/ED0jQv4cvMDXe5VN33718cGuL47OtMXkdxFD8CimL7U4NoBDs8dmZuSHOnl5jU1vZR/1AI+EOLNa7sWgNU7ZD84wKG5o7/l+E7g9f1mrbMHuO47Ms9ex/0A7JSjBzgst3dum/8+ubtrve7ulOTVC/RniukVEt8ZDQzrF5J8Z4DDcnvfYPP46oWRxy7Q4xDPmZ/iBTDcs30vHuCQ3J45z7tbhzI9uOKCAbrYnpne2Q8wlJMGOBy3Z073rtYhTR/5eucAfdze3NLkoRvAgnjwfDBtHHymvzn6Uo1xTdfmNQN0cntz6fyKD0Cp6Yvrzx3gUNzWfH9+ahGL4fkL8Oas6bGaAKX+eIDDcFsz/WZ+qEYW8mssR/72rOm/my9sAcrcb34Y/ciH5G/rY2E9afB31f+bP2kAVd4ywCG4tZkObl+mvxxfaTryTXh6WAfAupreCfqDAQ7Arb3s/Ft6WBoHD/xy9DXzIzcB1s3HBzj8tjTTm3eeoYOlc8j8ZrqNA86fVy8H6OOZAxx6Wxvvdl5eLxigry3N9BK5xxYCa276Kr7LBjj0tjQnu/5L7y8G6GxL847qxQDL74gBDrutfcOVL9lYftM1ftcAvW0+G5IcVL0cYLmfYHP5AIfd5vMfSe5WvRzW9Wsrzx+gu83nAxoA1spRAxxym8/1SR7gkrcz/c31ugH623x+uXoxwPKZvvv2qgEOuM3f8Tx9TpSenjDgR+HOql4KsHyeO8DhtvlMT2Citz8boMPNx2/BwKq+8eWSAQ62TeeTSXZ3jdub3pfwqQF63HTObH9VgFX9Tt6NA823kuzn+jLbJ8lNA3S56TuiPagBWBUfGeBQ23SOdF3ZzIsG6HLTOdUVAu6ohwxwmG06nkDD1p5L/YkB+tz0VZo9XSrgjjh1gMNsZb6b5OddTrbigYM9tOEVrhSws/ZIcsMAB9nKHOdScjtOGqDTlfnS/Js5wEJ/9OjL8z8QwLZM34h25QC9rozPqQM75ZwBDrCVebpryHY6bIBeV+YMVw3YUQ8e4PBamenNNR60wPaaWjl3gG5X3rdwb5cO2BEnD3B4rcxjXDp20GMH6HZl/tDVA3bE5wY4uKb5sMvGTvrYAP1unH8bB9guBw5waK3MI10zdtKjBuh35Zuxpqc3Adyu1wxwaE3jt1+W5bfgo11KYHt8cYADa5qDXS6W5HvMp08UACzEu58v9s5nVukd0ZcO8jL0z7iiwLYcM8BhtXH+EhBYDc8boOdpXuhyAtvy0QEOqunrL33rFav57VgjfKXqe1xSYGt+YpAvs3+zS8Qq+5sBur4xyZ1cWWBLnjLAITXNAS4PS/pYzUe7ssCWnDLAAXW+S8MauWiAvl/t6gJbcuEAB9SxLg1r5JUD9H22qwts7u5Jvj/ARzXu79KwRvaeG6tsfHqPxV1cYWBTvznAbwe+M5e1dv4Anf+Kywxs6oQBDqaXuySssT8doPPps/YA/+dDAxxMD3U9WGMPH6BznwcGfsxXiw+lr/jqSdbBrkmuLm79KlcaWLHXAL8V/IPLwTp52wC97+lqA6O8Aev3XArWyRED9P4YVxsY5QEM+7gUrJP9B+j9KFcbmJxWfBhd4zKwzo8ovLa4+em7qQF++PnbysPofa4B6+zM4uY/7ooDk68VH0bHuwyss5OKm/dOaOCHz0qt/nq+6SlMsJ4OLW7+B76SEnhQ8UE0zQNcBtbZfgN0v6+rDr09qfgQutkXcFBgtyTfKW5/+vgf0NiLig+hT1cvgLYuLW7/+dULAGqdWHwIvV8AFPlAcfvefAjNvbn4EPqr6gXQ1qnaByq9o/gQeonLT9NvgHu7Kw+9fbj4EDqsegG09ezi9s+qXgBQ68LiQ+jxAqDIE4vb/5QrD719ofgQmh6QDhUOKm7/8y479Pbl4kPo/tULoK29i9uffvaAxq4pPoT2ql4Abd2vuP2rqxcA1Ppm8SH0kwKgyJ7F7d/gykNv1V/HNz0MAirsUdz+t1126O224kNo+k5eqLBbcfvTzx7Q2MbiAf0DLbkB05n+gTIOIDrTP1DGAURn+gfKOIDoTP9AGQcQnekfKOMAojP9A2UcQHSmf6CMA4jO9A+UcQDRmf6BMg4gOtM/UMYBRGf6B8o4gOhM/0AZBxCd6R8o4wCiM/0DZRxAdKZ/oIwDiM70D5RxANGZ/oEyDiA60z9QxgFEZ/oHyjiA6Ez/QBkHEJ3pHyjjAKIz/QNlHEB0pn+gjAOIzvQPlHEA0Zn+gTIOIDrTP1DGAURn+gfKOIDoTP9AGQcQnekfKOMAojP9A2UcQHSmf1hi903ytCQnJnlnkguTXJHkG0luHeAAMHaggb4N3DqfRVfMZ9MZSU5Icuh8dsHCOSjJG5NcmmTDAD9kxg40oIEdbWA6uy6Zz7JHVB+qsC33TPKyJJ/1g+6w14AGlrCB6Ww7Nsk93AoYxb2TnDy/jFP9A2LsQAMaWOsGprPuVUn2rD586WuXJIcnudYPvENfAxpoeiN+cZJdqw9jetkvybkD/AAYO9CABqobOCfJvtWHMj08NckNfujLf+iNHWhgnAZuSnJY9eHM8ppeZjllgNCNHWhAA6M2ML1j2kvSrKo7z5/hrY7b2IEGNDB6A+9Jclf3IFbr5vuhAaI2dqABDSxKA2fNZyfstOmllHcNELOxAw1oYNEamF419HI0O83ffOt/iI0daGBxG3iD+w874xkDxGvsQAMaWPQGnuUWxI6YPtN24wDhGjvQgAYWvYGbk+zvFsT2mP5m4Us26n9ojR1oYHkaOHv+9kDYphcMEKuxAw1oYNkaOMK9h9t7sMLXBwjV2IEGNLBsDUzfm+8BDmzVyQNEauxAAxpY1gZOdP9ha8/z9UjB+h9QYwcaWN4Grvc8YbbkZQPEaexAAxpY9gaOcQtic58bIExjBxrQwLI38Bm3Hzb1SwNEaexAAxro0sCBbkGseNMAQRo70IAGujTwercfVlw6QJDGDjSggS4NXOT2w+S+STYMEKSxAw1ooEsDG5Ls5RbE0waI0diBBjTQrYGnuv1w0gAhGjvQgAa6NXC82w/vHCBEYwca0EC3Bk53++GCAUI0dqABDXRr4Dy3H64cIERjBxrQQLcGrnD74foBQjR2oAENdGvgOrcfbhkgRGMHGtBAtwa+5/ZDdYTGDjSgga4N0Fx1gMYONKCBrg3QXHWAxg40oIGuDdBcdYDGDjSgga4N0Fx1gMYONKCBrg3QXHWAxg40oIGuDdBcdYDGDjSgga4N0Fx1gMYONKCBrg3QXHWAxg40oIGuDdBcdYDGDjSgga4N0Fx1gMYONKCBrg3QXHWAxg40oIGuDdBcdYDGDjSgga4N0Fx1gMYONKCBrg3QXHWAxg40oIGuDdBcdYDGDjSgga4N0Fx1gMYONKCBrg3QXHWAxg40oIGuDdBcdYDGDjSgga4N0Fx1gMYONKCBrg3QXHWAxg40oIGuDdBcdYDGDjSgga4N0Fx1gMYONKCBrg3QXHWAxg40oIGuDdBcdYDGDjSgga4N0Fx1gMYONKCBrg3QXHWAxg40oIGuDdBcdYDGDjSgga4N0Fx1gMYONKCBrg3QXHWAxg40oIGuDdBcdYDGDjSgga4N0Fx1gMYONKCBrg3QXHWAxg40oIGuDdBcdYDGDjSgga4N0Fx1gMYONKCBrg3QXHWAxg40oIGuDdBcdYDGDjSgga4N0Fx1gMYONKCBrg3QXHWAxg40oIGuDdBcdYDGDjSgga4N0Fx1gMYONKCBrg3QXHWAxg40oIGuDdBcdYDGDjSgga4N0Fx1gMYONKCBrg3QXHWAxg40oIGuDdBcdYDGDjSgga4N0Fx1gMYONKCBrg3QXHWAxg40oIGuDdBcdYDGDjSgga4N0Fx1gMYONKCBrg3QXHWAxg40oIGuDdBcdYDGDjSgga4N0Fx1gMYONKCBrg3QXHWAxg40oIGuDdBcdYDGDjSgga4N0Fx1gMYONKCBrg3QXHWAxg40oIGuDdBcdYDGDjSgga4N0Fx1gMYONKCBrg3QXHWAxg40oIGuDdBcdYDGDjSgga4N0Fx1gMYONKCBrg3QXHWAxg40oIGuDdBcdYDGDjSgga4N0Fx1gMYONKCBrg3QXHWAxg40oIGuDdBcdYDGDjSgga4N0Fx1gMYONKCBrg3QXHWAxg40oIGuDdBcdYDGDjSgga4N0Fx1gMYONKCBrg3QXHWAxg40oIGuDdBcdYDGDjSgga4N0Fx1gMYONKCBrg3QXHWAxg40oIGuDdBcdYDGDjSgga4N0Fx1gMYONKCBrg3QXHWAxg40oIGuDdBcdYDGDjSgga4N0Fx1gMYONKCBrg3QXHWAxg40oIGuDdBcdYDGDjSgga4N0Fx1gMYONKCBrg3QXHWAxg40oIGuDdBcdYDGDjSgga4N0Fx1gMYONKCBrg3QXHWAxg40oIGuDdBcdYDGDjSgga4N0Fx1gMYONKCBrg3QXHWAxg40oIGuDdBcdYDGDjSgga4N0Fx1gMYONKCBrg3QXHWAxg40oIGuDdBcdYDGDjSgga4N0Fx1gMYONKCBrg3QXHWAxg40oIGuDdBcdYDGDjSgga4N0Fx1gMYONKCBrg3QXHWAxg40oIGuDdBcdYDGDjSgga4N0Fx1gMYONKCBrg3QXHWAxg40oIGuDdBcdYDGDjSgga4N0Fx1gMYONKCBrg3QXHWAxg40oIGuDdBcdYDGDjSgga4N0Fx1gMYONKCBrg3QXHWAxg40oIGuDdBcdYDGDjSgga4N0Fx1gMYONKCBrg3QXHWAxg40oIGuDdBcdYDGDjSgga4N0Fx1gMYONKCBrg3QXHWAxg40oIGuDdBcdYDGDjSgga4N0Fx1gMYONKCBrg3QXHWAxg40oIGuDdBcdYDGDjSgga4N0Fx1gMYONKCBrg3QXHWAxg40oIGuDdBcdYDGDjSgga4N0Fx1gMYONKCBrg3QXHWAxg40oIGuDdBcdYDGDjSgga4N0Fx1gMYONKCBrg3QXHWAxg40oIGuDdBcdYDGDjSgga4N0Fx1gMYONKCBrg3QXHWAxg40oIGuDdBcdYDGDjSgga4N0Fx1gMYONKCBrg3QXHWAxg40oIGuDdBcdYDGDjSgga4N0Fx1gMYONKCBrg3QXHWAxg40oIGuDdBcdYDGDjSgga4N0Fx1gMYONKCBrg3QXHWAxg40oIGuDdBcdYDGDjSgga4N0Fx1gMYONKCBrg3QXHWAxg40oIGuDdBcdYDGDjSgga4N0Fx1gMYONKCBrg3QXHWAxg40oIGuDdBcdYDGDjSgga4N0Fx1gMYONKCBrg3QXHWAxg40oIGuDdBcdYDGDjSgga4N0Fx1gMYONKCBrg3QXHWAxg40oIGuDdBcdYDGDjSgga4N0Fx1gMYONKCBrg3QXHWAxg40oIGuDdBcdYDGDjSgga4N0Fx1gMYONKCBrg3QXHWAxg40oIGuDdBcdYDGDjSgga4N0Fx1gMYONKCBrg3QXHWAxg40oIGuDdBcdYDGDjSgga4N0Fx1gMYONKCBrg3QXHWAxg40oIGuDdBcdYDGDjSgga4N0Fx1gMYONKCBrg3QXHWAxg40oIGuDdBcdYDGDjSgga4N0Fx1gMYONKCBrg3QXHWAxg40oIGuDdBcdYDGDjSgga4N0Fx1gMYONKCBrg3QXHWAxg40oIGuDdBcdYDGDjSgga4N0Fx1gMYONKCBrg3QXHWAxg40oIGuDdBcdYDGDjSgga4N0Fx1gMYONKCBrg3QXHWAxg40oIGuDdBcdYDGDjSgga4N0Fx1gMYONKCBrg3QXHWAxg40oIGuDdBcdYDGDjSgga4N0Fx1gMYONKCBrg3QXHWAxg40oIGuDdBcdYDGDjSgga4N0Fx1gMYONKCBrg3QXHWAxg40oIGuDdBcdYDGDjSgga4N0Fx1gMYONKCBrg3QXHWAxg40oIGuDdBcdYDGDjSgga4N0Fx1gMYONKCBrg3QXHWAxg40oIGuDdDcLQNEaOxAAxro1sD3qg9/6l0/QIjGDjSggW4NXFd9+FPvygFCNHagAQ10a+CK6sOfehcMEKKxAw1ooFsD51Uf/tQ7Y4AQjR1oQAPdGnh79eFPvRMHCNHYgQY00K2B46oPf+odOkCIxg40oIFuDRxSffhT775JNgwQo7EDDWigSwMbktyn+vBnDJcMEKSxAw1ooEsDF1Uf+ozjjQMEaexAAxro0sDrqg99xnHQAEEaO9CABro0cED1oc9YvAxd/0Np7EADy9/AZ6oPe8Zz7ABhGjvQgAaWvYGXVh/2jOeeSb4xQJzGDjSggWVtYPru/XtUH/aM6VUDBGrsQAMaWNYGTqg+5BnXnvMTOqojNXagAQ0sWwPXJLlX9SHP2J43QKjGDjSggWVr4DnVhzvj2yXJOQPEauxAAxpYlgY+MZ+tcLv2TfLNAaI1dqABDSx6A9NZurf7Djvi6QOEa+xAAxpY9AYOc+thZ/iKyvofXmMHGljcBl7v1sPOmv5mcdoAERs70IAGFq2BM5Ls6vbDHXHnJGcNELOxAw1oYFEa+GCSO7n1sFo34TMGiNrYgQY0MHoDp7v5stqml1LeMEDcxg40oIGR/+br40asmUN8Z3T5D7mxAw2M1cCNSZ7pvsN62CfJ2QNEb+xAAxoY4Us2fM6XdTW9zHL4/P2m1T8Axg40oIGKJxu92DudqX6Aw4lzjA5BO9CABpa9gevnpxp5sALDmJ5xeUySSwf4ATF2oAENrHYDlyR5aZK7Vx+2sC0Pm98N+OkkGxwEbgYa0MACNvCDJBcleV2SAx35LKL7JHlqkuOSvCPJ+Ukun1/GuWWAHzJjBxro28At81l0+Xw2nT6fVYfMZxcAAAAAAAAAAAAAAAAAAAAAAAAAAAAAAAAAAAAAAAAAAAAAAAAAAAAAAAAAAAAAAAAAAAAAAAAAAAAAAAAAAAAAAAAAAAAAAAAAAAAAAAAAAAAAAAAAAAAAAGTR/S9h7ld+vqadlQAAAABJRU5ErkJggg==;" vertex="1" parent="1">
          <mxGeometry x="737" y="860" width="20" height="20" as="geometry" />
        </mxCell>
        <mxCell id="s4q91J8qo0bawT3tdvDm-18" value="" style="endArrow=classic;html=1;rounded=0;" edge="1" parent="1">
          <mxGeometry width="50" height="50" relative="1" as="geometry">
            <mxPoint x="610" y="869.84" as="sourcePoint" />
            <mxPoint x="580" y="869.84" as="targetPoint" />
          </mxGeometry>
        </mxCell>
        <mxCell id="s4q91J8qo0bawT3tdvDm-19" value="&lt;div&gt;Waiting until&lt;/div&gt;&lt;div&gt;raw bytes are written&lt;br&gt;&lt;/div&gt;" style="text;html=1;align=center;verticalAlign=middle;whiteSpace=wrap;rounded=0;" vertex="1" parent="1">
          <mxGeometry x="625" y="797.5" width="129" height="30" as="geometry" />
        </mxCell>
        <mxCell id="s4q91J8qo0bawT3tdvDm-20" value="&lt;div&gt;Reading compressed bytes&lt;/div&gt;" style="text;html=1;align=center;verticalAlign=middle;whiteSpace=wrap;rounded=0;" vertex="1" parent="1">
          <mxGeometry x="580" y="900" width="105" height="30" as="geometry" />
        </mxCell>
        <mxCell id="s4q91J8qo0bawT3tdvDm-21" value="&lt;font face=&quot;Courier New&quot;&gt;COMP&lt;/font&gt;" style="rounded=0;whiteSpace=wrap;html=1;strokeColor=none;" vertex="1" parent="1">
          <mxGeometry x="244" y="640" width="50" height="30" as="geometry" />
        </mxCell>
        <mxCell id="s4q91J8qo0bawT3tdvDm-22" value="&lt;div&gt;Writing&lt;/div&gt;&lt;div&gt;raw bytes&lt;br&gt;&lt;/div&gt;" style="text;html=1;align=center;verticalAlign=middle;whiteSpace=wrap;rounded=0;" vertex="1" parent="1">
          <mxGeometry x="677" y="900" width="105" height="30" as="geometry" />
        </mxCell>
        <mxCell id="YI-S8kQtEWu3DzI2zEuL-1" value="" style="endArrow=classic;html=1;rounded=0;" edge="1" parent="1">
          <mxGeometry width="50" height="50" relative="1" as="geometry">
            <mxPoint x="630" y="784.86" as="sourcePoint" />
            <mxPoint x="600" y="784.86" as="targetPoint" />
          </mxGeometry>
        </mxCell>
      </root>
    </mxGraphModel>
  </diagram>
</mxfile>
